G04 Layer: TopPasteMaskLayer*
G04 EasyEDA v6.4.32, 2022-03-07 19:42:49*
G04 6d175750cd924158a65b80fb6ee35e85,2ace594c3a204291bb7abb2ca186b691,10*
G04 Gerber Generator version 0.2*
G04 Scale: 100 percent, Rotated: No, Reflected: No *
G04 Dimensions in millimeters *
G04 leading zeros omitted , absolute positions ,4 integer and 5 decimal *
%FSLAX45Y45*%
%MOMM*%

%ADD12R,1.3005X1.5011*%
%ADD13R,0.5994X1.0008*%
%ADD14R,1.1989X1.1989*%
%ADD15R,1.4699X1.1600*%
%ADD18R,0.6350X1.2700*%
%ADD21R,1.6002X1.3995*%
%ADD22R,1.4503X1.3005*%
%ADD23R,1.8999X1.8999*%
%ADD24R,0.3988X1.3487*%
%ADD25R,1.8999X1.0998*%

%LPD*%
G36*
X971295Y5256656D02*
G01*
X1101344Y5256656D01*
X1101344Y5106543D01*
X971295Y5106543D01*
G37*
G36*
X1159255Y5256656D02*
G01*
X1289304Y5256656D01*
X1289304Y5106543D01*
X1159255Y5106543D01*
G37*
D12*
G01*
X1224279Y4635500D03*
G01*
X1036320Y4635500D03*
G36*
X971295Y4151756D02*
G01*
X1101344Y4151756D01*
X1101344Y4001643D01*
X971295Y4001643D01*
G37*
G36*
X1159255Y4151756D02*
G01*
X1289304Y4151756D01*
X1289304Y4001643D01*
X1159255Y4001643D01*
G37*
D13*
G01*
X4584700Y5760720D03*
G01*
X4584700Y5542279D03*
G01*
X4622800Y4262120D03*
G01*
X4622800Y4043679D03*
G01*
X4597400Y2827020D03*
G01*
X4597400Y2608579D03*
G01*
X4610100Y1290320D03*
G01*
X4610100Y1071879D03*
G01*
X6477000Y5760720D03*
G01*
X6477000Y5542279D03*
G01*
X6502400Y4274820D03*
G01*
X6502400Y4056379D03*
G01*
X6464300Y2839720D03*
G01*
X6464300Y2621279D03*
G01*
X6426200Y1290320D03*
G01*
X6426200Y1071879D03*
G01*
X8242300Y5760720D03*
G01*
X8242300Y5542279D03*
G01*
X8216900Y4274820D03*
G01*
X8216900Y4056379D03*
G01*
X8216900Y2827020D03*
G01*
X8216900Y2608579D03*
G01*
X8242300Y1290320D03*
G01*
X8242300Y1071879D03*
G01*
X9994900Y5748020D03*
G01*
X9994900Y5529579D03*
G01*
X10058400Y4274820D03*
G01*
X10058400Y4056379D03*
G01*
X10033000Y2839720D03*
G01*
X10033000Y2621279D03*
G01*
X10033000Y1264920D03*
G01*
X10033000Y1046479D03*
G01*
X11772900Y5773420D03*
G01*
X11772900Y5554979D03*
G01*
X11785600Y4274820D03*
G01*
X11785600Y4056379D03*
G01*
X11823700Y2839720D03*
G01*
X11823700Y2621279D03*
G01*
X11798300Y1290320D03*
G01*
X11798300Y1071879D03*
G01*
X13639800Y5786120D03*
G01*
X13639800Y5567679D03*
G01*
X13652500Y4274820D03*
G01*
X13652500Y4056379D03*
G01*
X13639800Y2852420D03*
G01*
X13639800Y2633979D03*
G01*
X13627100Y1277620D03*
G01*
X13627100Y1059179D03*
G01*
X15430500Y5786120D03*
G01*
X15430500Y5567679D03*
G01*
X15379700Y4274820D03*
G01*
X15379700Y4056379D03*
G01*
X15417800Y2852420D03*
G01*
X15417800Y2633979D03*
G01*
X15367000Y1303020D03*
G01*
X15367000Y1084579D03*
G01*
X17094200Y5786120D03*
G01*
X17094200Y5567679D03*
G01*
X17081500Y4249420D03*
G01*
X17081500Y4030979D03*
G01*
X17094200Y2827020D03*
G01*
X17094200Y2608579D03*
G01*
X17157700Y1303020D03*
G01*
X17157700Y1084579D03*
G01*
X18859500Y5786120D03*
G01*
X18859500Y5567679D03*
G01*
X18897600Y4274820D03*
G01*
X18897600Y4056379D03*
G01*
X18923000Y2877820D03*
G01*
X18923000Y2659379D03*
G01*
X18935700Y1315720D03*
G01*
X18935700Y1097279D03*
G01*
X20688300Y5773420D03*
G01*
X20688300Y5554979D03*
G01*
X20688300Y4274820D03*
G01*
X20688300Y4056379D03*
G01*
X20739100Y2852420D03*
G01*
X20739100Y2633979D03*
G01*
X20751800Y1328420D03*
G01*
X20751800Y1109979D03*
D14*
G01*
X2908300Y4683760D03*
G01*
X2908300Y4892039D03*
D15*
G01*
X2590825Y5270500D03*
G01*
X2590825Y5473700D03*
G01*
X2159000Y5486374D03*
G01*
X2159000Y5283174D03*
G01*
X1371625Y1739900D03*
G01*
X1371625Y1943100D03*
G36*
X2520111Y4277182D02*
G01*
X2636113Y4277182D01*
X2636113Y4130192D01*
X2520111Y4130192D01*
G37*
G36*
X2723311Y4277182D02*
G01*
X2839313Y4277182D01*
X2839313Y4130192D01*
X2723311Y4130192D01*
G37*
G36*
X1671701Y1115009D02*
G01*
X1831695Y1115009D01*
X1831695Y975004D01*
X1671701Y975004D01*
G37*
G36*
X2511679Y1115009D02*
G01*
X2671699Y1115009D01*
X2671699Y975004D01*
X2511679Y975004D01*
G37*
G36*
X1671675Y1564995D02*
G01*
X1831695Y1564995D01*
X1831695Y1424990D01*
X1671675Y1424990D01*
G37*
G36*
X2511679Y1564995D02*
G01*
X2671699Y1564995D01*
X2671699Y1424990D01*
X2511679Y1424990D01*
G37*
G36*
X3310000Y5610809D02*
G01*
X3469995Y5610809D01*
X3469995Y5470804D01*
X3310000Y5470804D01*
G37*
G36*
X4149979Y5610809D02*
G01*
X4309999Y5610809D01*
X4309999Y5470804D01*
X4149979Y5470804D01*
G37*
G36*
X3309975Y6060795D02*
G01*
X3469995Y6060795D01*
X3469995Y5920790D01*
X3309975Y5920790D01*
G37*
G36*
X4149979Y6060795D02*
G01*
X4309999Y6060795D01*
X4309999Y5920790D01*
X4149979Y5920790D01*
G37*
G36*
X3322700Y4112209D02*
G01*
X3482695Y4112209D01*
X3482695Y3972204D01*
X3322700Y3972204D01*
G37*
G36*
X4162679Y4112209D02*
G01*
X4322699Y4112209D01*
X4322699Y3972204D01*
X4162679Y3972204D01*
G37*
G36*
X3322675Y4562195D02*
G01*
X3482695Y4562195D01*
X3482695Y4422190D01*
X3322675Y4422190D01*
G37*
G36*
X4162679Y4562195D02*
G01*
X4322699Y4562195D01*
X4322699Y4422190D01*
X4162679Y4422190D01*
G37*
G36*
X3310000Y2689809D02*
G01*
X3469995Y2689809D01*
X3469995Y2549804D01*
X3310000Y2549804D01*
G37*
G36*
X4149979Y2689809D02*
G01*
X4309999Y2689809D01*
X4309999Y2549804D01*
X4149979Y2549804D01*
G37*
G36*
X3309975Y3139795D02*
G01*
X3469995Y3139795D01*
X3469995Y2999790D01*
X3309975Y2999790D01*
G37*
G36*
X4149979Y3139795D02*
G01*
X4309999Y3139795D01*
X4309999Y2999790D01*
X4149979Y2999790D01*
G37*
G36*
X3310000Y1140409D02*
G01*
X3469995Y1140409D01*
X3469995Y1000404D01*
X3310000Y1000404D01*
G37*
G36*
X4149979Y1140409D02*
G01*
X4309999Y1140409D01*
X4309999Y1000404D01*
X4149979Y1000404D01*
G37*
G36*
X3309975Y1590395D02*
G01*
X3469995Y1590395D01*
X3469995Y1450390D01*
X3309975Y1450390D01*
G37*
G36*
X4149979Y1590395D02*
G01*
X4309999Y1590395D01*
X4309999Y1450390D01*
X4149979Y1450390D01*
G37*
G36*
X5088000Y5610809D02*
G01*
X5247995Y5610809D01*
X5247995Y5470804D01*
X5088000Y5470804D01*
G37*
G36*
X5927979Y5610809D02*
G01*
X6087999Y5610809D01*
X6087999Y5470804D01*
X5927979Y5470804D01*
G37*
G36*
X5087975Y6060795D02*
G01*
X5247995Y6060795D01*
X5247995Y5920790D01*
X5087975Y5920790D01*
G37*
G36*
X5927979Y6060795D02*
G01*
X6087999Y6060795D01*
X6087999Y5920790D01*
X5927979Y5920790D01*
G37*
G36*
X5075300Y4124909D02*
G01*
X5235295Y4124909D01*
X5235295Y3984904D01*
X5075300Y3984904D01*
G37*
G36*
X5915279Y4124909D02*
G01*
X6075299Y4124909D01*
X6075299Y3984904D01*
X5915279Y3984904D01*
G37*
G36*
X5075275Y4574895D02*
G01*
X5235295Y4574895D01*
X5235295Y4434890D01*
X5075275Y4434890D01*
G37*
G36*
X5915279Y4574895D02*
G01*
X6075299Y4574895D01*
X6075299Y4434890D01*
X5915279Y4434890D01*
G37*
G36*
X5100700Y2689809D02*
G01*
X5260695Y2689809D01*
X5260695Y2549804D01*
X5100700Y2549804D01*
G37*
G36*
X5940679Y2689809D02*
G01*
X6100699Y2689809D01*
X6100699Y2549804D01*
X5940679Y2549804D01*
G37*
G36*
X5100675Y3139795D02*
G01*
X5260695Y3139795D01*
X5260695Y2999790D01*
X5100675Y2999790D01*
G37*
G36*
X5940679Y3139795D02*
G01*
X6100699Y3139795D01*
X6100699Y2999790D01*
X5940679Y2999790D01*
G37*
G36*
X5100700Y1140409D02*
G01*
X5260695Y1140409D01*
X5260695Y1000404D01*
X5100700Y1000404D01*
G37*
G36*
X5940679Y1140409D02*
G01*
X6100699Y1140409D01*
X6100699Y1000404D01*
X5940679Y1000404D01*
G37*
G36*
X5100675Y1590395D02*
G01*
X5260695Y1590395D01*
X5260695Y1450390D01*
X5100675Y1450390D01*
G37*
G36*
X5940679Y1590395D02*
G01*
X6100699Y1590395D01*
X6100699Y1450390D01*
X5940679Y1450390D01*
G37*
G36*
X6866000Y5610809D02*
G01*
X7025995Y5610809D01*
X7025995Y5470804D01*
X6866000Y5470804D01*
G37*
G36*
X7705979Y5610809D02*
G01*
X7865999Y5610809D01*
X7865999Y5470804D01*
X7705979Y5470804D01*
G37*
G36*
X6865975Y6060795D02*
G01*
X7025995Y6060795D01*
X7025995Y5920790D01*
X6865975Y5920790D01*
G37*
G36*
X7705979Y6060795D02*
G01*
X7865999Y6060795D01*
X7865999Y5920790D01*
X7705979Y5920790D01*
G37*
G36*
X6853300Y4124909D02*
G01*
X7013295Y4124909D01*
X7013295Y3984904D01*
X6853300Y3984904D01*
G37*
G36*
X7693279Y4124909D02*
G01*
X7853299Y4124909D01*
X7853299Y3984904D01*
X7693279Y3984904D01*
G37*
G36*
X6853275Y4574895D02*
G01*
X7013295Y4574895D01*
X7013295Y4434890D01*
X6853275Y4434890D01*
G37*
G36*
X7693279Y4574895D02*
G01*
X7853299Y4574895D01*
X7853299Y4434890D01*
X7693279Y4434890D01*
G37*
G36*
X6866000Y2689809D02*
G01*
X7025995Y2689809D01*
X7025995Y2549804D01*
X6866000Y2549804D01*
G37*
G36*
X7705979Y2689809D02*
G01*
X7865999Y2689809D01*
X7865999Y2549804D01*
X7705979Y2549804D01*
G37*
G36*
X6865975Y3139795D02*
G01*
X7025995Y3139795D01*
X7025995Y2999790D01*
X6865975Y2999790D01*
G37*
G36*
X7705979Y3139795D02*
G01*
X7865999Y3139795D01*
X7865999Y2999790D01*
X7705979Y2999790D01*
G37*
G36*
X6878700Y1140409D02*
G01*
X7038695Y1140409D01*
X7038695Y1000404D01*
X6878700Y1000404D01*
G37*
G36*
X7718679Y1140409D02*
G01*
X7878699Y1140409D01*
X7878699Y1000404D01*
X7718679Y1000404D01*
G37*
G36*
X6878675Y1590395D02*
G01*
X7038695Y1590395D01*
X7038695Y1450390D01*
X6878675Y1450390D01*
G37*
G36*
X7718679Y1590395D02*
G01*
X7878699Y1590395D01*
X7878699Y1450390D01*
X7718679Y1450390D01*
G37*
G36*
X8656700Y5598109D02*
G01*
X8816695Y5598109D01*
X8816695Y5458104D01*
X8656700Y5458104D01*
G37*
G36*
X9496679Y5598109D02*
G01*
X9656699Y5598109D01*
X9656699Y5458104D01*
X9496679Y5458104D01*
G37*
G36*
X8656675Y6048095D02*
G01*
X8816695Y6048095D01*
X8816695Y5908090D01*
X8656675Y5908090D01*
G37*
G36*
X9496679Y6048095D02*
G01*
X9656699Y6048095D01*
X9656699Y5908090D01*
X9496679Y5908090D01*
G37*
G36*
X8656700Y4124909D02*
G01*
X8816695Y4124909D01*
X8816695Y3984904D01*
X8656700Y3984904D01*
G37*
G36*
X9496679Y4124909D02*
G01*
X9656699Y4124909D01*
X9656699Y3984904D01*
X9496679Y3984904D01*
G37*
G36*
X8656675Y4574895D02*
G01*
X8816695Y4574895D01*
X8816695Y4434890D01*
X8656675Y4434890D01*
G37*
G36*
X9496679Y4574895D02*
G01*
X9656699Y4574895D01*
X9656699Y4434890D01*
X9496679Y4434890D01*
G37*
G36*
X8656700Y2689809D02*
G01*
X8816695Y2689809D01*
X8816695Y2549804D01*
X8656700Y2549804D01*
G37*
G36*
X9496679Y2689809D02*
G01*
X9656699Y2689809D01*
X9656699Y2549804D01*
X9496679Y2549804D01*
G37*
G36*
X8656675Y3139795D02*
G01*
X8816695Y3139795D01*
X8816695Y2999790D01*
X8656675Y2999790D01*
G37*
G36*
X9496679Y3139795D02*
G01*
X9656699Y3139795D01*
X9656699Y2999790D01*
X9496679Y2999790D01*
G37*
G36*
X8656700Y1127709D02*
G01*
X8816695Y1127709D01*
X8816695Y987704D01*
X8656700Y987704D01*
G37*
G36*
X9496679Y1127709D02*
G01*
X9656699Y1127709D01*
X9656699Y987704D01*
X9496679Y987704D01*
G37*
G36*
X8656675Y1577695D02*
G01*
X8816695Y1577695D01*
X8816695Y1437690D01*
X8656675Y1437690D01*
G37*
G36*
X9496679Y1577695D02*
G01*
X9656699Y1577695D01*
X9656699Y1437690D01*
X9496679Y1437690D01*
G37*
G36*
X10422000Y5623509D02*
G01*
X10581995Y5623509D01*
X10581995Y5483504D01*
X10422000Y5483504D01*
G37*
G36*
X11261979Y5623509D02*
G01*
X11421999Y5623509D01*
X11421999Y5483504D01*
X11261979Y5483504D01*
G37*
G36*
X10421975Y6073495D02*
G01*
X10581995Y6073495D01*
X10581995Y5933490D01*
X10421975Y5933490D01*
G37*
G36*
X11261979Y6073495D02*
G01*
X11421999Y6073495D01*
X11421999Y5933490D01*
X11261979Y5933490D01*
G37*
G36*
X10422000Y4124909D02*
G01*
X10581995Y4124909D01*
X10581995Y3984904D01*
X10422000Y3984904D01*
G37*
G36*
X11261979Y4124909D02*
G01*
X11421999Y4124909D01*
X11421999Y3984904D01*
X11261979Y3984904D01*
G37*
G36*
X10421975Y4574895D02*
G01*
X10581995Y4574895D01*
X10581995Y4434890D01*
X10421975Y4434890D01*
G37*
G36*
X11261979Y4574895D02*
G01*
X11421999Y4574895D01*
X11421999Y4434890D01*
X11261979Y4434890D01*
G37*
G36*
X10434700Y2689809D02*
G01*
X10594695Y2689809D01*
X10594695Y2549804D01*
X10434700Y2549804D01*
G37*
G36*
X11274679Y2689809D02*
G01*
X11434699Y2689809D01*
X11434699Y2549804D01*
X11274679Y2549804D01*
G37*
G36*
X10434675Y3139795D02*
G01*
X10594695Y3139795D01*
X10594695Y2999790D01*
X10434675Y2999790D01*
G37*
G36*
X11274679Y3139795D02*
G01*
X11434699Y3139795D01*
X11434699Y2999790D01*
X11274679Y2999790D01*
G37*
G36*
X10434700Y1140409D02*
G01*
X10594695Y1140409D01*
X10594695Y1000404D01*
X10434700Y1000404D01*
G37*
G36*
X11274679Y1140409D02*
G01*
X11434699Y1140409D01*
X11434699Y1000404D01*
X11274679Y1000404D01*
G37*
G36*
X10434675Y1590395D02*
G01*
X10594695Y1590395D01*
X10594695Y1450390D01*
X10434675Y1450390D01*
G37*
G36*
X11274679Y1590395D02*
G01*
X11434699Y1590395D01*
X11434699Y1450390D01*
X11274679Y1450390D01*
G37*
G36*
X12212700Y5636209D02*
G01*
X12372695Y5636209D01*
X12372695Y5496204D01*
X12212700Y5496204D01*
G37*
G36*
X13052679Y5636209D02*
G01*
X13212699Y5636209D01*
X13212699Y5496204D01*
X13052679Y5496204D01*
G37*
G36*
X12212675Y6086195D02*
G01*
X12372695Y6086195D01*
X12372695Y5946190D01*
X12212675Y5946190D01*
G37*
G36*
X13052679Y6086195D02*
G01*
X13212699Y6086195D01*
X13212699Y5946190D01*
X13052679Y5946190D01*
G37*
G36*
X12200000Y4124909D02*
G01*
X12359995Y4124909D01*
X12359995Y3984904D01*
X12200000Y3984904D01*
G37*
G36*
X13039979Y4124909D02*
G01*
X13199999Y4124909D01*
X13199999Y3984904D01*
X13039979Y3984904D01*
G37*
G36*
X12199975Y4574895D02*
G01*
X12359995Y4574895D01*
X12359995Y4434890D01*
X12199975Y4434890D01*
G37*
G36*
X13039979Y4574895D02*
G01*
X13199999Y4574895D01*
X13199999Y4434890D01*
X13039979Y4434890D01*
G37*
G36*
X12200000Y2702509D02*
G01*
X12359995Y2702509D01*
X12359995Y2562504D01*
X12200000Y2562504D01*
G37*
G36*
X13039979Y2702509D02*
G01*
X13199999Y2702509D01*
X13199999Y2562504D01*
X13039979Y2562504D01*
G37*
G36*
X12199975Y3152495D02*
G01*
X12359995Y3152495D01*
X12359995Y3012490D01*
X12199975Y3012490D01*
G37*
G36*
X13039979Y3152495D02*
G01*
X13199999Y3152495D01*
X13199999Y3012490D01*
X13039979Y3012490D01*
G37*
G36*
X12212700Y1140409D02*
G01*
X12372695Y1140409D01*
X12372695Y1000404D01*
X12212700Y1000404D01*
G37*
G36*
X13052679Y1140409D02*
G01*
X13212699Y1140409D01*
X13212699Y1000404D01*
X13052679Y1000404D01*
G37*
G36*
X12212675Y1590395D02*
G01*
X12372695Y1590395D01*
X12372695Y1450390D01*
X12212675Y1450390D01*
G37*
G36*
X13052679Y1590395D02*
G01*
X13212699Y1590395D01*
X13212699Y1450390D01*
X13052679Y1450390D01*
G37*
G36*
X13990700Y5636209D02*
G01*
X14150695Y5636209D01*
X14150695Y5496204D01*
X13990700Y5496204D01*
G37*
G36*
X14830679Y5636209D02*
G01*
X14990699Y5636209D01*
X14990699Y5496204D01*
X14830679Y5496204D01*
G37*
G36*
X13990675Y6086195D02*
G01*
X14150695Y6086195D01*
X14150695Y5946190D01*
X13990675Y5946190D01*
G37*
G36*
X14830679Y6086195D02*
G01*
X14990699Y6086195D01*
X14990699Y5946190D01*
X14830679Y5946190D01*
G37*
G36*
X13990700Y4124909D02*
G01*
X14150695Y4124909D01*
X14150695Y3984904D01*
X13990700Y3984904D01*
G37*
G36*
X14830679Y4124909D02*
G01*
X14990699Y4124909D01*
X14990699Y3984904D01*
X14830679Y3984904D01*
G37*
G36*
X13990675Y4574895D02*
G01*
X14150695Y4574895D01*
X14150695Y4434890D01*
X13990675Y4434890D01*
G37*
G36*
X14830679Y4574895D02*
G01*
X14990699Y4574895D01*
X14990699Y4434890D01*
X14830679Y4434890D01*
G37*
G36*
X13978000Y2702509D02*
G01*
X14137995Y2702509D01*
X14137995Y2562504D01*
X13978000Y2562504D01*
G37*
G36*
X14817979Y2702509D02*
G01*
X14977999Y2702509D01*
X14977999Y2562504D01*
X14817979Y2562504D01*
G37*
G36*
X13977975Y3152495D02*
G01*
X14137995Y3152495D01*
X14137995Y3012490D01*
X13977975Y3012490D01*
G37*
G36*
X14817979Y3152495D02*
G01*
X14977999Y3152495D01*
X14977999Y3012490D01*
X14817979Y3012490D01*
G37*
G36*
X13990700Y1153109D02*
G01*
X14150695Y1153109D01*
X14150695Y1013104D01*
X13990700Y1013104D01*
G37*
G36*
X14830679Y1153109D02*
G01*
X14990699Y1153109D01*
X14990699Y1013104D01*
X14830679Y1013104D01*
G37*
G36*
X13990675Y1603095D02*
G01*
X14150695Y1603095D01*
X14150695Y1463090D01*
X13990675Y1463090D01*
G37*
G36*
X14830679Y1603095D02*
G01*
X14990699Y1603095D01*
X14990699Y1463090D01*
X14830679Y1463090D01*
G37*
G36*
X15756000Y5636209D02*
G01*
X15915995Y5636209D01*
X15915995Y5496204D01*
X15756000Y5496204D01*
G37*
G36*
X16595979Y5636209D02*
G01*
X16755999Y5636209D01*
X16755999Y5496204D01*
X16595979Y5496204D01*
G37*
G36*
X15755975Y6086195D02*
G01*
X15915995Y6086195D01*
X15915995Y5946190D01*
X15755975Y5946190D01*
G37*
G36*
X16595979Y6086195D02*
G01*
X16755999Y6086195D01*
X16755999Y5946190D01*
X16595979Y5946190D01*
G37*
G36*
X15768700Y4124909D02*
G01*
X15928695Y4124909D01*
X15928695Y3984904D01*
X15768700Y3984904D01*
G37*
G36*
X16608679Y4124909D02*
G01*
X16768699Y4124909D01*
X16768699Y3984904D01*
X16608679Y3984904D01*
G37*
G36*
X15768675Y4574895D02*
G01*
X15928695Y4574895D01*
X15928695Y4434890D01*
X15768675Y4434890D01*
G37*
G36*
X16608679Y4574895D02*
G01*
X16768699Y4574895D01*
X16768699Y4434890D01*
X16608679Y4434890D01*
G37*
G36*
X15768700Y2702509D02*
G01*
X15928695Y2702509D01*
X15928695Y2562504D01*
X15768700Y2562504D01*
G37*
G36*
X16608679Y2702509D02*
G01*
X16768699Y2702509D01*
X16768699Y2562504D01*
X16608679Y2562504D01*
G37*
G36*
X15768675Y3152495D02*
G01*
X15928695Y3152495D01*
X15928695Y3012490D01*
X15768675Y3012490D01*
G37*
G36*
X16608679Y3152495D02*
G01*
X16768699Y3152495D01*
X16768699Y3012490D01*
X16608679Y3012490D01*
G37*
G36*
X15768700Y1153109D02*
G01*
X15928695Y1153109D01*
X15928695Y1013104D01*
X15768700Y1013104D01*
G37*
G36*
X16608679Y1153109D02*
G01*
X16768699Y1153109D01*
X16768699Y1013104D01*
X16608679Y1013104D01*
G37*
G36*
X15768675Y1603095D02*
G01*
X15928695Y1603095D01*
X15928695Y1463090D01*
X15768675Y1463090D01*
G37*
G36*
X16608679Y1603095D02*
G01*
X16768699Y1603095D01*
X16768699Y1463090D01*
X16608679Y1463090D01*
G37*
G36*
X17534000Y5636209D02*
G01*
X17693995Y5636209D01*
X17693995Y5496204D01*
X17534000Y5496204D01*
G37*
G36*
X18373979Y5636209D02*
G01*
X18533999Y5636209D01*
X18533999Y5496204D01*
X18373979Y5496204D01*
G37*
G36*
X17533975Y6086195D02*
G01*
X17693995Y6086195D01*
X17693995Y5946190D01*
X17533975Y5946190D01*
G37*
G36*
X18373979Y6086195D02*
G01*
X18533999Y6086195D01*
X18533999Y5946190D01*
X18373979Y5946190D01*
G37*
G36*
X17534000Y4124909D02*
G01*
X17693995Y4124909D01*
X17693995Y3984904D01*
X17534000Y3984904D01*
G37*
G36*
X18373979Y4124909D02*
G01*
X18533999Y4124909D01*
X18533999Y3984904D01*
X18373979Y3984904D01*
G37*
G36*
X17533975Y4574895D02*
G01*
X17693995Y4574895D01*
X17693995Y4434890D01*
X17533975Y4434890D01*
G37*
G36*
X18373979Y4574895D02*
G01*
X18533999Y4574895D01*
X18533999Y4434890D01*
X18373979Y4434890D01*
G37*
G36*
X17546700Y2702509D02*
G01*
X17706695Y2702509D01*
X17706695Y2562504D01*
X17546700Y2562504D01*
G37*
G36*
X18386679Y2702509D02*
G01*
X18546699Y2702509D01*
X18546699Y2562504D01*
X18386679Y2562504D01*
G37*
G36*
X17546675Y3152495D02*
G01*
X17706695Y3152495D01*
X17706695Y3012490D01*
X17546675Y3012490D01*
G37*
G36*
X18386679Y3152495D02*
G01*
X18546699Y3152495D01*
X18546699Y3012490D01*
X18386679Y3012490D01*
G37*
G36*
X17546700Y1165809D02*
G01*
X17706695Y1165809D01*
X17706695Y1025804D01*
X17546700Y1025804D01*
G37*
G36*
X18386679Y1165809D02*
G01*
X18546699Y1165809D01*
X18546699Y1025804D01*
X18386679Y1025804D01*
G37*
G36*
X17546675Y1615795D02*
G01*
X17706695Y1615795D01*
X17706695Y1475790D01*
X17546675Y1475790D01*
G37*
G36*
X18386679Y1615795D02*
G01*
X18546699Y1615795D01*
X18546699Y1475790D01*
X18386679Y1475790D01*
G37*
G36*
X19324700Y5623509D02*
G01*
X19484695Y5623509D01*
X19484695Y5483504D01*
X19324700Y5483504D01*
G37*
G36*
X20164679Y5623509D02*
G01*
X20324699Y5623509D01*
X20324699Y5483504D01*
X20164679Y5483504D01*
G37*
G36*
X19324675Y6073495D02*
G01*
X19484695Y6073495D01*
X19484695Y5933490D01*
X19324675Y5933490D01*
G37*
G36*
X20164679Y6073495D02*
G01*
X20324699Y6073495D01*
X20324699Y5933490D01*
X20164679Y5933490D01*
G37*
G36*
X19312000Y4124909D02*
G01*
X19471995Y4124909D01*
X19471995Y3984904D01*
X19312000Y3984904D01*
G37*
G36*
X20151979Y4124909D02*
G01*
X20311999Y4124909D01*
X20311999Y3984904D01*
X20151979Y3984904D01*
G37*
G36*
X19311975Y4574895D02*
G01*
X19471995Y4574895D01*
X19471995Y4434890D01*
X19311975Y4434890D01*
G37*
G36*
X20151979Y4574895D02*
G01*
X20311999Y4574895D01*
X20311999Y4434890D01*
X20151979Y4434890D01*
G37*
G36*
X19312000Y2702509D02*
G01*
X19471995Y2702509D01*
X19471995Y2562504D01*
X19312000Y2562504D01*
G37*
G36*
X20151979Y2702509D02*
G01*
X20311999Y2702509D01*
X20311999Y2562504D01*
X20151979Y2562504D01*
G37*
G36*
X19311975Y3152495D02*
G01*
X19471995Y3152495D01*
X19471995Y3012490D01*
X19311975Y3012490D01*
G37*
G36*
X20151979Y3152495D02*
G01*
X20311999Y3152495D01*
X20311999Y3012490D01*
X20151979Y3012490D01*
G37*
G36*
X19312000Y1178509D02*
G01*
X19471995Y1178509D01*
X19471995Y1038504D01*
X19312000Y1038504D01*
G37*
G36*
X20151979Y1178509D02*
G01*
X20311999Y1178509D01*
X20311999Y1038504D01*
X20151979Y1038504D01*
G37*
G36*
X19311975Y1628495D02*
G01*
X19471995Y1628495D01*
X19471995Y1488490D01*
X19311975Y1488490D01*
G37*
G36*
X20151979Y1628495D02*
G01*
X20311999Y1628495D01*
X20311999Y1488490D01*
X20151979Y1488490D01*
G37*
G36*
X948689Y2336800D02*
G01*
X1012189Y2336800D01*
X1012189Y2209800D01*
X948689Y2209800D01*
G37*
D18*
G01*
X899160Y2273300D03*
G36*
X1170218Y2579705D02*
G01*
X1275377Y2688600D01*
X1312283Y2652958D01*
X1207124Y2544063D01*
G37*
G36*
X1226858Y2525006D02*
G01*
X1332016Y2633901D01*
X1368925Y2598262D01*
X1263766Y2489367D01*
G37*
G36*
X1285326Y2468544D02*
G01*
X1390484Y2577442D01*
X1427393Y2541800D01*
X1322232Y2432903D01*
G37*
G36*
X1341965Y2413848D02*
G01*
X1447126Y2522743D01*
X1484035Y2487104D01*
X1378874Y2378204D01*
G37*
G36*
X1400434Y2357386D02*
G01*
X1505595Y2466281D01*
X1542503Y2430642D01*
X1437340Y2321742D01*
G37*
G36*
X1457073Y2302687D02*
G01*
X1562237Y2411585D01*
X1599143Y2375941D01*
X1493984Y2267046D01*
G37*
G36*
X1513715Y2247988D02*
G01*
X1618876Y2356888D01*
X1655785Y2321245D01*
X1550624Y2212350D01*
G37*
G36*
X1572183Y2191529D02*
G01*
X1677344Y2300427D01*
X1714251Y2264783D01*
X1609092Y2155888D01*
G37*
G36*
X1628825Y2136830D02*
G01*
X1733984Y2245728D01*
X1770893Y2210087D01*
X1665734Y2101189D01*
G37*
G36*
X1687294Y2080369D02*
G01*
X1792452Y2189264D01*
X1829361Y2153625D01*
X1724200Y2044730D01*
G37*
G36*
X1743933Y2025672D02*
G01*
X1849092Y2134567D01*
X1886003Y2098926D01*
X1780842Y1990031D01*
G37*
G36*
X1997699Y2100877D02*
G01*
X2033341Y2137783D01*
X2142236Y2032624D01*
X2106594Y1995718D01*
G37*
G36*
X2052398Y2157516D02*
G01*
X2088037Y2194425D01*
X2196932Y2089266D01*
X2161293Y2052358D01*
G37*
G36*
X2108857Y2215984D02*
G01*
X2144499Y2252893D01*
X2253396Y2147732D01*
X2217755Y2110826D01*
G37*
G36*
X2163556Y2272626D02*
G01*
X2199195Y2309535D01*
X2308095Y2204374D01*
X2272451Y2167465D01*
G37*
G36*
X2220018Y2331095D02*
G01*
X2255657Y2368003D01*
X2364557Y2262840D01*
X2328913Y2225934D01*
G37*
G36*
X2274714Y2387737D02*
G01*
X2310358Y2424643D01*
X2419253Y2319484D01*
X2383612Y2282573D01*
G37*
G36*
X2329411Y2444376D02*
G01*
X2365054Y2481285D01*
X2473949Y2376124D01*
X2438311Y2339215D01*
G37*
G36*
X2385872Y2502844D02*
G01*
X2421516Y2539751D01*
X2530411Y2434592D01*
X2494770Y2397683D01*
G37*
G36*
X2440571Y2559484D02*
G01*
X2476212Y2596393D01*
X2585110Y2491234D01*
X2549469Y2454325D01*
G37*
G36*
X2497035Y2617952D02*
G01*
X2532674Y2654861D01*
X2641569Y2549700D01*
X2605930Y2512794D01*
G37*
G36*
X2551732Y2674592D02*
G01*
X2587373Y2711503D01*
X2696268Y2606342D01*
X2660627Y2569433D01*
G37*
G36*
X2548516Y2858841D02*
G01*
X2653675Y2967736D01*
X2690581Y2932094D01*
X2585422Y2823199D01*
G37*
G36*
X2491874Y2913537D02*
G01*
X2597033Y3022432D01*
X2633941Y2986793D01*
X2528783Y2877898D01*
G37*
G36*
X2433406Y2969999D02*
G01*
X2538567Y3078896D01*
X2575473Y3043255D01*
X2470315Y2934357D01*
G37*
G36*
X2376764Y3024695D02*
G01*
X2481925Y3133595D01*
X2518834Y3097951D01*
X2413673Y2989056D01*
G37*
G36*
X2318296Y3081157D02*
G01*
X2423459Y3190057D01*
X2460365Y3154413D01*
X2355204Y3045518D01*
G37*
G36*
X2261656Y3135858D02*
G01*
X2366815Y3244753D01*
X2403726Y3209112D01*
X2298562Y3100214D01*
G37*
G36*
X2205014Y3190554D02*
G01*
X2310175Y3299449D01*
X2347084Y3263811D01*
X2241923Y3154911D01*
G37*
G36*
X2146548Y3247016D02*
G01*
X2251707Y3355911D01*
X2288616Y3320270D01*
X2183455Y3211372D01*
G37*
G36*
X2089906Y3301712D02*
G01*
X2195065Y3410610D01*
X2231974Y3374969D01*
X2126815Y3266071D01*
G37*
G36*
X2031438Y3358174D02*
G01*
X2136599Y3467069D01*
X2173505Y3431430D01*
X2068347Y3322535D01*
G37*
G36*
X1974796Y3412873D02*
G01*
X2079957Y3521768D01*
X2116866Y3486127D01*
X2011707Y3377232D01*
G37*
G36*
X1718563Y3479175D02*
G01*
X1754205Y3516081D01*
X1863100Y3410922D01*
X1827458Y3374016D01*
G37*
G36*
X1663867Y3422533D02*
G01*
X1699506Y3459441D01*
X1808401Y3354283D01*
X1772762Y3317374D01*
G37*
G36*
X1607403Y3364067D02*
G01*
X1643044Y3400973D01*
X1751942Y3295815D01*
X1716300Y3258906D01*
G37*
G36*
X1552704Y3307425D02*
G01*
X1588348Y3344334D01*
X1697243Y3239173D01*
X1661604Y3202264D01*
G37*
G36*
X1496242Y3248959D02*
G01*
X1531886Y3285865D01*
X1640781Y3180704D01*
X1605142Y3143796D01*
G37*
G36*
X1441546Y3192315D02*
G01*
X1477187Y3229226D01*
X1586085Y3124062D01*
X1550441Y3087156D01*
G37*
G36*
X1386850Y3135675D02*
G01*
X1422488Y3172584D01*
X1531388Y3067423D01*
X1495745Y3030514D01*
G37*
G36*
X1330388Y3077207D02*
G01*
X1366029Y3114116D01*
X1474927Y3008955D01*
X1439283Y2972048D01*
G37*
G36*
X1275689Y3020565D02*
G01*
X1311330Y3057474D01*
X1420228Y2952315D01*
X1384587Y2915406D01*
G37*
G36*
X1219230Y2962099D02*
G01*
X1254869Y2999005D01*
X1363764Y2893847D01*
X1328125Y2856938D01*
G37*
G36*
X1164531Y2905457D02*
G01*
X1200172Y2942366D01*
X1309067Y2837207D01*
X1273426Y2800296D01*
G37*
D21*
G01*
X3101340Y5966460D03*
G01*
X2461259Y5966460D03*
D22*
G01*
X3124200Y6210300D03*
G01*
X2438400Y6210300D03*
D23*
G01*
X2900679Y6210300D03*
G01*
X2661920Y6210300D03*
D24*
G01*
X2910840Y5943600D03*
G01*
X2651759Y5943600D03*
G01*
X2847340Y5943600D03*
G01*
X2715259Y5943600D03*
G01*
X2781300Y5943600D03*
D25*
G01*
X1925320Y4927600D03*
G01*
X1554479Y4699000D03*
G01*
X1925320Y4699000D03*
G01*
X1554479Y4927600D03*
M02*
