G04 Layer: TopSolderMaskLayer*
G04 EasyEDA v6.4.32, 2022-03-07 19:42:49*
G04 6d175750cd924158a65b80fb6ee35e85,2ace594c3a204291bb7abb2ca186b691,10*
G04 Gerber Generator version 0.2*
G04 Scale: 100 percent, Rotated: No, Reflected: No *
G04 Dimensions in millimeters *
G04 leading zeros omitted , absolute positions ,4 integer and 5 decimal *
%FSLAX45Y45*%
%MOMM*%

%ADD10C,0.0001*%

%LPD*%
G36*
X961136Y5096255D02*
G01*
X961136Y5266689D01*
X1111504Y5266689D01*
X1111504Y5096255D01*
G37*
G36*
X1149095Y5096255D02*
G01*
X1149095Y5266689D01*
X1299463Y5266689D01*
X1299463Y5096255D01*
G37*
G36*
X1149095Y4550155D02*
G01*
X1149095Y4720589D01*
X1299463Y4720589D01*
X1299463Y4550155D01*
G37*
G36*
X961136Y4550155D02*
G01*
X961136Y4720589D01*
X1111504Y4720589D01*
X1111504Y4550155D01*
G37*
G36*
X961136Y3991355D02*
G01*
X961136Y4161789D01*
X1111504Y4161789D01*
X1111504Y3991355D01*
G37*
G36*
X1149095Y3991355D02*
G01*
X1149095Y4161789D01*
X1299463Y4161789D01*
X1299463Y3991355D01*
G37*
G36*
X4544568Y5700521D02*
G01*
X4544568Y5820918D01*
X4624831Y5820918D01*
X4624831Y5700521D01*
G37*
G36*
X4544568Y5482081D02*
G01*
X4544568Y5602478D01*
X4624831Y5602478D01*
X4624831Y5482081D01*
G37*
G36*
X4582668Y4201921D02*
G01*
X4582668Y4322318D01*
X4662931Y4322318D01*
X4662931Y4201921D01*
G37*
G36*
X4582668Y3983481D02*
G01*
X4582668Y4103878D01*
X4662931Y4103878D01*
X4662931Y3983481D01*
G37*
G36*
X4557268Y2766821D02*
G01*
X4557268Y2887218D01*
X4637531Y2887218D01*
X4637531Y2766821D01*
G37*
G36*
X4557268Y2548381D02*
G01*
X4557268Y2668778D01*
X4637531Y2668778D01*
X4637531Y2548381D01*
G37*
G36*
X4569968Y1230121D02*
G01*
X4569968Y1350518D01*
X4650231Y1350518D01*
X4650231Y1230121D01*
G37*
G36*
X4569968Y1011681D02*
G01*
X4569968Y1132078D01*
X4650231Y1132078D01*
X4650231Y1011681D01*
G37*
G36*
X6436868Y5700521D02*
G01*
X6436868Y5820918D01*
X6517131Y5820918D01*
X6517131Y5700521D01*
G37*
G36*
X6436868Y5482081D02*
G01*
X6436868Y5602478D01*
X6517131Y5602478D01*
X6517131Y5482081D01*
G37*
G36*
X6462268Y4214621D02*
G01*
X6462268Y4335018D01*
X6542531Y4335018D01*
X6542531Y4214621D01*
G37*
G36*
X6462268Y3996181D02*
G01*
X6462268Y4116578D01*
X6542531Y4116578D01*
X6542531Y3996181D01*
G37*
G36*
X6424168Y2779521D02*
G01*
X6424168Y2899918D01*
X6504431Y2899918D01*
X6504431Y2779521D01*
G37*
G36*
X6424168Y2561081D02*
G01*
X6424168Y2681478D01*
X6504431Y2681478D01*
X6504431Y2561081D01*
G37*
G36*
X6386068Y1230121D02*
G01*
X6386068Y1350518D01*
X6466331Y1350518D01*
X6466331Y1230121D01*
G37*
G36*
X6386068Y1011681D02*
G01*
X6386068Y1132078D01*
X6466331Y1132078D01*
X6466331Y1011681D01*
G37*
G36*
X8202168Y5700521D02*
G01*
X8202168Y5820918D01*
X8282431Y5820918D01*
X8282431Y5700521D01*
G37*
G36*
X8202168Y5482081D02*
G01*
X8202168Y5602478D01*
X8282431Y5602478D01*
X8282431Y5482081D01*
G37*
G36*
X8176768Y4214621D02*
G01*
X8176768Y4335018D01*
X8257031Y4335018D01*
X8257031Y4214621D01*
G37*
G36*
X8176768Y3996181D02*
G01*
X8176768Y4116578D01*
X8257031Y4116578D01*
X8257031Y3996181D01*
G37*
G36*
X8176768Y2766821D02*
G01*
X8176768Y2887218D01*
X8257031Y2887218D01*
X8257031Y2766821D01*
G37*
G36*
X8176768Y2548381D02*
G01*
X8176768Y2668778D01*
X8257031Y2668778D01*
X8257031Y2548381D01*
G37*
G36*
X8202168Y1230121D02*
G01*
X8202168Y1350518D01*
X8282431Y1350518D01*
X8282431Y1230121D01*
G37*
G36*
X8202168Y1011681D02*
G01*
X8202168Y1132078D01*
X8282431Y1132078D01*
X8282431Y1011681D01*
G37*
G36*
X9954768Y5687821D02*
G01*
X9954768Y5808218D01*
X10035031Y5808218D01*
X10035031Y5687821D01*
G37*
G36*
X9954768Y5469381D02*
G01*
X9954768Y5589778D01*
X10035031Y5589778D01*
X10035031Y5469381D01*
G37*
G36*
X10018268Y4214621D02*
G01*
X10018268Y4335018D01*
X10098531Y4335018D01*
X10098531Y4214621D01*
G37*
G36*
X10018268Y3996181D02*
G01*
X10018268Y4116578D01*
X10098531Y4116578D01*
X10098531Y3996181D01*
G37*
G36*
X9992868Y2779521D02*
G01*
X9992868Y2899918D01*
X10073131Y2899918D01*
X10073131Y2779521D01*
G37*
G36*
X9992868Y2561081D02*
G01*
X9992868Y2681478D01*
X10073131Y2681478D01*
X10073131Y2561081D01*
G37*
G36*
X9992868Y1204721D02*
G01*
X9992868Y1325118D01*
X10073131Y1325118D01*
X10073131Y1204721D01*
G37*
G36*
X9992868Y986281D02*
G01*
X9992868Y1106678D01*
X10073131Y1106678D01*
X10073131Y986281D01*
G37*
G36*
X11732768Y5713221D02*
G01*
X11732768Y5833618D01*
X11813031Y5833618D01*
X11813031Y5713221D01*
G37*
G36*
X11732768Y5494781D02*
G01*
X11732768Y5615178D01*
X11813031Y5615178D01*
X11813031Y5494781D01*
G37*
G36*
X11745468Y4214621D02*
G01*
X11745468Y4335018D01*
X11825731Y4335018D01*
X11825731Y4214621D01*
G37*
G36*
X11745468Y3996181D02*
G01*
X11745468Y4116578D01*
X11825731Y4116578D01*
X11825731Y3996181D01*
G37*
G36*
X11783568Y2779521D02*
G01*
X11783568Y2899918D01*
X11863831Y2899918D01*
X11863831Y2779521D01*
G37*
G36*
X11783568Y2561081D02*
G01*
X11783568Y2681478D01*
X11863831Y2681478D01*
X11863831Y2561081D01*
G37*
G36*
X11758168Y1230121D02*
G01*
X11758168Y1350518D01*
X11838431Y1350518D01*
X11838431Y1230121D01*
G37*
G36*
X11758168Y1011681D02*
G01*
X11758168Y1132078D01*
X11838431Y1132078D01*
X11838431Y1011681D01*
G37*
G36*
X13599668Y5725921D02*
G01*
X13599668Y5846318D01*
X13679931Y5846318D01*
X13679931Y5725921D01*
G37*
G36*
X13599668Y5507481D02*
G01*
X13599668Y5627878D01*
X13679931Y5627878D01*
X13679931Y5507481D01*
G37*
G36*
X13612368Y4214621D02*
G01*
X13612368Y4335018D01*
X13692631Y4335018D01*
X13692631Y4214621D01*
G37*
G36*
X13612368Y3996181D02*
G01*
X13612368Y4116578D01*
X13692631Y4116578D01*
X13692631Y3996181D01*
G37*
G36*
X13599668Y2792221D02*
G01*
X13599668Y2912618D01*
X13679931Y2912618D01*
X13679931Y2792221D01*
G37*
G36*
X13599668Y2573781D02*
G01*
X13599668Y2694178D01*
X13679931Y2694178D01*
X13679931Y2573781D01*
G37*
G36*
X13586968Y1217421D02*
G01*
X13586968Y1337818D01*
X13667231Y1337818D01*
X13667231Y1217421D01*
G37*
G36*
X13586968Y998981D02*
G01*
X13586968Y1119378D01*
X13667231Y1119378D01*
X13667231Y998981D01*
G37*
G36*
X15390368Y5725921D02*
G01*
X15390368Y5846318D01*
X15470631Y5846318D01*
X15470631Y5725921D01*
G37*
G36*
X15390368Y5507481D02*
G01*
X15390368Y5627878D01*
X15470631Y5627878D01*
X15470631Y5507481D01*
G37*
G36*
X15339568Y4214621D02*
G01*
X15339568Y4335018D01*
X15419831Y4335018D01*
X15419831Y4214621D01*
G37*
G36*
X15339568Y3996181D02*
G01*
X15339568Y4116578D01*
X15419831Y4116578D01*
X15419831Y3996181D01*
G37*
G36*
X15377668Y2792221D02*
G01*
X15377668Y2912618D01*
X15457931Y2912618D01*
X15457931Y2792221D01*
G37*
G36*
X15377668Y2573781D02*
G01*
X15377668Y2694178D01*
X15457931Y2694178D01*
X15457931Y2573781D01*
G37*
G36*
X15326868Y1242821D02*
G01*
X15326868Y1363218D01*
X15407131Y1363218D01*
X15407131Y1242821D01*
G37*
G36*
X15326868Y1024381D02*
G01*
X15326868Y1144778D01*
X15407131Y1144778D01*
X15407131Y1024381D01*
G37*
G36*
X17054068Y5725921D02*
G01*
X17054068Y5846318D01*
X17134331Y5846318D01*
X17134331Y5725921D01*
G37*
G36*
X17054068Y5507481D02*
G01*
X17054068Y5627878D01*
X17134331Y5627878D01*
X17134331Y5507481D01*
G37*
G36*
X17041368Y4189221D02*
G01*
X17041368Y4309618D01*
X17121631Y4309618D01*
X17121631Y4189221D01*
G37*
G36*
X17041368Y3970781D02*
G01*
X17041368Y4091178D01*
X17121631Y4091178D01*
X17121631Y3970781D01*
G37*
G36*
X17054068Y2766821D02*
G01*
X17054068Y2887218D01*
X17134331Y2887218D01*
X17134331Y2766821D01*
G37*
G36*
X17054068Y2548381D02*
G01*
X17054068Y2668778D01*
X17134331Y2668778D01*
X17134331Y2548381D01*
G37*
G36*
X17117568Y1242821D02*
G01*
X17117568Y1363218D01*
X17197831Y1363218D01*
X17197831Y1242821D01*
G37*
G36*
X17117568Y1024381D02*
G01*
X17117568Y1144778D01*
X17197831Y1144778D01*
X17197831Y1024381D01*
G37*
G36*
X18819368Y5725921D02*
G01*
X18819368Y5846318D01*
X18899631Y5846318D01*
X18899631Y5725921D01*
G37*
G36*
X18819368Y5507481D02*
G01*
X18819368Y5627878D01*
X18899631Y5627878D01*
X18899631Y5507481D01*
G37*
G36*
X18857468Y4214621D02*
G01*
X18857468Y4335018D01*
X18937731Y4335018D01*
X18937731Y4214621D01*
G37*
G36*
X18857468Y3996181D02*
G01*
X18857468Y4116578D01*
X18937731Y4116578D01*
X18937731Y3996181D01*
G37*
G36*
X18882868Y2817621D02*
G01*
X18882868Y2938018D01*
X18963131Y2938018D01*
X18963131Y2817621D01*
G37*
G36*
X18882868Y2599181D02*
G01*
X18882868Y2719578D01*
X18963131Y2719578D01*
X18963131Y2599181D01*
G37*
G36*
X18895568Y1255521D02*
G01*
X18895568Y1375918D01*
X18975831Y1375918D01*
X18975831Y1255521D01*
G37*
G36*
X18895568Y1037081D02*
G01*
X18895568Y1157478D01*
X18975831Y1157478D01*
X18975831Y1037081D01*
G37*
G36*
X20648168Y5713221D02*
G01*
X20648168Y5833618D01*
X20728431Y5833618D01*
X20728431Y5713221D01*
G37*
G36*
X20648168Y5494781D02*
G01*
X20648168Y5615178D01*
X20728431Y5615178D01*
X20728431Y5494781D01*
G37*
G36*
X20648168Y4214621D02*
G01*
X20648168Y4335018D01*
X20728431Y4335018D01*
X20728431Y4214621D01*
G37*
G36*
X20648168Y3996181D02*
G01*
X20648168Y4116578D01*
X20728431Y4116578D01*
X20728431Y3996181D01*
G37*
G36*
X20698968Y2792221D02*
G01*
X20698968Y2912618D01*
X20779231Y2912618D01*
X20779231Y2792221D01*
G37*
G36*
X20698968Y2573781D02*
G01*
X20698968Y2694178D01*
X20779231Y2694178D01*
X20779231Y2573781D01*
G37*
G36*
X20711668Y1268221D02*
G01*
X20711668Y1388618D01*
X20791931Y1388618D01*
X20791931Y1268221D01*
G37*
G36*
X20711668Y1049781D02*
G01*
X20711668Y1170178D01*
X20791931Y1170178D01*
X20791931Y1049781D01*
G37*
G36*
X2838195Y4613655D02*
G01*
X2838195Y4753863D01*
X2978404Y4753863D01*
X2978404Y4613655D01*
G37*
G36*
X2838195Y4821936D02*
G01*
X2838195Y4962144D01*
X2978404Y4962144D01*
X2978404Y4821936D01*
G37*
G36*
X2507234Y5202428D02*
G01*
X2507234Y5338571D01*
X2674365Y5338571D01*
X2674365Y5202428D01*
G37*
G36*
X2507234Y5405628D02*
G01*
X2507234Y5541771D01*
X2674365Y5541771D01*
X2674365Y5405628D01*
G37*
G36*
X2075434Y5418328D02*
G01*
X2075434Y5554471D01*
X2242565Y5554471D01*
X2242565Y5418328D01*
G37*
G36*
X2075434Y5215128D02*
G01*
X2075434Y5351271D01*
X2242565Y5351271D01*
X2242565Y5215128D01*
G37*
G36*
X1288034Y1671828D02*
G01*
X1288034Y1807971D01*
X1455165Y1807971D01*
X1455165Y1671828D01*
G37*
G36*
X1288034Y1875028D02*
G01*
X1288034Y2011171D01*
X1455165Y2011171D01*
X1455165Y1875028D01*
G37*
G36*
X2510027Y4120134D02*
G01*
X2510027Y4287265D01*
X2646172Y4287265D01*
X2646172Y4120134D01*
G37*
G36*
X2713227Y4120134D02*
G01*
X2713227Y4287265D01*
X2849372Y4287265D01*
X2849372Y4120134D01*
G37*
G36*
X1661668Y964945D02*
G01*
X1661668Y1125220D01*
X1841754Y1125220D01*
X1841754Y964945D01*
G37*
G36*
X2501645Y964945D02*
G01*
X2501645Y1125220D01*
X2681986Y1125220D01*
X2681986Y964945D01*
G37*
G36*
X1661413Y1414779D02*
G01*
X1661413Y1575054D01*
X1841754Y1575054D01*
X1841754Y1414779D01*
G37*
G36*
X2501645Y1414779D02*
G01*
X2501645Y1575054D01*
X2681986Y1575054D01*
X2681986Y1414779D01*
G37*
G36*
X3299713Y5460745D02*
G01*
X3299713Y5621020D01*
X3480054Y5621020D01*
X3480054Y5460745D01*
G37*
G36*
X4139945Y5460745D02*
G01*
X4139945Y5621020D01*
X4320286Y5621020D01*
X4320286Y5460745D01*
G37*
G36*
X3299713Y5910579D02*
G01*
X3299713Y6070854D01*
X3480054Y6070854D01*
X3480054Y5910579D01*
G37*
G36*
X4139945Y5910579D02*
G01*
X4139945Y6070854D01*
X4320286Y6070854D01*
X4320286Y5910579D01*
G37*
G36*
X3312413Y3962145D02*
G01*
X3312413Y4122420D01*
X3492754Y4122420D01*
X3492754Y3962145D01*
G37*
G36*
X4152645Y3962145D02*
G01*
X4152645Y4122420D01*
X4332986Y4122420D01*
X4332986Y3962145D01*
G37*
G36*
X3312413Y4411979D02*
G01*
X3312413Y4572254D01*
X3492754Y4572254D01*
X3492754Y4411979D01*
G37*
G36*
X4152645Y4411979D02*
G01*
X4152645Y4572254D01*
X4332986Y4572254D01*
X4332986Y4411979D01*
G37*
G36*
X3299713Y2539745D02*
G01*
X3299713Y2700020D01*
X3480054Y2700020D01*
X3480054Y2539745D01*
G37*
G36*
X4139945Y2539745D02*
G01*
X4139945Y2700020D01*
X4320286Y2700020D01*
X4320286Y2539745D01*
G37*
G36*
X3299713Y2989579D02*
G01*
X3299713Y3149854D01*
X3480054Y3149854D01*
X3480054Y2989579D01*
G37*
G36*
X4139945Y2989579D02*
G01*
X4139945Y3149854D01*
X4320286Y3149854D01*
X4320286Y2989579D01*
G37*
G36*
X3299713Y990345D02*
G01*
X3299713Y1150620D01*
X3480054Y1150620D01*
X3480054Y990345D01*
G37*
G36*
X4139945Y990345D02*
G01*
X4139945Y1150620D01*
X4320286Y1150620D01*
X4320286Y990345D01*
G37*
G36*
X3299713Y1440179D02*
G01*
X3299713Y1600454D01*
X3480054Y1600454D01*
X3480054Y1440179D01*
G37*
G36*
X4139945Y1440179D02*
G01*
X4139945Y1600454D01*
X4320286Y1600454D01*
X4320286Y1440179D01*
G37*
G36*
X5077713Y5460745D02*
G01*
X5077713Y5621020D01*
X5258054Y5621020D01*
X5258054Y5460745D01*
G37*
G36*
X5917945Y5460745D02*
G01*
X5917945Y5621020D01*
X6098286Y5621020D01*
X6098286Y5460745D01*
G37*
G36*
X5077713Y5910579D02*
G01*
X5077713Y6070854D01*
X5258054Y6070854D01*
X5258054Y5910579D01*
G37*
G36*
X5917945Y5910579D02*
G01*
X5917945Y6070854D01*
X6098286Y6070854D01*
X6098286Y5910579D01*
G37*
G36*
X5065013Y3974845D02*
G01*
X5065013Y4135120D01*
X5245354Y4135120D01*
X5245354Y3974845D01*
G37*
G36*
X5905245Y3974845D02*
G01*
X5905245Y4135120D01*
X6085586Y4135120D01*
X6085586Y3974845D01*
G37*
G36*
X5065013Y4424679D02*
G01*
X5065013Y4584954D01*
X5245354Y4584954D01*
X5245354Y4424679D01*
G37*
G36*
X5905245Y4424679D02*
G01*
X5905245Y4584954D01*
X6085586Y4584954D01*
X6085586Y4424679D01*
G37*
G36*
X5090413Y2539745D02*
G01*
X5090413Y2700020D01*
X5270754Y2700020D01*
X5270754Y2539745D01*
G37*
G36*
X5930645Y2539745D02*
G01*
X5930645Y2700020D01*
X6110986Y2700020D01*
X6110986Y2539745D01*
G37*
G36*
X5090413Y2989579D02*
G01*
X5090413Y3149854D01*
X5270754Y3149854D01*
X5270754Y2989579D01*
G37*
G36*
X5930645Y2989579D02*
G01*
X5930645Y3149854D01*
X6110986Y3149854D01*
X6110986Y2989579D01*
G37*
G36*
X5090413Y990345D02*
G01*
X5090413Y1150620D01*
X5270754Y1150620D01*
X5270754Y990345D01*
G37*
G36*
X5930645Y990345D02*
G01*
X5930645Y1150620D01*
X6110986Y1150620D01*
X6110986Y990345D01*
G37*
G36*
X5090413Y1440179D02*
G01*
X5090413Y1600454D01*
X5270754Y1600454D01*
X5270754Y1440179D01*
G37*
G36*
X5930645Y1440179D02*
G01*
X5930645Y1600454D01*
X6110986Y1600454D01*
X6110986Y1440179D01*
G37*
G36*
X6855713Y5460745D02*
G01*
X6855713Y5621020D01*
X7036054Y5621020D01*
X7036054Y5460745D01*
G37*
G36*
X7695945Y5460745D02*
G01*
X7695945Y5621020D01*
X7876286Y5621020D01*
X7876286Y5460745D01*
G37*
G36*
X6855713Y5910579D02*
G01*
X6855713Y6070854D01*
X7036054Y6070854D01*
X7036054Y5910579D01*
G37*
G36*
X7695945Y5910579D02*
G01*
X7695945Y6070854D01*
X7876286Y6070854D01*
X7876286Y5910579D01*
G37*
G36*
X6843013Y3974845D02*
G01*
X6843013Y4135120D01*
X7023354Y4135120D01*
X7023354Y3974845D01*
G37*
G36*
X7683245Y3974845D02*
G01*
X7683245Y4135120D01*
X7863586Y4135120D01*
X7863586Y3974845D01*
G37*
G36*
X6843013Y4424679D02*
G01*
X6843013Y4584954D01*
X7023354Y4584954D01*
X7023354Y4424679D01*
G37*
G36*
X7683245Y4424679D02*
G01*
X7683245Y4584954D01*
X7863586Y4584954D01*
X7863586Y4424679D01*
G37*
G36*
X6855713Y2539745D02*
G01*
X6855713Y2700020D01*
X7036054Y2700020D01*
X7036054Y2539745D01*
G37*
G36*
X7695945Y2539745D02*
G01*
X7695945Y2700020D01*
X7876286Y2700020D01*
X7876286Y2539745D01*
G37*
G36*
X6855713Y2989579D02*
G01*
X6855713Y3149854D01*
X7036054Y3149854D01*
X7036054Y2989579D01*
G37*
G36*
X7695945Y2989579D02*
G01*
X7695945Y3149854D01*
X7876286Y3149854D01*
X7876286Y2989579D01*
G37*
G36*
X6868413Y990345D02*
G01*
X6868413Y1150620D01*
X7048754Y1150620D01*
X7048754Y990345D01*
G37*
G36*
X7708645Y990345D02*
G01*
X7708645Y1150620D01*
X7888986Y1150620D01*
X7888986Y990345D01*
G37*
G36*
X6868413Y1440179D02*
G01*
X6868413Y1600454D01*
X7048754Y1600454D01*
X7048754Y1440179D01*
G37*
G36*
X7708645Y1440179D02*
G01*
X7708645Y1600454D01*
X7888986Y1600454D01*
X7888986Y1440179D01*
G37*
G36*
X8646413Y5448045D02*
G01*
X8646413Y5608320D01*
X8826754Y5608320D01*
X8826754Y5448045D01*
G37*
G36*
X9486645Y5448045D02*
G01*
X9486645Y5608320D01*
X9666986Y5608320D01*
X9666986Y5448045D01*
G37*
G36*
X8646413Y5897879D02*
G01*
X8646413Y6058154D01*
X8826754Y6058154D01*
X8826754Y5897879D01*
G37*
G36*
X9486645Y5897879D02*
G01*
X9486645Y6058154D01*
X9666986Y6058154D01*
X9666986Y5897879D01*
G37*
G36*
X8646413Y3974845D02*
G01*
X8646413Y4135120D01*
X8826754Y4135120D01*
X8826754Y3974845D01*
G37*
G36*
X9486645Y3974845D02*
G01*
X9486645Y4135120D01*
X9666986Y4135120D01*
X9666986Y3974845D01*
G37*
G36*
X8646413Y4424679D02*
G01*
X8646413Y4584954D01*
X8826754Y4584954D01*
X8826754Y4424679D01*
G37*
G36*
X9486645Y4424679D02*
G01*
X9486645Y4584954D01*
X9666986Y4584954D01*
X9666986Y4424679D01*
G37*
G36*
X8646413Y2539745D02*
G01*
X8646413Y2700020D01*
X8826754Y2700020D01*
X8826754Y2539745D01*
G37*
G36*
X9486645Y2539745D02*
G01*
X9486645Y2700020D01*
X9666986Y2700020D01*
X9666986Y2539745D01*
G37*
G36*
X8646413Y2989579D02*
G01*
X8646413Y3149854D01*
X8826754Y3149854D01*
X8826754Y2989579D01*
G37*
G36*
X9486645Y2989579D02*
G01*
X9486645Y3149854D01*
X9666986Y3149854D01*
X9666986Y2989579D01*
G37*
G36*
X8646413Y977645D02*
G01*
X8646413Y1137920D01*
X8826754Y1137920D01*
X8826754Y977645D01*
G37*
G36*
X9486645Y977645D02*
G01*
X9486645Y1137920D01*
X9666986Y1137920D01*
X9666986Y977645D01*
G37*
G36*
X8646413Y1427479D02*
G01*
X8646413Y1587754D01*
X8826754Y1587754D01*
X8826754Y1427479D01*
G37*
G36*
X9486645Y1427479D02*
G01*
X9486645Y1587754D01*
X9666986Y1587754D01*
X9666986Y1427479D01*
G37*
G36*
X10411713Y5473445D02*
G01*
X10411713Y5633720D01*
X10592054Y5633720D01*
X10592054Y5473445D01*
G37*
G36*
X11251945Y5473445D02*
G01*
X11251945Y5633720D01*
X11432286Y5633720D01*
X11432286Y5473445D01*
G37*
G36*
X10411713Y5923279D02*
G01*
X10411713Y6083554D01*
X10592054Y6083554D01*
X10592054Y5923279D01*
G37*
G36*
X11251945Y5923279D02*
G01*
X11251945Y6083554D01*
X11432286Y6083554D01*
X11432286Y5923279D01*
G37*
G36*
X10411713Y3974845D02*
G01*
X10411713Y4135120D01*
X10592054Y4135120D01*
X10592054Y3974845D01*
G37*
G36*
X11251945Y3974845D02*
G01*
X11251945Y4135120D01*
X11432286Y4135120D01*
X11432286Y3974845D01*
G37*
G36*
X10411713Y4424679D02*
G01*
X10411713Y4584954D01*
X10592054Y4584954D01*
X10592054Y4424679D01*
G37*
G36*
X11251945Y4424679D02*
G01*
X11251945Y4584954D01*
X11432286Y4584954D01*
X11432286Y4424679D01*
G37*
G36*
X10424413Y2539745D02*
G01*
X10424413Y2700020D01*
X10604754Y2700020D01*
X10604754Y2539745D01*
G37*
G36*
X11264645Y2539745D02*
G01*
X11264645Y2700020D01*
X11444986Y2700020D01*
X11444986Y2539745D01*
G37*
G36*
X10424413Y2989579D02*
G01*
X10424413Y3149854D01*
X10604754Y3149854D01*
X10604754Y2989579D01*
G37*
G36*
X11264645Y2989579D02*
G01*
X11264645Y3149854D01*
X11444986Y3149854D01*
X11444986Y2989579D01*
G37*
G36*
X10424413Y990345D02*
G01*
X10424413Y1150620D01*
X10604754Y1150620D01*
X10604754Y990345D01*
G37*
G36*
X11264645Y990345D02*
G01*
X11264645Y1150620D01*
X11444986Y1150620D01*
X11444986Y990345D01*
G37*
G36*
X10424413Y1440179D02*
G01*
X10424413Y1600454D01*
X10604754Y1600454D01*
X10604754Y1440179D01*
G37*
G36*
X11264645Y1440179D02*
G01*
X11264645Y1600454D01*
X11444986Y1600454D01*
X11444986Y1440179D01*
G37*
G36*
X12202413Y5486145D02*
G01*
X12202413Y5646420D01*
X12382754Y5646420D01*
X12382754Y5486145D01*
G37*
G36*
X13042645Y5486145D02*
G01*
X13042645Y5646420D01*
X13222986Y5646420D01*
X13222986Y5486145D01*
G37*
G36*
X12202413Y5935979D02*
G01*
X12202413Y6096254D01*
X12382754Y6096254D01*
X12382754Y5935979D01*
G37*
G36*
X13042645Y5935979D02*
G01*
X13042645Y6096254D01*
X13222986Y6096254D01*
X13222986Y5935979D01*
G37*
G36*
X12189713Y3974845D02*
G01*
X12189713Y4135120D01*
X12370054Y4135120D01*
X12370054Y3974845D01*
G37*
G36*
X13029945Y3974845D02*
G01*
X13029945Y4135120D01*
X13210286Y4135120D01*
X13210286Y3974845D01*
G37*
G36*
X12189713Y4424679D02*
G01*
X12189713Y4584954D01*
X12370054Y4584954D01*
X12370054Y4424679D01*
G37*
G36*
X13029945Y4424679D02*
G01*
X13029945Y4584954D01*
X13210286Y4584954D01*
X13210286Y4424679D01*
G37*
G36*
X12189713Y2552445D02*
G01*
X12189713Y2712720D01*
X12370054Y2712720D01*
X12370054Y2552445D01*
G37*
G36*
X13029945Y2552445D02*
G01*
X13029945Y2712720D01*
X13210286Y2712720D01*
X13210286Y2552445D01*
G37*
G36*
X12189713Y3002279D02*
G01*
X12189713Y3162554D01*
X12370054Y3162554D01*
X12370054Y3002279D01*
G37*
G36*
X13029945Y3002279D02*
G01*
X13029945Y3162554D01*
X13210286Y3162554D01*
X13210286Y3002279D01*
G37*
G36*
X12202413Y990345D02*
G01*
X12202413Y1150620D01*
X12382754Y1150620D01*
X12382754Y990345D01*
G37*
G36*
X13042645Y990345D02*
G01*
X13042645Y1150620D01*
X13222986Y1150620D01*
X13222986Y990345D01*
G37*
G36*
X12202413Y1440179D02*
G01*
X12202413Y1600454D01*
X12382754Y1600454D01*
X12382754Y1440179D01*
G37*
G36*
X13042645Y1440179D02*
G01*
X13042645Y1600454D01*
X13222986Y1600454D01*
X13222986Y1440179D01*
G37*
G36*
X13980413Y5486145D02*
G01*
X13980413Y5646420D01*
X14160754Y5646420D01*
X14160754Y5486145D01*
G37*
G36*
X14820645Y5486145D02*
G01*
X14820645Y5646420D01*
X15000986Y5646420D01*
X15000986Y5486145D01*
G37*
G36*
X13980413Y5935979D02*
G01*
X13980413Y6096254D01*
X14160754Y6096254D01*
X14160754Y5935979D01*
G37*
G36*
X14820645Y5935979D02*
G01*
X14820645Y6096254D01*
X15000986Y6096254D01*
X15000986Y5935979D01*
G37*
G36*
X13980413Y3974845D02*
G01*
X13980413Y4135120D01*
X14160754Y4135120D01*
X14160754Y3974845D01*
G37*
G36*
X14820645Y3974845D02*
G01*
X14820645Y4135120D01*
X15000986Y4135120D01*
X15000986Y3974845D01*
G37*
G36*
X13980413Y4424679D02*
G01*
X13980413Y4584954D01*
X14160754Y4584954D01*
X14160754Y4424679D01*
G37*
G36*
X14820645Y4424679D02*
G01*
X14820645Y4584954D01*
X15000986Y4584954D01*
X15000986Y4424679D01*
G37*
G36*
X13967713Y2552445D02*
G01*
X13967713Y2712720D01*
X14148054Y2712720D01*
X14148054Y2552445D01*
G37*
G36*
X14807945Y2552445D02*
G01*
X14807945Y2712720D01*
X14988286Y2712720D01*
X14988286Y2552445D01*
G37*
G36*
X13967713Y3002279D02*
G01*
X13967713Y3162554D01*
X14148054Y3162554D01*
X14148054Y3002279D01*
G37*
G36*
X14807945Y3002279D02*
G01*
X14807945Y3162554D01*
X14988286Y3162554D01*
X14988286Y3002279D01*
G37*
G36*
X13980413Y1003045D02*
G01*
X13980413Y1163320D01*
X14160754Y1163320D01*
X14160754Y1003045D01*
G37*
G36*
X14820645Y1003045D02*
G01*
X14820645Y1163320D01*
X15000986Y1163320D01*
X15000986Y1003045D01*
G37*
G36*
X13980413Y1452879D02*
G01*
X13980413Y1613154D01*
X14160754Y1613154D01*
X14160754Y1452879D01*
G37*
G36*
X14820645Y1452879D02*
G01*
X14820645Y1613154D01*
X15000986Y1613154D01*
X15000986Y1452879D01*
G37*
G36*
X15745713Y5486145D02*
G01*
X15745713Y5646420D01*
X15926054Y5646420D01*
X15926054Y5486145D01*
G37*
G36*
X16585945Y5486145D02*
G01*
X16585945Y5646420D01*
X16766286Y5646420D01*
X16766286Y5486145D01*
G37*
G36*
X15745713Y5935979D02*
G01*
X15745713Y6096254D01*
X15926054Y6096254D01*
X15926054Y5935979D01*
G37*
G36*
X16585945Y5935979D02*
G01*
X16585945Y6096254D01*
X16766286Y6096254D01*
X16766286Y5935979D01*
G37*
G36*
X15758413Y3974845D02*
G01*
X15758413Y4135120D01*
X15938754Y4135120D01*
X15938754Y3974845D01*
G37*
G36*
X16598645Y3974845D02*
G01*
X16598645Y4135120D01*
X16778986Y4135120D01*
X16778986Y3974845D01*
G37*
G36*
X15758413Y4424679D02*
G01*
X15758413Y4584954D01*
X15938754Y4584954D01*
X15938754Y4424679D01*
G37*
G36*
X16598645Y4424679D02*
G01*
X16598645Y4584954D01*
X16778986Y4584954D01*
X16778986Y4424679D01*
G37*
G36*
X15758413Y2552445D02*
G01*
X15758413Y2712720D01*
X15938754Y2712720D01*
X15938754Y2552445D01*
G37*
G36*
X16598645Y2552445D02*
G01*
X16598645Y2712720D01*
X16778986Y2712720D01*
X16778986Y2552445D01*
G37*
G36*
X15758413Y3002279D02*
G01*
X15758413Y3162554D01*
X15938754Y3162554D01*
X15938754Y3002279D01*
G37*
G36*
X16598645Y3002279D02*
G01*
X16598645Y3162554D01*
X16778986Y3162554D01*
X16778986Y3002279D01*
G37*
G36*
X15758413Y1003045D02*
G01*
X15758413Y1163320D01*
X15938754Y1163320D01*
X15938754Y1003045D01*
G37*
G36*
X16598645Y1003045D02*
G01*
X16598645Y1163320D01*
X16778986Y1163320D01*
X16778986Y1003045D01*
G37*
G36*
X15758413Y1452879D02*
G01*
X15758413Y1613154D01*
X15938754Y1613154D01*
X15938754Y1452879D01*
G37*
G36*
X16598645Y1452879D02*
G01*
X16598645Y1613154D01*
X16778986Y1613154D01*
X16778986Y1452879D01*
G37*
G36*
X17523713Y5486145D02*
G01*
X17523713Y5646420D01*
X17704054Y5646420D01*
X17704054Y5486145D01*
G37*
G36*
X18363945Y5486145D02*
G01*
X18363945Y5646420D01*
X18544286Y5646420D01*
X18544286Y5486145D01*
G37*
G36*
X17523713Y5935979D02*
G01*
X17523713Y6096254D01*
X17704054Y6096254D01*
X17704054Y5935979D01*
G37*
G36*
X18363945Y5935979D02*
G01*
X18363945Y6096254D01*
X18544286Y6096254D01*
X18544286Y5935979D01*
G37*
G36*
X17523713Y3974845D02*
G01*
X17523713Y4135120D01*
X17704054Y4135120D01*
X17704054Y3974845D01*
G37*
G36*
X18363945Y3974845D02*
G01*
X18363945Y4135120D01*
X18544286Y4135120D01*
X18544286Y3974845D01*
G37*
G36*
X17523713Y4424679D02*
G01*
X17523713Y4584954D01*
X17704054Y4584954D01*
X17704054Y4424679D01*
G37*
G36*
X18363945Y4424679D02*
G01*
X18363945Y4584954D01*
X18544286Y4584954D01*
X18544286Y4424679D01*
G37*
G36*
X17536413Y2552445D02*
G01*
X17536413Y2712720D01*
X17716754Y2712720D01*
X17716754Y2552445D01*
G37*
G36*
X18376645Y2552445D02*
G01*
X18376645Y2712720D01*
X18556986Y2712720D01*
X18556986Y2552445D01*
G37*
G36*
X17536413Y3002279D02*
G01*
X17536413Y3162554D01*
X17716754Y3162554D01*
X17716754Y3002279D01*
G37*
G36*
X18376645Y3002279D02*
G01*
X18376645Y3162554D01*
X18556986Y3162554D01*
X18556986Y3002279D01*
G37*
G36*
X17536413Y1015745D02*
G01*
X17536413Y1176020D01*
X17716754Y1176020D01*
X17716754Y1015745D01*
G37*
G36*
X18376645Y1015745D02*
G01*
X18376645Y1176020D01*
X18556986Y1176020D01*
X18556986Y1015745D01*
G37*
G36*
X17536413Y1465579D02*
G01*
X17536413Y1625854D01*
X17716754Y1625854D01*
X17716754Y1465579D01*
G37*
G36*
X18376645Y1465579D02*
G01*
X18376645Y1625854D01*
X18556986Y1625854D01*
X18556986Y1465579D01*
G37*
G36*
X19314413Y5473445D02*
G01*
X19314413Y5633720D01*
X19494754Y5633720D01*
X19494754Y5473445D01*
G37*
G36*
X20154645Y5473445D02*
G01*
X20154645Y5633720D01*
X20334986Y5633720D01*
X20334986Y5473445D01*
G37*
G36*
X19314413Y5923279D02*
G01*
X19314413Y6083554D01*
X19494754Y6083554D01*
X19494754Y5923279D01*
G37*
G36*
X20154645Y5923279D02*
G01*
X20154645Y6083554D01*
X20334986Y6083554D01*
X20334986Y5923279D01*
G37*
G36*
X19301713Y3974845D02*
G01*
X19301713Y4135120D01*
X19482054Y4135120D01*
X19482054Y3974845D01*
G37*
G36*
X20141945Y3974845D02*
G01*
X20141945Y4135120D01*
X20322286Y4135120D01*
X20322286Y3974845D01*
G37*
G36*
X19301713Y4424679D02*
G01*
X19301713Y4584954D01*
X19482054Y4584954D01*
X19482054Y4424679D01*
G37*
G36*
X20141945Y4424679D02*
G01*
X20141945Y4584954D01*
X20322286Y4584954D01*
X20322286Y4424679D01*
G37*
G36*
X19301713Y2552445D02*
G01*
X19301713Y2712720D01*
X19482054Y2712720D01*
X19482054Y2552445D01*
G37*
G36*
X20141945Y2552445D02*
G01*
X20141945Y2712720D01*
X20322286Y2712720D01*
X20322286Y2552445D01*
G37*
G36*
X19301713Y3002279D02*
G01*
X19301713Y3162554D01*
X19482054Y3162554D01*
X19482054Y3002279D01*
G37*
G36*
X20141945Y3002279D02*
G01*
X20141945Y3162554D01*
X20322286Y3162554D01*
X20322286Y3002279D01*
G37*
G36*
X19301713Y1028445D02*
G01*
X19301713Y1188720D01*
X19482054Y1188720D01*
X19482054Y1028445D01*
G37*
G36*
X20141945Y1028445D02*
G01*
X20141945Y1188720D01*
X20322286Y1188720D01*
X20322286Y1028445D01*
G37*
G36*
X19301713Y1478279D02*
G01*
X19301713Y1638554D01*
X19482054Y1638554D01*
X19482054Y1478279D01*
G37*
G36*
X20141945Y1478279D02*
G01*
X20141945Y1638554D01*
X20322286Y1638554D01*
X20322286Y1478279D01*
G37*
G36*
X938529Y2199639D02*
G01*
X938529Y2346960D01*
X1022350Y2346960D01*
X1022350Y2199639D01*
G37*
G36*
X857250Y2199639D02*
G01*
X857250Y2346960D01*
X941070Y2346960D01*
X941070Y2199639D01*
G37*
G36*
X1207262Y2529586D02*
G01*
X1155954Y2579370D01*
X1275079Y2703068D01*
X1326642Y2653284D01*
G37*
G36*
X1263904Y2474976D02*
G01*
X1212595Y2524760D01*
X1331721Y2648204D01*
X1383284Y2598420D01*
G37*
G36*
X1322578Y2418587D02*
G01*
X1271015Y2468371D01*
X1390142Y2591815D01*
X1441704Y2542031D01*
G37*
G36*
X1379220Y2363723D02*
G01*
X1327657Y2413507D01*
X1446784Y2537205D01*
X1498345Y2487421D01*
G37*
G36*
X1437639Y2307336D02*
G01*
X1386078Y2357120D01*
X1505457Y2480563D01*
X1556765Y2430779D01*
G37*
G36*
X1494281Y2252726D02*
G01*
X1442720Y2302510D01*
X1562100Y2425954D01*
X1613407Y2376170D01*
G37*
G36*
X1550923Y2197862D02*
G01*
X1499362Y2247645D01*
X1618742Y2371344D01*
X1670050Y2321560D01*
G37*
G36*
X1609344Y2141473D02*
G01*
X1557781Y2191257D01*
X1677162Y2314702D01*
X1728723Y2264918D01*
G37*
G36*
X1665986Y2086863D02*
G01*
X1614423Y2136647D01*
X1733804Y2260092D01*
X1785365Y2210307D01*
G37*
G36*
X1724405Y2030476D02*
G01*
X1672844Y2080005D01*
X1792223Y2203704D01*
X1843786Y2153920D01*
G37*
G36*
X1781047Y1975612D02*
G01*
X1729486Y2025395D01*
X1848865Y2148839D01*
X1900428Y2099055D01*
G37*
G36*
X2106929Y1981454D02*
G01*
X1983231Y2100579D01*
X2033015Y2152142D01*
X2156713Y2032762D01*
G37*
G36*
X2161540Y2038095D02*
G01*
X2038095Y2157221D01*
X2087879Y2208784D01*
X2211324Y2089404D01*
G37*
G36*
X2217927Y2096515D02*
G01*
X2094484Y2215642D01*
X2144268Y2267204D01*
X2267711Y2148078D01*
G37*
G36*
X2272791Y2153157D02*
G01*
X2149093Y2272284D01*
X2198877Y2323845D01*
X2322575Y2204720D01*
G37*
G36*
X2329179Y2211578D02*
G01*
X2205736Y2330957D01*
X2255520Y2382265D01*
X2378963Y2263139D01*
G37*
G36*
X2383790Y2268220D02*
G01*
X2260345Y2387600D01*
X2310129Y2438907D01*
X2433574Y2319781D01*
G37*
G36*
X2438654Y2324862D02*
G01*
X2314956Y2444242D01*
X2364740Y2495550D01*
X2488438Y2376423D01*
G37*
G36*
X2495041Y2383281D02*
G01*
X2371597Y2502662D01*
X2421381Y2554223D01*
X2544825Y2434844D01*
G37*
G36*
X2549652Y2439923D02*
G01*
X2426208Y2559304D01*
X2475991Y2610865D01*
X2599436Y2491486D01*
G37*
G36*
X2606293Y2498344D02*
G01*
X2482595Y2617723D01*
X2532379Y2669286D01*
X2655824Y2549905D01*
G37*
G36*
X2660904Y2554986D02*
G01*
X2537459Y2674365D01*
X2587243Y2725928D01*
X2710688Y2606547D01*
G37*
G36*
X2585720Y2808731D02*
G01*
X2534158Y2858515D01*
X2653538Y2982213D01*
X2704845Y2932429D01*
G37*
G36*
X2529077Y2863595D02*
G01*
X2477515Y2913379D01*
X2596895Y3036823D01*
X2648204Y2987039D01*
G37*
G36*
X2470658Y2919984D02*
G01*
X2419095Y2969768D01*
X2538222Y3093212D01*
X2589784Y3043428D01*
G37*
G36*
X2414015Y2974594D02*
G01*
X2362454Y3024378D01*
X2481579Y3148076D01*
X2533141Y3098292D01*
G37*
G36*
X2355341Y3031236D02*
G01*
X2304034Y3081020D01*
X2423159Y3204463D01*
X2474722Y3154679D01*
G37*
G36*
X2298700Y3085845D02*
G01*
X2247391Y3135629D01*
X2366518Y3259073D01*
X2418079Y3209289D01*
G37*
G36*
X2242058Y3140455D02*
G01*
X2190750Y3190239D01*
X2309875Y3313937D01*
X2361438Y3264154D01*
G37*
G36*
X2183638Y3197097D02*
G01*
X2132075Y3246881D01*
X2251456Y3370326D01*
X2303018Y3320542D01*
G37*
G36*
X2126995Y3251707D02*
G01*
X2075434Y3301492D01*
X2194813Y3424936D01*
X2246375Y3375152D01*
G37*
G36*
X2068575Y3308095D02*
G01*
X2017013Y3357879D01*
X2136393Y3481323D01*
X2187956Y3431794D01*
G37*
G36*
X2011934Y3362960D02*
G01*
X1960372Y3412744D01*
X2079752Y3536187D01*
X2131313Y3486404D01*
G37*
G36*
X1827784Y3359657D02*
G01*
X1704086Y3479037D01*
X1753870Y3530345D01*
X1877568Y3411220D01*
G37*
G36*
X1772920Y3303015D02*
G01*
X1649476Y3422395D01*
X1699260Y3473704D01*
X1822704Y3354578D01*
G37*
G36*
X1716531Y3244595D02*
G01*
X1593087Y3363721D01*
X1642871Y3415284D01*
X1766315Y3296157D01*
G37*
G36*
X1661921Y3187954D02*
G01*
X1538223Y3307079D01*
X1588007Y3358642D01*
X1711705Y3239515D01*
G37*
G36*
X1605279Y3129534D02*
G01*
X1481836Y3248660D01*
X1531620Y3300221D01*
X1655063Y3180842D01*
G37*
G36*
X1550670Y3072892D02*
G01*
X1427226Y3192018D01*
X1477010Y3243579D01*
X1600454Y3124200D01*
G37*
G36*
X1496060Y3016250D02*
G01*
X1372362Y3135376D01*
X1422145Y3186937D01*
X1545844Y3067557D01*
G37*
G36*
X1439418Y2957576D02*
G01*
X1315973Y3076955D01*
X1365757Y3128518D01*
X1489202Y3009137D01*
G37*
G36*
X1384807Y2900934D02*
G01*
X1261363Y3020313D01*
X1311147Y3071876D01*
X1434592Y2952495D01*
G37*
G36*
X1328420Y2842513D02*
G01*
X1204976Y2961894D01*
X1254505Y3013455D01*
X1378204Y2894076D01*
G37*
G36*
X1273555Y2785871D02*
G01*
X1150112Y2905252D01*
X1199895Y2956813D01*
X1323339Y2837434D01*
G37*
G36*
X3011170Y5886195D02*
G01*
X3011170Y6046470D01*
X3191509Y6046470D01*
X3191509Y5886195D01*
G37*
G36*
X2371090Y5886195D02*
G01*
X2371090Y6046470D01*
X2551429Y6046470D01*
X2551429Y5886195D01*
G37*
G36*
X3041650Y6135115D02*
G01*
X3041650Y6285484D01*
X3206750Y6285484D01*
X3206750Y6135115D01*
G37*
G36*
X2355850Y6135115D02*
G01*
X2355850Y6285484D01*
X2520950Y6285484D01*
X2520950Y6135115D01*
G37*
G36*
X2795524Y6105144D02*
G01*
X2795524Y6315455D01*
X3005836Y6315455D01*
X3005836Y6105144D01*
G37*
G36*
X2556763Y6105144D02*
G01*
X2556763Y6315455D01*
X2767075Y6315455D01*
X2767075Y6105144D01*
G37*
G36*
X2880613Y5865876D02*
G01*
X2880613Y6021070D01*
X2941065Y6021070D01*
X2941065Y5865876D01*
G37*
G36*
X2621788Y5865876D02*
G01*
X2621788Y6021070D01*
X2681986Y6021070D01*
X2681986Y5865876D01*
G37*
G36*
X2817113Y5865876D02*
G01*
X2817113Y6021070D01*
X2877565Y6021070D01*
X2877565Y5865876D01*
G37*
G36*
X2685288Y5865876D02*
G01*
X2685288Y6021070D01*
X2745486Y6021070D01*
X2745486Y5865876D01*
G37*
G36*
X2751327Y5865876D02*
G01*
X2751327Y6021070D01*
X2811525Y6021070D01*
X2811525Y5865876D01*
G37*
G36*
X1820163Y4862321D02*
G01*
X1820163Y4992623D01*
X2030475Y4992623D01*
X2030475Y4862321D01*
G37*
G36*
X1449323Y4633721D02*
G01*
X1449323Y4764023D01*
X1659636Y4764023D01*
X1659636Y4633721D01*
G37*
G36*
X1820163Y4633721D02*
G01*
X1820163Y4764023D01*
X2030475Y4764023D01*
X2030475Y4633721D01*
G37*
G36*
X1449323Y4862321D02*
G01*
X1449323Y4992623D01*
X1659636Y4992623D01*
X1659636Y4862321D01*
G37*
M02*
