G04 Layer: TopSilkscreenLayer*
G04 EasyEDA v6.4.32, 2022-03-07 19:42:49*
G04 6d175750cd924158a65b80fb6ee35e85,2ace594c3a204291bb7abb2ca186b691,10*
G04 Gerber Generator version 0.2*
G04 Scale: 100 percent, Rotated: No, Reflected: No *
G04 Dimensions in millimeters *
G04 leading zeros omitted , absolute positions ,4 integer and 5 decimal *
%FSLAX45Y45*%
%MOMM*%

%ADD10C,0.2540*%
%ADD26C,0.1999*%
%ADD27C,0.1524*%

%LPD*%
D27*
X1151889Y5410707D02*
G01*
X1146555Y5421121D01*
X1136142Y5431536D01*
X1125981Y5436615D01*
X1105154Y5436615D01*
X1094739Y5431536D01*
X1084326Y5421121D01*
X1078992Y5410707D01*
X1073912Y5394960D01*
X1073912Y5369052D01*
X1078992Y5353557D01*
X1084326Y5343144D01*
X1094739Y5332729D01*
X1105154Y5327650D01*
X1125981Y5327650D01*
X1136142Y5332729D01*
X1146555Y5343144D01*
X1151889Y5353557D01*
X1186179Y5415787D02*
G01*
X1196594Y5421121D01*
X1212087Y5436615D01*
X1212087Y5327650D01*
X1132078Y4864613D02*
G01*
X1126744Y4875027D01*
X1116329Y4885441D01*
X1106170Y4890521D01*
X1085342Y4890521D01*
X1074928Y4885441D01*
X1064513Y4875027D01*
X1059179Y4864613D01*
X1054100Y4848865D01*
X1054100Y4822957D01*
X1059179Y4807463D01*
X1064513Y4797049D01*
X1074928Y4786635D01*
X1085342Y4781555D01*
X1106170Y4781555D01*
X1116329Y4786635D01*
X1126744Y4797049D01*
X1132078Y4807463D01*
X1171447Y4864613D02*
G01*
X1171447Y4869693D01*
X1176781Y4880107D01*
X1181862Y4885441D01*
X1192276Y4890521D01*
X1213104Y4890521D01*
X1223518Y4885441D01*
X1228597Y4880107D01*
X1233931Y4869693D01*
X1233931Y4859279D01*
X1228597Y4848865D01*
X1218184Y4833371D01*
X1166368Y4781555D01*
X1239012Y4781555D01*
X1208278Y4267707D02*
G01*
X1202944Y4278121D01*
X1192529Y4288536D01*
X1182370Y4293615D01*
X1161542Y4293615D01*
X1151128Y4288536D01*
X1140713Y4278121D01*
X1135379Y4267707D01*
X1130300Y4251960D01*
X1130300Y4226052D01*
X1135379Y4210557D01*
X1140713Y4200144D01*
X1151128Y4189729D01*
X1161542Y4184650D01*
X1182370Y4184650D01*
X1192529Y4189729D01*
X1202944Y4200144D01*
X1208278Y4210557D01*
X1252981Y4293615D02*
G01*
X1310131Y4293615D01*
X1278889Y4251960D01*
X1294384Y4251960D01*
X1304797Y4246879D01*
X1310131Y4241800D01*
X1315212Y4226052D01*
X1315212Y4215637D01*
X1310131Y4200144D01*
X1299718Y4189729D01*
X1283970Y4184650D01*
X1268476Y4184650D01*
X1252981Y4189729D01*
X1247647Y4194810D01*
X1242568Y4205223D01*
X4827015Y5651500D02*
G01*
X4718050Y5651500D01*
X4827015Y5651500D02*
G01*
X4827015Y5615178D01*
X4821936Y5599429D01*
X4811522Y5589270D01*
X4801108Y5583936D01*
X4785359Y5578855D01*
X4759452Y5578855D01*
X4743958Y5583936D01*
X4733543Y5589270D01*
X4723129Y5599429D01*
X4718050Y5615178D01*
X4718050Y5651500D01*
X4806188Y5544565D02*
G01*
X4811522Y5534152D01*
X4827015Y5518404D01*
X4718050Y5518404D01*
X4865115Y4152900D02*
G01*
X4756150Y4152900D01*
X4865115Y4152900D02*
G01*
X4865115Y4116578D01*
X4860036Y4100829D01*
X4849622Y4090670D01*
X4839208Y4085336D01*
X4823459Y4080255D01*
X4797552Y4080255D01*
X4782058Y4085336D01*
X4771643Y4090670D01*
X4761229Y4100829D01*
X4756150Y4116578D01*
X4756150Y4152900D01*
X4839208Y4040631D02*
G01*
X4844288Y4040631D01*
X4854702Y4035552D01*
X4860036Y4030218D01*
X4865115Y4019804D01*
X4865115Y3999229D01*
X4860036Y3988815D01*
X4854702Y3983481D01*
X4844288Y3978402D01*
X4833874Y3978402D01*
X4823459Y3983481D01*
X4807965Y3993895D01*
X4756150Y4045965D01*
X4756150Y3973068D01*
X4839715Y2717800D02*
G01*
X4730750Y2717800D01*
X4839715Y2717800D02*
G01*
X4839715Y2681478D01*
X4834636Y2665729D01*
X4824222Y2655570D01*
X4813808Y2650236D01*
X4798059Y2645155D01*
X4772152Y2645155D01*
X4756658Y2650236D01*
X4746243Y2655570D01*
X4735829Y2665729D01*
X4730750Y2681478D01*
X4730750Y2717800D01*
X4839715Y2600452D02*
G01*
X4839715Y2543302D01*
X4798059Y2574289D01*
X4798059Y2558795D01*
X4792979Y2548381D01*
X4787900Y2543302D01*
X4772152Y2537968D01*
X4761738Y2537968D01*
X4746243Y2543302D01*
X4735829Y2553715D01*
X4730750Y2569210D01*
X4730750Y2584704D01*
X4735829Y2600452D01*
X4740909Y2605531D01*
X4751324Y2610865D01*
X4852415Y1181100D02*
G01*
X4743450Y1181100D01*
X4852415Y1181100D02*
G01*
X4852415Y1144778D01*
X4847336Y1129029D01*
X4836922Y1118870D01*
X4826508Y1113536D01*
X4810759Y1108455D01*
X4784852Y1108455D01*
X4769358Y1113536D01*
X4758943Y1118870D01*
X4748529Y1129029D01*
X4743450Y1144778D01*
X4743450Y1181100D01*
X4852415Y1022095D02*
G01*
X4779772Y1074165D01*
X4779772Y996187D01*
X4852415Y1022095D02*
G01*
X4743450Y1022095D01*
X6719315Y5651500D02*
G01*
X6610350Y5651500D01*
X6719315Y5651500D02*
G01*
X6719315Y5615178D01*
X6714236Y5599429D01*
X6703822Y5589270D01*
X6693408Y5583936D01*
X6677659Y5578855D01*
X6651752Y5578855D01*
X6636258Y5583936D01*
X6625843Y5589270D01*
X6615429Y5599429D01*
X6610350Y5615178D01*
X6610350Y5651500D01*
X6703822Y5482081D02*
G01*
X6714236Y5487415D01*
X6719315Y5502910D01*
X6719315Y5513323D01*
X6714236Y5528818D01*
X6698488Y5539231D01*
X6672579Y5544565D01*
X6646672Y5544565D01*
X6625843Y5539231D01*
X6615429Y5528818D01*
X6610350Y5513323D01*
X6610350Y5507989D01*
X6615429Y5492495D01*
X6625843Y5482081D01*
X6641338Y5477002D01*
X6646672Y5477002D01*
X6662165Y5482081D01*
X6672579Y5492495D01*
X6677659Y5507989D01*
X6677659Y5513323D01*
X6672579Y5528818D01*
X6662165Y5539231D01*
X6646672Y5544565D01*
X6744715Y4165600D02*
G01*
X6635750Y4165600D01*
X6744715Y4165600D02*
G01*
X6744715Y4129278D01*
X6739636Y4113529D01*
X6729222Y4103370D01*
X6718808Y4098036D01*
X6703059Y4092955D01*
X6677152Y4092955D01*
X6661658Y4098036D01*
X6651243Y4103370D01*
X6640829Y4113529D01*
X6635750Y4129278D01*
X6635750Y4165600D01*
X6744715Y3985768D02*
G01*
X6635750Y4037837D01*
X6744715Y4058665D02*
G01*
X6744715Y3985768D01*
X6706615Y2730500D02*
G01*
X6597650Y2730500D01*
X6706615Y2730500D02*
G01*
X6706615Y2694178D01*
X6701536Y2678429D01*
X6691122Y2668270D01*
X6680708Y2662936D01*
X6664959Y2657855D01*
X6639052Y2657855D01*
X6623558Y2662936D01*
X6613143Y2668270D01*
X6602729Y2678429D01*
X6597650Y2694178D01*
X6597650Y2730500D01*
X6706615Y2597404D02*
G01*
X6701536Y2613152D01*
X6691122Y2618231D01*
X6680708Y2618231D01*
X6670293Y2613152D01*
X6664959Y2602737D01*
X6659879Y2581910D01*
X6654800Y2566415D01*
X6644386Y2556002D01*
X6633972Y2550668D01*
X6618224Y2550668D01*
X6607809Y2556002D01*
X6602729Y2561081D01*
X6597650Y2576829D01*
X6597650Y2597404D01*
X6602729Y2613152D01*
X6607809Y2618231D01*
X6618224Y2623565D01*
X6633972Y2623565D01*
X6644386Y2618231D01*
X6654800Y2607818D01*
X6659879Y2592323D01*
X6664959Y2571495D01*
X6670293Y2561081D01*
X6680708Y2556002D01*
X6691122Y2556002D01*
X6701536Y2561081D01*
X6706615Y2576829D01*
X6706615Y2597404D01*
X6668515Y1181100D02*
G01*
X6559550Y1181100D01*
X6668515Y1181100D02*
G01*
X6668515Y1144778D01*
X6663436Y1129029D01*
X6653022Y1118870D01*
X6642608Y1113536D01*
X6626859Y1108455D01*
X6600952Y1108455D01*
X6585458Y1113536D01*
X6575043Y1118870D01*
X6564629Y1129029D01*
X6559550Y1144778D01*
X6559550Y1181100D01*
X6632193Y1006602D02*
G01*
X6616700Y1011681D01*
X6606286Y1022095D01*
X6600952Y1037589D01*
X6600952Y1042923D01*
X6606286Y1058418D01*
X6616700Y1068831D01*
X6632193Y1074165D01*
X6637274Y1074165D01*
X6653022Y1068831D01*
X6663436Y1058418D01*
X6668515Y1042923D01*
X6668515Y1037589D01*
X6663436Y1022095D01*
X6653022Y1011681D01*
X6632193Y1006602D01*
X6606286Y1006602D01*
X6580124Y1011681D01*
X6564629Y1022095D01*
X6559550Y1037589D01*
X6559550Y1048004D01*
X6564629Y1063752D01*
X6575043Y1068831D01*
X8484615Y5651500D02*
G01*
X8375650Y5651500D01*
X8484615Y5651500D02*
G01*
X8484615Y5615178D01*
X8479536Y5599429D01*
X8469122Y5589270D01*
X8458708Y5583936D01*
X8442959Y5578855D01*
X8417052Y5578855D01*
X8401558Y5583936D01*
X8391143Y5589270D01*
X8380729Y5599429D01*
X8375650Y5615178D01*
X8375650Y5651500D01*
X8463788Y5544565D02*
G01*
X8469122Y5534152D01*
X8484615Y5518404D01*
X8375650Y5518404D01*
X8463788Y5484113D02*
G01*
X8469122Y5473700D01*
X8484615Y5458205D01*
X8375650Y5458205D01*
X8459215Y4165600D02*
G01*
X8350250Y4165600D01*
X8459215Y4165600D02*
G01*
X8459215Y4129278D01*
X8454136Y4113529D01*
X8443722Y4103370D01*
X8433308Y4098036D01*
X8417559Y4092955D01*
X8391652Y4092955D01*
X8376158Y4098036D01*
X8365743Y4103370D01*
X8355329Y4113529D01*
X8350250Y4129278D01*
X8350250Y4165600D01*
X8438388Y4058665D02*
G01*
X8443722Y4048252D01*
X8459215Y4032504D01*
X8350250Y4032504D01*
X8433308Y3993134D02*
G01*
X8438388Y3993134D01*
X8448802Y3987800D01*
X8454136Y3982720D01*
X8459215Y3972305D01*
X8459215Y3951478D01*
X8454136Y3941063D01*
X8448802Y3935984D01*
X8438388Y3930650D01*
X8427974Y3930650D01*
X8417559Y3935984D01*
X8402065Y3946397D01*
X8350250Y3998213D01*
X8350250Y3925570D01*
X8459215Y2717800D02*
G01*
X8350250Y2717800D01*
X8459215Y2717800D02*
G01*
X8459215Y2681478D01*
X8454136Y2665729D01*
X8443722Y2655570D01*
X8433308Y2650236D01*
X8417559Y2645155D01*
X8391652Y2645155D01*
X8376158Y2650236D01*
X8365743Y2655570D01*
X8355329Y2665729D01*
X8350250Y2681478D01*
X8350250Y2717800D01*
X8438388Y2610865D02*
G01*
X8443722Y2600452D01*
X8459215Y2584704D01*
X8350250Y2584704D01*
X8459215Y2540000D02*
G01*
X8459215Y2482850D01*
X8417559Y2514092D01*
X8417559Y2498597D01*
X8412479Y2488184D01*
X8407400Y2482850D01*
X8391652Y2477770D01*
X8381238Y2477770D01*
X8365743Y2482850D01*
X8355329Y2493263D01*
X8350250Y2509012D01*
X8350250Y2524505D01*
X8355329Y2540000D01*
X8360409Y2545334D01*
X8370824Y2550413D01*
X8484615Y1181100D02*
G01*
X8375650Y1181100D01*
X8484615Y1181100D02*
G01*
X8484615Y1144778D01*
X8479536Y1129029D01*
X8469122Y1118870D01*
X8458708Y1113536D01*
X8442959Y1108455D01*
X8417052Y1108455D01*
X8401558Y1113536D01*
X8391143Y1118870D01*
X8380729Y1129029D01*
X8375650Y1144778D01*
X8375650Y1181100D01*
X8463788Y1074165D02*
G01*
X8469122Y1063752D01*
X8484615Y1048004D01*
X8375650Y1048004D01*
X8484615Y961897D02*
G01*
X8411972Y1013713D01*
X8411972Y935989D01*
X8484615Y961897D02*
G01*
X8375650Y961897D01*
X10237215Y5638800D02*
G01*
X10128250Y5638800D01*
X10237215Y5638800D02*
G01*
X10237215Y5602478D01*
X10232136Y5586729D01*
X10221722Y5576570D01*
X10211308Y5571236D01*
X10195559Y5566155D01*
X10169652Y5566155D01*
X10154158Y5571236D01*
X10143743Y5576570D01*
X10133329Y5586729D01*
X10128250Y5602478D01*
X10128250Y5638800D01*
X10216388Y5531865D02*
G01*
X10221722Y5521452D01*
X10237215Y5505704D01*
X10128250Y5505704D01*
X10221722Y5409184D02*
G01*
X10232136Y5414263D01*
X10237215Y5430012D01*
X10237215Y5440426D01*
X10232136Y5455920D01*
X10216388Y5466334D01*
X10190479Y5471413D01*
X10164572Y5471413D01*
X10143743Y5466334D01*
X10133329Y5455920D01*
X10128250Y5440426D01*
X10128250Y5435092D01*
X10133329Y5419597D01*
X10143743Y5409184D01*
X10159238Y5403850D01*
X10164572Y5403850D01*
X10180065Y5409184D01*
X10190479Y5419597D01*
X10195559Y5435092D01*
X10195559Y5440426D01*
X10190479Y5455920D01*
X10180065Y5466334D01*
X10164572Y5471413D01*
X10300715Y4165600D02*
G01*
X10191750Y4165600D01*
X10300715Y4165600D02*
G01*
X10300715Y4129278D01*
X10295636Y4113529D01*
X10285222Y4103370D01*
X10274808Y4098036D01*
X10259059Y4092955D01*
X10233152Y4092955D01*
X10217658Y4098036D01*
X10207243Y4103370D01*
X10196829Y4113529D01*
X10191750Y4129278D01*
X10191750Y4165600D01*
X10279888Y4058665D02*
G01*
X10285222Y4048252D01*
X10300715Y4032504D01*
X10191750Y4032504D01*
X10300715Y3925570D02*
G01*
X10191750Y3977639D01*
X10300715Y3998213D02*
G01*
X10300715Y3925570D01*
X10299039Y2813761D02*
G01*
X10190073Y2813761D01*
X10299039Y2813761D02*
G01*
X10299039Y2777439D01*
X10293959Y2761691D01*
X10283545Y2751531D01*
X10273131Y2746197D01*
X10257383Y2741117D01*
X10231475Y2741117D01*
X10215981Y2746197D01*
X10205567Y2751531D01*
X10195153Y2761691D01*
X10190073Y2777439D01*
X10190073Y2813761D01*
X10278211Y2706827D02*
G01*
X10283545Y2696413D01*
X10299039Y2680665D01*
X10190073Y2680665D01*
X10299039Y2620467D02*
G01*
X10293959Y2635961D01*
X10283545Y2641295D01*
X10273131Y2641295D01*
X10262717Y2635961D01*
X10257383Y2625801D01*
X10252303Y2604973D01*
X10247223Y2589225D01*
X10236809Y2578811D01*
X10226395Y2573731D01*
X10210647Y2573731D01*
X10200233Y2578811D01*
X10195153Y2584145D01*
X10190073Y2599639D01*
X10190073Y2620467D01*
X10195153Y2635961D01*
X10200233Y2641295D01*
X10210647Y2646375D01*
X10226395Y2646375D01*
X10236809Y2641295D01*
X10247223Y2630881D01*
X10252303Y2615387D01*
X10257383Y2594559D01*
X10262717Y2584145D01*
X10273131Y2578811D01*
X10283545Y2578811D01*
X10293959Y2584145D01*
X10299039Y2599639D01*
X10299039Y2620467D01*
X10275315Y1155700D02*
G01*
X10166350Y1155700D01*
X10275315Y1155700D02*
G01*
X10275315Y1119378D01*
X10270236Y1103629D01*
X10259822Y1093470D01*
X10249408Y1088136D01*
X10233659Y1083055D01*
X10207752Y1083055D01*
X10192258Y1088136D01*
X10181843Y1093470D01*
X10171429Y1103629D01*
X10166350Y1119378D01*
X10166350Y1155700D01*
X10254488Y1048765D02*
G01*
X10259822Y1038352D01*
X10275315Y1022604D01*
X10166350Y1022604D01*
X10238993Y920750D02*
G01*
X10223500Y926084D01*
X10213086Y936497D01*
X10207752Y951992D01*
X10207752Y957326D01*
X10213086Y972820D01*
X10223500Y983234D01*
X10238993Y988313D01*
X10244074Y988313D01*
X10259822Y983234D01*
X10270236Y972820D01*
X10275315Y957326D01*
X10275315Y951992D01*
X10270236Y936497D01*
X10259822Y926084D01*
X10238993Y920750D01*
X10213086Y920750D01*
X10186924Y926084D01*
X10171429Y936497D01*
X10166350Y951992D01*
X10166350Y962405D01*
X10171429Y977900D01*
X10181843Y983234D01*
X12015215Y5664200D02*
G01*
X11906250Y5664200D01*
X12015215Y5664200D02*
G01*
X12015215Y5627878D01*
X12010136Y5612129D01*
X11999722Y5601970D01*
X11989308Y5596636D01*
X11973559Y5591555D01*
X11947652Y5591555D01*
X11932158Y5596636D01*
X11921743Y5601970D01*
X11911329Y5612129D01*
X11906250Y5627878D01*
X11906250Y5664200D01*
X11989308Y5551931D02*
G01*
X11994388Y5551931D01*
X12004802Y5546852D01*
X12010136Y5541518D01*
X12015215Y5531104D01*
X12015215Y5510529D01*
X12010136Y5500115D01*
X12004802Y5494781D01*
X11994388Y5489702D01*
X11983974Y5489702D01*
X11973559Y5494781D01*
X11958065Y5505195D01*
X11906250Y5557265D01*
X11906250Y5484368D01*
X11994388Y5450078D02*
G01*
X11999722Y5439663D01*
X12015215Y5424170D01*
X11906250Y5424170D01*
X12027915Y4165600D02*
G01*
X11918950Y4165600D01*
X12027915Y4165600D02*
G01*
X12027915Y4129278D01*
X12022836Y4113529D01*
X12012422Y4103370D01*
X12002008Y4098036D01*
X11986259Y4092955D01*
X11960352Y4092955D01*
X11944858Y4098036D01*
X11934443Y4103370D01*
X11924029Y4113529D01*
X11918950Y4129278D01*
X11918950Y4165600D01*
X12002008Y4053331D02*
G01*
X12007088Y4053331D01*
X12017502Y4048252D01*
X12022836Y4042918D01*
X12027915Y4032504D01*
X12027915Y4011929D01*
X12022836Y4001515D01*
X12017502Y3996181D01*
X12007088Y3991102D01*
X11996674Y3991102D01*
X11986259Y3996181D01*
X11970765Y4006595D01*
X11918950Y4058665D01*
X11918950Y3985768D01*
X12002008Y3946397D02*
G01*
X12007088Y3946397D01*
X12017502Y3941063D01*
X12022836Y3935984D01*
X12027915Y3925570D01*
X12027915Y3904742D01*
X12022836Y3894328D01*
X12017502Y3889247D01*
X12007088Y3883913D01*
X11996674Y3883913D01*
X11986259Y3889247D01*
X11970765Y3899662D01*
X11918950Y3951478D01*
X11918950Y3878834D01*
X12066015Y2730500D02*
G01*
X11957050Y2730500D01*
X12066015Y2730500D02*
G01*
X12066015Y2694178D01*
X12060936Y2678429D01*
X12050522Y2668270D01*
X12040108Y2662936D01*
X12024359Y2657855D01*
X11998452Y2657855D01*
X11982958Y2662936D01*
X11972543Y2668270D01*
X11962129Y2678429D01*
X11957050Y2694178D01*
X11957050Y2730500D01*
X12040108Y2618231D02*
G01*
X12045188Y2618231D01*
X12055602Y2613152D01*
X12060936Y2607818D01*
X12066015Y2597404D01*
X12066015Y2576829D01*
X12060936Y2566415D01*
X12055602Y2561081D01*
X12045188Y2556002D01*
X12034774Y2556002D01*
X12024359Y2561081D01*
X12008865Y2571495D01*
X11957050Y2623565D01*
X11957050Y2550668D01*
X12066015Y2505963D02*
G01*
X12066015Y2448813D01*
X12024359Y2480055D01*
X12024359Y2464562D01*
X12019279Y2454147D01*
X12014200Y2448813D01*
X11998452Y2443734D01*
X11988038Y2443734D01*
X11972543Y2448813D01*
X11962129Y2459228D01*
X11957050Y2474976D01*
X11957050Y2490470D01*
X11962129Y2505963D01*
X11967209Y2511297D01*
X11977624Y2516378D01*
X12040615Y1181100D02*
G01*
X11931650Y1181100D01*
X12040615Y1181100D02*
G01*
X12040615Y1144778D01*
X12035536Y1129029D01*
X12025122Y1118870D01*
X12014708Y1113536D01*
X11998959Y1108455D01*
X11973052Y1108455D01*
X11957558Y1113536D01*
X11947143Y1118870D01*
X11936729Y1129029D01*
X11931650Y1144778D01*
X11931650Y1181100D01*
X12014708Y1068831D02*
G01*
X12019788Y1068831D01*
X12030202Y1063752D01*
X12035536Y1058418D01*
X12040615Y1048004D01*
X12040615Y1027429D01*
X12035536Y1017015D01*
X12030202Y1011681D01*
X12019788Y1006602D01*
X12009374Y1006602D01*
X11998959Y1011681D01*
X11983465Y1022095D01*
X11931650Y1074165D01*
X11931650Y1001268D01*
X12040615Y915162D02*
G01*
X11967972Y966978D01*
X11967972Y889000D01*
X12040615Y915162D02*
G01*
X11931650Y915162D01*
X13882116Y5676900D02*
G01*
X13773150Y5676900D01*
X13882116Y5676900D02*
G01*
X13882116Y5640578D01*
X13877036Y5624829D01*
X13866622Y5614670D01*
X13856208Y5609336D01*
X13840459Y5604255D01*
X13814552Y5604255D01*
X13799058Y5609336D01*
X13788643Y5614670D01*
X13778229Y5624829D01*
X13773150Y5640578D01*
X13773150Y5676900D01*
X13856208Y5564631D02*
G01*
X13861288Y5564631D01*
X13871702Y5559552D01*
X13877036Y5554218D01*
X13882116Y5543804D01*
X13882116Y5523229D01*
X13877036Y5512815D01*
X13871702Y5507481D01*
X13861288Y5502402D01*
X13850874Y5502402D01*
X13840459Y5507481D01*
X13824966Y5517895D01*
X13773150Y5569965D01*
X13773150Y5497068D01*
X13866622Y5400547D02*
G01*
X13877036Y5405628D01*
X13882116Y5421376D01*
X13882116Y5431789D01*
X13877036Y5447284D01*
X13861288Y5457697D01*
X13835379Y5462778D01*
X13809472Y5462778D01*
X13788643Y5457697D01*
X13778229Y5447284D01*
X13773150Y5431789D01*
X13773150Y5426455D01*
X13778229Y5410962D01*
X13788643Y5400547D01*
X13804138Y5395213D01*
X13809472Y5395213D01*
X13824966Y5400547D01*
X13835379Y5410962D01*
X13840459Y5426455D01*
X13840459Y5431789D01*
X13835379Y5447284D01*
X13824966Y5457697D01*
X13809472Y5462778D01*
X13894816Y4165600D02*
G01*
X13785850Y4165600D01*
X13894816Y4165600D02*
G01*
X13894816Y4129278D01*
X13889736Y4113529D01*
X13879322Y4103370D01*
X13868908Y4098036D01*
X13853159Y4092955D01*
X13827252Y4092955D01*
X13811758Y4098036D01*
X13801343Y4103370D01*
X13790929Y4113529D01*
X13785850Y4129278D01*
X13785850Y4165600D01*
X13868908Y4053331D02*
G01*
X13873988Y4053331D01*
X13884402Y4048252D01*
X13889736Y4042918D01*
X13894816Y4032504D01*
X13894816Y4011929D01*
X13889736Y4001515D01*
X13884402Y3996181D01*
X13873988Y3991102D01*
X13863574Y3991102D01*
X13853159Y3996181D01*
X13837666Y4006595D01*
X13785850Y4058665D01*
X13785850Y3985768D01*
X13894816Y3878834D02*
G01*
X13785850Y3930650D01*
X13894816Y3951478D02*
G01*
X13894816Y3878834D01*
X13882116Y2743200D02*
G01*
X13773150Y2743200D01*
X13882116Y2743200D02*
G01*
X13882116Y2706878D01*
X13877036Y2691129D01*
X13866622Y2680970D01*
X13856208Y2675636D01*
X13840459Y2670555D01*
X13814552Y2670555D01*
X13799058Y2675636D01*
X13788643Y2680970D01*
X13778229Y2691129D01*
X13773150Y2706878D01*
X13773150Y2743200D01*
X13856208Y2630931D02*
G01*
X13861288Y2630931D01*
X13871702Y2625852D01*
X13877036Y2620518D01*
X13882116Y2610104D01*
X13882116Y2589529D01*
X13877036Y2579115D01*
X13871702Y2573781D01*
X13861288Y2568702D01*
X13850874Y2568702D01*
X13840459Y2573781D01*
X13824966Y2584195D01*
X13773150Y2636265D01*
X13773150Y2563368D01*
X13882116Y2503170D02*
G01*
X13877036Y2518663D01*
X13866622Y2523997D01*
X13856208Y2523997D01*
X13845793Y2518663D01*
X13840459Y2508250D01*
X13835379Y2487676D01*
X13830300Y2471928D01*
X13819886Y2461513D01*
X13809472Y2456434D01*
X13793724Y2456434D01*
X13783309Y2461513D01*
X13778229Y2466847D01*
X13773150Y2482342D01*
X13773150Y2503170D01*
X13778229Y2518663D01*
X13783309Y2523997D01*
X13793724Y2529078D01*
X13809472Y2529078D01*
X13819886Y2523997D01*
X13830300Y2513584D01*
X13835379Y2498089D01*
X13840459Y2477262D01*
X13845793Y2466847D01*
X13856208Y2461513D01*
X13866622Y2461513D01*
X13877036Y2466847D01*
X13882116Y2482342D01*
X13882116Y2503170D01*
X13869416Y1168400D02*
G01*
X13760450Y1168400D01*
X13869416Y1168400D02*
G01*
X13869416Y1132078D01*
X13864336Y1116329D01*
X13853922Y1106170D01*
X13843508Y1100836D01*
X13827759Y1095755D01*
X13801852Y1095755D01*
X13786358Y1100836D01*
X13775943Y1106170D01*
X13765529Y1116329D01*
X13760450Y1132078D01*
X13760450Y1168400D01*
X13843508Y1056131D02*
G01*
X13848588Y1056131D01*
X13859002Y1051052D01*
X13864336Y1045718D01*
X13869416Y1035304D01*
X13869416Y1014729D01*
X13864336Y1004315D01*
X13859002Y998981D01*
X13848588Y993902D01*
X13838174Y993902D01*
X13827759Y998981D01*
X13812266Y1009395D01*
X13760450Y1061465D01*
X13760450Y988568D01*
X13833093Y886713D02*
G01*
X13817600Y892047D01*
X13807186Y902462D01*
X13801852Y917955D01*
X13801852Y923289D01*
X13807186Y938784D01*
X13817600Y949197D01*
X13833093Y954278D01*
X13838174Y954278D01*
X13853922Y949197D01*
X13864336Y938784D01*
X13869416Y923289D01*
X13869416Y917955D01*
X13864336Y902462D01*
X13853922Y892047D01*
X13833093Y886713D01*
X13807186Y886713D01*
X13781024Y892047D01*
X13765529Y902462D01*
X13760450Y917955D01*
X13760450Y928370D01*
X13765529Y943863D01*
X13775943Y949197D01*
X15672816Y5676900D02*
G01*
X15563850Y5676900D01*
X15672816Y5676900D02*
G01*
X15672816Y5640578D01*
X15667736Y5624829D01*
X15657322Y5614670D01*
X15646908Y5609336D01*
X15631159Y5604255D01*
X15605252Y5604255D01*
X15589758Y5609336D01*
X15579343Y5614670D01*
X15568929Y5624829D01*
X15563850Y5640578D01*
X15563850Y5676900D01*
X15672816Y5559552D02*
G01*
X15672816Y5502402D01*
X15631159Y5533389D01*
X15631159Y5517895D01*
X15626079Y5507481D01*
X15621000Y5502402D01*
X15605252Y5497068D01*
X15594838Y5497068D01*
X15579343Y5502402D01*
X15568929Y5512815D01*
X15563850Y5528310D01*
X15563850Y5543804D01*
X15568929Y5559552D01*
X15574009Y5564631D01*
X15584424Y5569965D01*
X15651988Y5462778D02*
G01*
X15657322Y5452363D01*
X15672816Y5436870D01*
X15563850Y5436870D01*
X15622016Y4165600D02*
G01*
X15513050Y4165600D01*
X15622016Y4165600D02*
G01*
X15622016Y4129278D01*
X15616936Y4113529D01*
X15606522Y4103370D01*
X15596108Y4098036D01*
X15580359Y4092955D01*
X15554452Y4092955D01*
X15538958Y4098036D01*
X15528543Y4103370D01*
X15518129Y4113529D01*
X15513050Y4129278D01*
X15513050Y4165600D01*
X15622016Y4048252D02*
G01*
X15622016Y3991102D01*
X15580359Y4022089D01*
X15580359Y4006595D01*
X15575279Y3996181D01*
X15570200Y3991102D01*
X15554452Y3985768D01*
X15544038Y3985768D01*
X15528543Y3991102D01*
X15518129Y4001515D01*
X15513050Y4017010D01*
X15513050Y4032504D01*
X15518129Y4048252D01*
X15523209Y4053331D01*
X15533624Y4058665D01*
X15596108Y3946397D02*
G01*
X15601188Y3946397D01*
X15611602Y3941063D01*
X15616936Y3935984D01*
X15622016Y3925570D01*
X15622016Y3904742D01*
X15616936Y3894328D01*
X15611602Y3889247D01*
X15601188Y3883913D01*
X15590774Y3883913D01*
X15580359Y3889247D01*
X15564866Y3899662D01*
X15513050Y3951478D01*
X15513050Y3878834D01*
X15660116Y2743200D02*
G01*
X15551150Y2743200D01*
X15660116Y2743200D02*
G01*
X15660116Y2706878D01*
X15655036Y2691129D01*
X15644622Y2680970D01*
X15634208Y2675636D01*
X15618459Y2670555D01*
X15592552Y2670555D01*
X15577058Y2675636D01*
X15566643Y2680970D01*
X15556229Y2691129D01*
X15551150Y2706878D01*
X15551150Y2743200D01*
X15660116Y2625852D02*
G01*
X15660116Y2568702D01*
X15618459Y2599689D01*
X15618459Y2584195D01*
X15613379Y2573781D01*
X15608300Y2568702D01*
X15592552Y2563368D01*
X15582138Y2563368D01*
X15566643Y2568702D01*
X15556229Y2579115D01*
X15551150Y2594610D01*
X15551150Y2610104D01*
X15556229Y2625852D01*
X15561309Y2630931D01*
X15571724Y2636265D01*
X15660116Y2518663D02*
G01*
X15660116Y2461513D01*
X15618459Y2492755D01*
X15618459Y2477262D01*
X15613379Y2466847D01*
X15608300Y2461513D01*
X15592552Y2456434D01*
X15582138Y2456434D01*
X15566643Y2461513D01*
X15556229Y2471928D01*
X15551150Y2487676D01*
X15551150Y2503170D01*
X15556229Y2518663D01*
X15561309Y2523997D01*
X15571724Y2529078D01*
X15609316Y1193800D02*
G01*
X15500350Y1193800D01*
X15609316Y1193800D02*
G01*
X15609316Y1157478D01*
X15604236Y1141729D01*
X15593822Y1131570D01*
X15583408Y1126236D01*
X15567659Y1121155D01*
X15541752Y1121155D01*
X15526258Y1126236D01*
X15515843Y1131570D01*
X15505429Y1141729D01*
X15500350Y1157478D01*
X15500350Y1193800D01*
X15609316Y1076452D02*
G01*
X15609316Y1019302D01*
X15567659Y1050289D01*
X15567659Y1034795D01*
X15562579Y1024381D01*
X15557500Y1019302D01*
X15541752Y1013968D01*
X15531338Y1013968D01*
X15515843Y1019302D01*
X15505429Y1029715D01*
X15500350Y1045210D01*
X15500350Y1060704D01*
X15505429Y1076452D01*
X15510509Y1081531D01*
X15520924Y1086865D01*
X15609316Y927862D02*
G01*
X15536672Y979678D01*
X15536672Y901700D01*
X15609316Y927862D02*
G01*
X15500350Y927862D01*
X17336516Y5676900D02*
G01*
X17227550Y5676900D01*
X17336516Y5676900D02*
G01*
X17336516Y5640578D01*
X17331436Y5624829D01*
X17321022Y5614670D01*
X17310608Y5609336D01*
X17294859Y5604255D01*
X17268952Y5604255D01*
X17253458Y5609336D01*
X17243043Y5614670D01*
X17232629Y5624829D01*
X17227550Y5640578D01*
X17227550Y5676900D01*
X17336516Y5559552D02*
G01*
X17336516Y5502402D01*
X17294859Y5533389D01*
X17294859Y5517895D01*
X17289779Y5507481D01*
X17284700Y5502402D01*
X17268952Y5497068D01*
X17258538Y5497068D01*
X17243043Y5502402D01*
X17232629Y5512815D01*
X17227550Y5528310D01*
X17227550Y5543804D01*
X17232629Y5559552D01*
X17237709Y5564631D01*
X17248124Y5569965D01*
X17321022Y5400547D02*
G01*
X17331436Y5405628D01*
X17336516Y5421376D01*
X17336516Y5431789D01*
X17331436Y5447284D01*
X17315688Y5457697D01*
X17289779Y5462778D01*
X17263872Y5462778D01*
X17243043Y5457697D01*
X17232629Y5447284D01*
X17227550Y5431789D01*
X17227550Y5426455D01*
X17232629Y5410962D01*
X17243043Y5400547D01*
X17258538Y5395213D01*
X17263872Y5395213D01*
X17279366Y5400547D01*
X17289779Y5410962D01*
X17294859Y5426455D01*
X17294859Y5431789D01*
X17289779Y5447284D01*
X17279366Y5457697D01*
X17263872Y5462778D01*
X17323816Y4140200D02*
G01*
X17214850Y4140200D01*
X17323816Y4140200D02*
G01*
X17323816Y4103878D01*
X17318736Y4088129D01*
X17308322Y4077970D01*
X17297908Y4072636D01*
X17282159Y4067555D01*
X17256252Y4067555D01*
X17240758Y4072636D01*
X17230343Y4077970D01*
X17219929Y4088129D01*
X17214850Y4103878D01*
X17214850Y4140200D01*
X17323816Y4022852D02*
G01*
X17323816Y3965702D01*
X17282159Y3996689D01*
X17282159Y3981195D01*
X17277079Y3970781D01*
X17272000Y3965702D01*
X17256252Y3960368D01*
X17245838Y3960368D01*
X17230343Y3965702D01*
X17219929Y3976115D01*
X17214850Y3991610D01*
X17214850Y4007104D01*
X17219929Y4022852D01*
X17225009Y4027931D01*
X17235424Y4033265D01*
X17323816Y3853434D02*
G01*
X17214850Y3905250D01*
X17323816Y3926078D02*
G01*
X17323816Y3853434D01*
X17336516Y2717800D02*
G01*
X17227550Y2717800D01*
X17336516Y2717800D02*
G01*
X17336516Y2681478D01*
X17331436Y2665729D01*
X17321022Y2655570D01*
X17310608Y2650236D01*
X17294859Y2645155D01*
X17268952Y2645155D01*
X17253458Y2650236D01*
X17243043Y2655570D01*
X17232629Y2665729D01*
X17227550Y2681478D01*
X17227550Y2717800D01*
X17336516Y2600452D02*
G01*
X17336516Y2543302D01*
X17294859Y2574289D01*
X17294859Y2558795D01*
X17289779Y2548381D01*
X17284700Y2543302D01*
X17268952Y2537968D01*
X17258538Y2537968D01*
X17243043Y2543302D01*
X17232629Y2553715D01*
X17227550Y2569210D01*
X17227550Y2584704D01*
X17232629Y2600452D01*
X17237709Y2605531D01*
X17248124Y2610865D01*
X17336516Y2477770D02*
G01*
X17331436Y2493263D01*
X17321022Y2498597D01*
X17310608Y2498597D01*
X17300193Y2493263D01*
X17294859Y2482850D01*
X17289779Y2462276D01*
X17284700Y2446528D01*
X17274286Y2436113D01*
X17263872Y2431034D01*
X17248124Y2431034D01*
X17237709Y2436113D01*
X17232629Y2441447D01*
X17227550Y2456942D01*
X17227550Y2477770D01*
X17232629Y2493263D01*
X17237709Y2498597D01*
X17248124Y2503678D01*
X17263872Y2503678D01*
X17274286Y2498597D01*
X17284700Y2488184D01*
X17289779Y2472689D01*
X17294859Y2451862D01*
X17300193Y2441447D01*
X17310608Y2436113D01*
X17321022Y2436113D01*
X17331436Y2441447D01*
X17336516Y2456942D01*
X17336516Y2477770D01*
X17400016Y1193800D02*
G01*
X17291050Y1193800D01*
X17400016Y1193800D02*
G01*
X17400016Y1157478D01*
X17394936Y1141729D01*
X17384522Y1131570D01*
X17374108Y1126236D01*
X17358359Y1121155D01*
X17332452Y1121155D01*
X17316958Y1126236D01*
X17306543Y1131570D01*
X17296129Y1141729D01*
X17291050Y1157478D01*
X17291050Y1193800D01*
X17400016Y1076452D02*
G01*
X17400016Y1019302D01*
X17358359Y1050289D01*
X17358359Y1034795D01*
X17353279Y1024381D01*
X17348200Y1019302D01*
X17332452Y1013968D01*
X17322038Y1013968D01*
X17306543Y1019302D01*
X17296129Y1029715D01*
X17291050Y1045210D01*
X17291050Y1060704D01*
X17296129Y1076452D01*
X17301209Y1081531D01*
X17311624Y1086865D01*
X17363693Y912113D02*
G01*
X17348200Y917447D01*
X17337786Y927862D01*
X17332452Y943355D01*
X17332452Y948689D01*
X17337786Y964184D01*
X17348200Y974597D01*
X17363693Y979678D01*
X17368774Y979678D01*
X17384522Y974597D01*
X17394936Y964184D01*
X17400016Y948689D01*
X17400016Y943355D01*
X17394936Y927862D01*
X17384522Y917447D01*
X17363693Y912113D01*
X17337786Y912113D01*
X17311624Y917447D01*
X17296129Y927862D01*
X17291050Y943355D01*
X17291050Y953770D01*
X17296129Y969263D01*
X17306543Y974597D01*
X19101816Y5676900D02*
G01*
X18992850Y5676900D01*
X19101816Y5676900D02*
G01*
X19101816Y5640578D01*
X19096736Y5624829D01*
X19086322Y5614670D01*
X19075908Y5609336D01*
X19060159Y5604255D01*
X19034252Y5604255D01*
X19018758Y5609336D01*
X19008343Y5614670D01*
X18997929Y5624829D01*
X18992850Y5640578D01*
X18992850Y5676900D01*
X19101816Y5517895D02*
G01*
X19029172Y5569965D01*
X19029172Y5491987D01*
X19101816Y5517895D02*
G01*
X18992850Y5517895D01*
X19080988Y5457697D02*
G01*
X19086322Y5447284D01*
X19101816Y5431789D01*
X18992850Y5431789D01*
X19139916Y4165600D02*
G01*
X19030950Y4165600D01*
X19139916Y4165600D02*
G01*
X19139916Y4129278D01*
X19134836Y4113529D01*
X19124422Y4103370D01*
X19114008Y4098036D01*
X19098259Y4092955D01*
X19072352Y4092955D01*
X19056858Y4098036D01*
X19046443Y4103370D01*
X19036029Y4113529D01*
X19030950Y4129278D01*
X19030950Y4165600D01*
X19139916Y4006595D02*
G01*
X19067272Y4058665D01*
X19067272Y3980687D01*
X19139916Y4006595D02*
G01*
X19030950Y4006595D01*
X19114008Y3941063D02*
G01*
X19119088Y3941063D01*
X19129502Y3935984D01*
X19134836Y3930650D01*
X19139916Y3920489D01*
X19139916Y3899662D01*
X19134836Y3889247D01*
X19129502Y3883913D01*
X19119088Y3878834D01*
X19108674Y3878834D01*
X19098259Y3883913D01*
X19082766Y3894328D01*
X19030950Y3946397D01*
X19030950Y3873500D01*
X19165316Y2768600D02*
G01*
X19056350Y2768600D01*
X19165316Y2768600D02*
G01*
X19165316Y2732278D01*
X19160236Y2716529D01*
X19149822Y2706370D01*
X19139408Y2701036D01*
X19123659Y2695955D01*
X19097752Y2695955D01*
X19082258Y2701036D01*
X19071843Y2706370D01*
X19061429Y2716529D01*
X19056350Y2732278D01*
X19056350Y2768600D01*
X19165316Y2609595D02*
G01*
X19092672Y2661665D01*
X19092672Y2583687D01*
X19165316Y2609595D02*
G01*
X19056350Y2609595D01*
X19165316Y2538984D02*
G01*
X19165316Y2481834D01*
X19123659Y2513076D01*
X19123659Y2497328D01*
X19118579Y2486913D01*
X19113500Y2481834D01*
X19097752Y2476500D01*
X19087338Y2476500D01*
X19071843Y2481834D01*
X19061429Y2492247D01*
X19056350Y2507742D01*
X19056350Y2523489D01*
X19061429Y2538984D01*
X19066509Y2544063D01*
X19076924Y2549397D01*
X19178016Y1206500D02*
G01*
X19069050Y1206500D01*
X19178016Y1206500D02*
G01*
X19178016Y1170178D01*
X19172936Y1154429D01*
X19162522Y1144270D01*
X19152108Y1138936D01*
X19136359Y1133855D01*
X19110452Y1133855D01*
X19094958Y1138936D01*
X19084543Y1144270D01*
X19074129Y1154429D01*
X19069050Y1170178D01*
X19069050Y1206500D01*
X19178016Y1047495D02*
G01*
X19105372Y1099565D01*
X19105372Y1021587D01*
X19178016Y1047495D02*
G01*
X19069050Y1047495D01*
X19178016Y935228D02*
G01*
X19105372Y987297D01*
X19105372Y909320D01*
X19178016Y935228D02*
G01*
X19069050Y935228D01*
X20938413Y5717743D02*
G01*
X20829447Y5717743D01*
X20938413Y5717743D02*
G01*
X20938413Y5681421D01*
X20933333Y5665673D01*
X20922919Y5655513D01*
X20912505Y5650179D01*
X20896757Y5645099D01*
X20870849Y5645099D01*
X20855355Y5650179D01*
X20844941Y5655513D01*
X20834527Y5665673D01*
X20829447Y5681421D01*
X20829447Y5717743D01*
X20938413Y5558739D02*
G01*
X20865769Y5610809D01*
X20865769Y5532831D01*
X20938413Y5558739D02*
G01*
X20829447Y5558739D01*
X20922919Y5436057D02*
G01*
X20933333Y5441391D01*
X20938413Y5456885D01*
X20938413Y5467299D01*
X20933333Y5482793D01*
X20917585Y5493207D01*
X20891677Y5498541D01*
X20865769Y5498541D01*
X20844941Y5493207D01*
X20834527Y5482793D01*
X20829447Y5467299D01*
X20829447Y5462219D01*
X20834527Y5446471D01*
X20844941Y5436057D01*
X20860435Y5430977D01*
X20865769Y5430977D01*
X20881263Y5436057D01*
X20891677Y5446471D01*
X20896757Y5462219D01*
X20896757Y5467299D01*
X20891677Y5482793D01*
X20881263Y5493207D01*
X20865769Y5498541D01*
X20930616Y4165600D02*
G01*
X20821650Y4165600D01*
X20930616Y4165600D02*
G01*
X20930616Y4129278D01*
X20925536Y4113529D01*
X20915122Y4103370D01*
X20904708Y4098036D01*
X20888959Y4092955D01*
X20863052Y4092955D01*
X20847558Y4098036D01*
X20837143Y4103370D01*
X20826729Y4113529D01*
X20821650Y4129278D01*
X20821650Y4165600D01*
X20930616Y4006595D02*
G01*
X20857972Y4058665D01*
X20857972Y3980687D01*
X20930616Y4006595D02*
G01*
X20821650Y4006595D01*
X20930616Y3873500D02*
G01*
X20821650Y3925570D01*
X20930616Y3946397D02*
G01*
X20930616Y3873500D01*
X21032216Y2768600D02*
G01*
X20923250Y2768600D01*
X21032216Y2768600D02*
G01*
X21032216Y2732278D01*
X21027136Y2716529D01*
X21016722Y2706370D01*
X21006308Y2701036D01*
X20990559Y2695955D01*
X20964652Y2695955D01*
X20949158Y2701036D01*
X20938743Y2706370D01*
X20928329Y2716529D01*
X20923250Y2732278D01*
X20923250Y2768600D01*
X21032216Y2609595D02*
G01*
X20959572Y2661665D01*
X20959572Y2583687D01*
X21032216Y2609595D02*
G01*
X20923250Y2609595D01*
X21032216Y2523489D02*
G01*
X21027136Y2538984D01*
X21016722Y2544063D01*
X21006308Y2544063D01*
X20995893Y2538984D01*
X20990559Y2528570D01*
X20985479Y2507742D01*
X20980400Y2492247D01*
X20969986Y2481834D01*
X20959572Y2476500D01*
X20943824Y2476500D01*
X20933409Y2481834D01*
X20928329Y2486913D01*
X20923250Y2502662D01*
X20923250Y2523489D01*
X20928329Y2538984D01*
X20933409Y2544063D01*
X20943824Y2549397D01*
X20959572Y2549397D01*
X20969986Y2544063D01*
X20980400Y2533650D01*
X20985479Y2518155D01*
X20990559Y2497328D01*
X20995893Y2486913D01*
X21006308Y2481834D01*
X21016722Y2481834D01*
X21027136Y2486913D01*
X21032216Y2502662D01*
X21032216Y2523489D01*
X20994116Y1219200D02*
G01*
X20885150Y1219200D01*
X20994116Y1219200D02*
G01*
X20994116Y1182878D01*
X20989036Y1167129D01*
X20978622Y1156970D01*
X20968208Y1151636D01*
X20952459Y1146555D01*
X20926552Y1146555D01*
X20911058Y1151636D01*
X20900643Y1156970D01*
X20890229Y1167129D01*
X20885150Y1182878D01*
X20885150Y1219200D01*
X20994116Y1060195D02*
G01*
X20921472Y1112265D01*
X20921472Y1034287D01*
X20994116Y1060195D02*
G01*
X20885150Y1060195D01*
X20957793Y932434D02*
G01*
X20942300Y937513D01*
X20931886Y947928D01*
X20926552Y963676D01*
X20926552Y968755D01*
X20931886Y984250D01*
X20942300Y994663D01*
X20957793Y999997D01*
X20962874Y999997D01*
X20978622Y994663D01*
X20989036Y984250D01*
X20994116Y968755D01*
X20994116Y963676D01*
X20989036Y947928D01*
X20978622Y937513D01*
X20957793Y932434D01*
X20931886Y932434D01*
X20905724Y937513D01*
X20890229Y947928D01*
X20885150Y963676D01*
X20885150Y974089D01*
X20890229Y989584D01*
X20900643Y994663D01*
X2933700Y4469384D02*
G01*
X2933700Y4578350D01*
X2933700Y4578350D02*
G01*
X2871470Y4578350D01*
X2837179Y4469384D02*
G01*
X2837179Y4578350D01*
X2837179Y4469384D02*
G01*
X2769615Y4469384D01*
X2837179Y4521200D02*
G01*
X2795524Y4521200D01*
X2837179Y4578350D02*
G01*
X2769615Y4578350D01*
X2735325Y4469384D02*
G01*
X2735325Y4578350D01*
X2735325Y4469384D02*
G01*
X2698750Y4469384D01*
X2683256Y4474463D01*
X2672841Y4484878D01*
X2667761Y4495292D01*
X2662427Y4511039D01*
X2662427Y4536947D01*
X2667761Y4552442D01*
X2672841Y4562855D01*
X2683256Y4573270D01*
X2698750Y4578350D01*
X2735325Y4578350D01*
X2323084Y5346700D02*
G01*
X2432050Y5346700D01*
X2323084Y5346700D02*
G01*
X2323084Y5393436D01*
X2328163Y5408929D01*
X2333497Y5414263D01*
X2343911Y5419344D01*
X2354325Y5419344D01*
X2364740Y5414263D01*
X2369820Y5408929D01*
X2374900Y5393436D01*
X2374900Y5346700D01*
X2374900Y5383021D02*
G01*
X2432050Y5419344D01*
X2343911Y5453634D02*
G01*
X2338577Y5464047D01*
X2323084Y5479795D01*
X2432050Y5479795D01*
X2033033Y5473697D02*
G01*
X1924067Y5473697D01*
X2033033Y5473697D02*
G01*
X2033033Y5426961D01*
X2027953Y5411467D01*
X2022619Y5406133D01*
X2012205Y5401053D01*
X2001791Y5401053D01*
X1991377Y5406133D01*
X1986297Y5411467D01*
X1981217Y5426961D01*
X1981217Y5473697D01*
X1981217Y5437375D02*
G01*
X1924067Y5401053D01*
X2007125Y5361429D02*
G01*
X2012205Y5361429D01*
X2022619Y5356349D01*
X2027953Y5351015D01*
X2033033Y5340601D01*
X2033033Y5320027D01*
X2027953Y5309613D01*
X2022619Y5304279D01*
X2012205Y5299199D01*
X2001791Y5299199D01*
X1991377Y5304279D01*
X1975883Y5314693D01*
X1924067Y5366763D01*
X1924067Y5293865D01*
X1103884Y1816100D02*
G01*
X1212850Y1816100D01*
X1103884Y1816100D02*
G01*
X1103884Y1862836D01*
X1108963Y1878329D01*
X1114297Y1883663D01*
X1124712Y1888744D01*
X1135126Y1888744D01*
X1145539Y1883663D01*
X1150620Y1878329D01*
X1155700Y1862836D01*
X1155700Y1816100D01*
X1155700Y1852421D02*
G01*
X1212850Y1888744D01*
X1103884Y1933447D02*
G01*
X1103884Y1990597D01*
X1145539Y1959610D01*
X1145539Y1975104D01*
X1150620Y1985518D01*
X1155700Y1990597D01*
X1171447Y1995931D01*
X1181862Y1995931D01*
X1197355Y1990597D01*
X1207770Y1980184D01*
X1212850Y1964689D01*
X1212850Y1949195D01*
X1207770Y1933447D01*
X1202689Y1928368D01*
X1192276Y1923034D01*
X2654300Y4471415D02*
G01*
X2654300Y4362450D01*
X2654300Y4471415D02*
G01*
X2701036Y4471415D01*
X2716529Y4466336D01*
X2721863Y4461002D01*
X2726943Y4450587D01*
X2726943Y4440173D01*
X2721863Y4429760D01*
X2716529Y4424679D01*
X2701036Y4419600D01*
X2654300Y4419600D01*
X2690622Y4419600D02*
G01*
X2726943Y4362450D01*
X2813304Y4471415D02*
G01*
X2761234Y4398771D01*
X2839211Y4398771D01*
X2813304Y4471415D02*
G01*
X2813304Y4362450D01*
X2146300Y1715515D02*
G01*
X2146300Y1606550D01*
X2146300Y1715515D02*
G01*
X2193036Y1715515D01*
X2208529Y1710436D01*
X2213863Y1705102D01*
X2218943Y1694687D01*
X2218943Y1684273D01*
X2213863Y1673860D01*
X2208529Y1668779D01*
X2193036Y1663700D01*
X2146300Y1663700D01*
X2182622Y1663700D02*
G01*
X2218943Y1606550D01*
X2253234Y1715515D02*
G01*
X2253234Y1606550D01*
X2253234Y1715515D02*
G01*
X2320797Y1715515D01*
X2253234Y1663700D02*
G01*
X2294890Y1663700D01*
X2253234Y1606550D02*
G01*
X2320797Y1606550D01*
X2427986Y1700021D02*
G01*
X2417572Y1710436D01*
X2401824Y1715515D01*
X2381250Y1715515D01*
X2365502Y1710436D01*
X2355088Y1700021D01*
X2355088Y1689607D01*
X2360422Y1679194D01*
X2365502Y1673860D01*
X2375915Y1668779D01*
X2407158Y1658365D01*
X2417572Y1653286D01*
X2422652Y1647952D01*
X2427986Y1637537D01*
X2427986Y1622044D01*
X2417572Y1611629D01*
X2401824Y1606550D01*
X2381250Y1606550D01*
X2365502Y1611629D01*
X2355088Y1622044D01*
X2462275Y1715515D02*
G01*
X2462275Y1606550D01*
X2462275Y1715515D02*
G01*
X2529840Y1715515D01*
X2462275Y1663700D02*
G01*
X2503677Y1663700D01*
X2462275Y1606550D02*
G01*
X2529840Y1606550D01*
X2600452Y1715515D02*
G01*
X2600452Y1606550D01*
X2564129Y1715515D02*
G01*
X2636774Y1715515D01*
X3857243Y6195821D02*
G01*
X3846829Y6206236D01*
X3831336Y6211315D01*
X3810508Y6211315D01*
X3795013Y6206236D01*
X3784600Y6195821D01*
X3784600Y6185407D01*
X3789679Y6174994D01*
X3795013Y6169660D01*
X3805427Y6164579D01*
X3836670Y6154165D01*
X3846829Y6149086D01*
X3852163Y6143752D01*
X3857243Y6133337D01*
X3857243Y6117844D01*
X3846829Y6107429D01*
X3831336Y6102350D01*
X3810508Y6102350D01*
X3795013Y6107429D01*
X3784600Y6117844D01*
X3891534Y6211315D02*
G01*
X3917695Y6102350D01*
X3943604Y6211315D02*
G01*
X3917695Y6102350D01*
X3943604Y6211315D02*
G01*
X3969511Y6102350D01*
X3995420Y6211315D02*
G01*
X3969511Y6102350D01*
X4029709Y6190487D02*
G01*
X4040124Y6195821D01*
X4055872Y6211315D01*
X4055872Y6102350D01*
X3869943Y4697221D02*
G01*
X3859529Y4707636D01*
X3844036Y4712715D01*
X3823208Y4712715D01*
X3807713Y4707636D01*
X3797300Y4697221D01*
X3797300Y4686807D01*
X3802379Y4676394D01*
X3807713Y4671060D01*
X3818127Y4665979D01*
X3849370Y4655565D01*
X3859529Y4650486D01*
X3864863Y4645152D01*
X3869943Y4634737D01*
X3869943Y4619244D01*
X3859529Y4608829D01*
X3844036Y4603750D01*
X3823208Y4603750D01*
X3807713Y4608829D01*
X3797300Y4619244D01*
X3904234Y4712715D02*
G01*
X3930395Y4603750D01*
X3956304Y4712715D02*
G01*
X3930395Y4603750D01*
X3956304Y4712715D02*
G01*
X3982211Y4603750D01*
X4008120Y4712715D02*
G01*
X3982211Y4603750D01*
X4047743Y4686807D02*
G01*
X4047743Y4691887D01*
X4052824Y4702302D01*
X4058158Y4707636D01*
X4068572Y4712715D01*
X4089400Y4712715D01*
X4099559Y4707636D01*
X4104893Y4702302D01*
X4109974Y4691887D01*
X4109974Y4681473D01*
X4104893Y4671060D01*
X4094479Y4655565D01*
X4042409Y4603750D01*
X4115308Y4603750D01*
X3857243Y3274821D02*
G01*
X3846829Y3285236D01*
X3831336Y3290315D01*
X3810508Y3290315D01*
X3795013Y3285236D01*
X3784600Y3274821D01*
X3784600Y3264407D01*
X3789679Y3253994D01*
X3795013Y3248660D01*
X3805427Y3243579D01*
X3836670Y3233165D01*
X3846829Y3228086D01*
X3852163Y3222752D01*
X3857243Y3212337D01*
X3857243Y3196844D01*
X3846829Y3186429D01*
X3831336Y3181350D01*
X3810508Y3181350D01*
X3795013Y3186429D01*
X3784600Y3196844D01*
X3891534Y3290315D02*
G01*
X3917695Y3181350D01*
X3943604Y3290315D02*
G01*
X3917695Y3181350D01*
X3943604Y3290315D02*
G01*
X3969511Y3181350D01*
X3995420Y3290315D02*
G01*
X3969511Y3181350D01*
X4040124Y3290315D02*
G01*
X4097274Y3290315D01*
X4066286Y3248660D01*
X4081779Y3248660D01*
X4092193Y3243579D01*
X4097274Y3238500D01*
X4102608Y3222752D01*
X4102608Y3212337D01*
X4097274Y3196844D01*
X4086859Y3186429D01*
X4071365Y3181350D01*
X4055872Y3181350D01*
X4040124Y3186429D01*
X4035043Y3191510D01*
X4029709Y3201923D01*
X3857243Y1725421D02*
G01*
X3846829Y1735836D01*
X3831336Y1740915D01*
X3810508Y1740915D01*
X3795013Y1735836D01*
X3784600Y1725421D01*
X3784600Y1715007D01*
X3789679Y1704594D01*
X3795013Y1699260D01*
X3805427Y1694179D01*
X3836670Y1683765D01*
X3846829Y1678686D01*
X3852163Y1673352D01*
X3857243Y1662937D01*
X3857243Y1647444D01*
X3846829Y1637029D01*
X3831336Y1631950D01*
X3810508Y1631950D01*
X3795013Y1637029D01*
X3784600Y1647444D01*
X3891534Y1740915D02*
G01*
X3917695Y1631950D01*
X3943604Y1740915D02*
G01*
X3917695Y1631950D01*
X3943604Y1740915D02*
G01*
X3969511Y1631950D01*
X3995420Y1740915D02*
G01*
X3969511Y1631950D01*
X4081779Y1740915D02*
G01*
X4029709Y1668271D01*
X4107688Y1668271D01*
X4081779Y1740915D02*
G01*
X4081779Y1631950D01*
X5635243Y6195821D02*
G01*
X5624829Y6206236D01*
X5609336Y6211315D01*
X5588508Y6211315D01*
X5573013Y6206236D01*
X5562600Y6195821D01*
X5562600Y6185407D01*
X5567679Y6174994D01*
X5573013Y6169660D01*
X5583427Y6164579D01*
X5614670Y6154165D01*
X5624829Y6149086D01*
X5630163Y6143752D01*
X5635243Y6133337D01*
X5635243Y6117844D01*
X5624829Y6107429D01*
X5609336Y6102350D01*
X5588508Y6102350D01*
X5573013Y6107429D01*
X5562600Y6117844D01*
X5669534Y6211315D02*
G01*
X5695695Y6102350D01*
X5721604Y6211315D02*
G01*
X5695695Y6102350D01*
X5721604Y6211315D02*
G01*
X5747511Y6102350D01*
X5773420Y6211315D02*
G01*
X5747511Y6102350D01*
X5870193Y6195821D02*
G01*
X5864859Y6206236D01*
X5849365Y6211315D01*
X5838952Y6211315D01*
X5823458Y6206236D01*
X5813043Y6190487D01*
X5807709Y6164579D01*
X5807709Y6138671D01*
X5813043Y6117844D01*
X5823458Y6107429D01*
X5838952Y6102350D01*
X5844286Y6102350D01*
X5859779Y6107429D01*
X5870193Y6117844D01*
X5875274Y6133337D01*
X5875274Y6138671D01*
X5870193Y6154165D01*
X5859779Y6164579D01*
X5844286Y6169660D01*
X5838952Y6169660D01*
X5823458Y6164579D01*
X5813043Y6154165D01*
X5807709Y6138671D01*
X5622543Y4709921D02*
G01*
X5612129Y4720336D01*
X5596636Y4725415D01*
X5575808Y4725415D01*
X5560313Y4720336D01*
X5549900Y4709921D01*
X5549900Y4699507D01*
X5554979Y4689094D01*
X5560313Y4683760D01*
X5570727Y4678679D01*
X5601970Y4668265D01*
X5612129Y4663186D01*
X5617463Y4657852D01*
X5622543Y4647437D01*
X5622543Y4631944D01*
X5612129Y4621529D01*
X5596636Y4616450D01*
X5575808Y4616450D01*
X5560313Y4621529D01*
X5549900Y4631944D01*
X5656834Y4725415D02*
G01*
X5682995Y4616450D01*
X5708904Y4725415D02*
G01*
X5682995Y4616450D01*
X5708904Y4725415D02*
G01*
X5734811Y4616450D01*
X5760720Y4725415D02*
G01*
X5734811Y4616450D01*
X5867908Y4725415D02*
G01*
X5815838Y4616450D01*
X5795009Y4725415D02*
G01*
X5867908Y4725415D01*
X5647943Y3274821D02*
G01*
X5637529Y3285236D01*
X5622036Y3290315D01*
X5601208Y3290315D01*
X5585713Y3285236D01*
X5575300Y3274821D01*
X5575300Y3264407D01*
X5580379Y3253994D01*
X5585713Y3248660D01*
X5596127Y3243579D01*
X5627370Y3233165D01*
X5637529Y3228086D01*
X5642863Y3222752D01*
X5647943Y3212337D01*
X5647943Y3196844D01*
X5637529Y3186429D01*
X5622036Y3181350D01*
X5601208Y3181350D01*
X5585713Y3186429D01*
X5575300Y3196844D01*
X5682234Y3290315D02*
G01*
X5708395Y3181350D01*
X5734304Y3290315D02*
G01*
X5708395Y3181350D01*
X5734304Y3290315D02*
G01*
X5760211Y3181350D01*
X5786120Y3290315D02*
G01*
X5760211Y3181350D01*
X5846572Y3290315D02*
G01*
X5830824Y3285236D01*
X5825743Y3274821D01*
X5825743Y3264407D01*
X5830824Y3253994D01*
X5841238Y3248660D01*
X5862065Y3243579D01*
X5877559Y3238500D01*
X5887974Y3228086D01*
X5893308Y3217671D01*
X5893308Y3201923D01*
X5887974Y3191510D01*
X5882893Y3186429D01*
X5867400Y3181350D01*
X5846572Y3181350D01*
X5830824Y3186429D01*
X5825743Y3191510D01*
X5820409Y3201923D01*
X5820409Y3217671D01*
X5825743Y3228086D01*
X5836158Y3238500D01*
X5851652Y3243579D01*
X5872479Y3248660D01*
X5882893Y3253994D01*
X5887974Y3264407D01*
X5887974Y3274821D01*
X5882893Y3285236D01*
X5867400Y3290315D01*
X5846572Y3290315D01*
X5647943Y1725421D02*
G01*
X5637529Y1735836D01*
X5622036Y1740915D01*
X5601208Y1740915D01*
X5585713Y1735836D01*
X5575300Y1725421D01*
X5575300Y1715007D01*
X5580379Y1704594D01*
X5585713Y1699260D01*
X5596127Y1694179D01*
X5627370Y1683765D01*
X5637529Y1678686D01*
X5642863Y1673352D01*
X5647943Y1662937D01*
X5647943Y1647444D01*
X5637529Y1637029D01*
X5622036Y1631950D01*
X5601208Y1631950D01*
X5585713Y1637029D01*
X5575300Y1647444D01*
X5682234Y1740915D02*
G01*
X5708395Y1631950D01*
X5734304Y1740915D02*
G01*
X5708395Y1631950D01*
X5734304Y1740915D02*
G01*
X5760211Y1631950D01*
X5786120Y1740915D02*
G01*
X5760211Y1631950D01*
X5887974Y1704594D02*
G01*
X5882893Y1689100D01*
X5872479Y1678686D01*
X5856986Y1673352D01*
X5851652Y1673352D01*
X5836158Y1678686D01*
X5825743Y1689100D01*
X5820409Y1704594D01*
X5820409Y1709673D01*
X5825743Y1725421D01*
X5836158Y1735836D01*
X5851652Y1740915D01*
X5856986Y1740915D01*
X5872479Y1735836D01*
X5882893Y1725421D01*
X5887974Y1704594D01*
X5887974Y1678686D01*
X5882893Y1652523D01*
X5872479Y1637029D01*
X5856986Y1631950D01*
X5846572Y1631950D01*
X5830824Y1637029D01*
X5825743Y1647444D01*
X7268819Y6234937D02*
G01*
X7258405Y6245352D01*
X7242911Y6250431D01*
X7222083Y6250431D01*
X7206589Y6245352D01*
X7196175Y6234937D01*
X7196175Y6224523D01*
X7201255Y6214110D01*
X7206589Y6208776D01*
X7217003Y6203695D01*
X7248245Y6193281D01*
X7258405Y6188202D01*
X7263739Y6182868D01*
X7268819Y6172454D01*
X7268819Y6156960D01*
X7258405Y6146545D01*
X7242911Y6141465D01*
X7222083Y6141465D01*
X7206589Y6146545D01*
X7196175Y6156960D01*
X7303109Y6250431D02*
G01*
X7329271Y6141465D01*
X7355179Y6250431D02*
G01*
X7329271Y6141465D01*
X7355179Y6250431D02*
G01*
X7381087Y6141465D01*
X7406995Y6250431D02*
G01*
X7381087Y6141465D01*
X7441285Y6229604D02*
G01*
X7451699Y6234937D01*
X7467447Y6250431D01*
X7467447Y6141465D01*
X7501737Y6229604D02*
G01*
X7512151Y6234937D01*
X7527645Y6250431D01*
X7527645Y6141465D01*
X7260843Y4748021D02*
G01*
X7250429Y4758436D01*
X7234936Y4763515D01*
X7214108Y4763515D01*
X7198613Y4758436D01*
X7188200Y4748021D01*
X7188200Y4737607D01*
X7193279Y4727194D01*
X7198613Y4721860D01*
X7209027Y4716779D01*
X7240270Y4706365D01*
X7250429Y4701286D01*
X7255763Y4695952D01*
X7260843Y4685537D01*
X7260843Y4670044D01*
X7250429Y4659629D01*
X7234936Y4654550D01*
X7214108Y4654550D01*
X7198613Y4659629D01*
X7188200Y4670044D01*
X7295134Y4763515D02*
G01*
X7321295Y4654550D01*
X7347204Y4763515D02*
G01*
X7321295Y4654550D01*
X7347204Y4763515D02*
G01*
X7373111Y4654550D01*
X7399020Y4763515D02*
G01*
X7373111Y4654550D01*
X7433309Y4742687D02*
G01*
X7443724Y4748021D01*
X7459472Y4763515D01*
X7459472Y4654550D01*
X7498841Y4737607D02*
G01*
X7498841Y4742687D01*
X7504175Y4753102D01*
X7509256Y4758436D01*
X7519670Y4763515D01*
X7540497Y4763515D01*
X7550911Y4758436D01*
X7555991Y4753102D01*
X7561325Y4742687D01*
X7561325Y4732273D01*
X7555991Y4721860D01*
X7545577Y4706365D01*
X7493761Y4654550D01*
X7566406Y4654550D01*
X7413243Y3274821D02*
G01*
X7402829Y3285236D01*
X7387336Y3290315D01*
X7366508Y3290315D01*
X7351013Y3285236D01*
X7340600Y3274821D01*
X7340600Y3264407D01*
X7345679Y3253994D01*
X7351013Y3248660D01*
X7361427Y3243579D01*
X7392670Y3233165D01*
X7402829Y3228086D01*
X7408163Y3222752D01*
X7413243Y3212337D01*
X7413243Y3196844D01*
X7402829Y3186429D01*
X7387336Y3181350D01*
X7366508Y3181350D01*
X7351013Y3186429D01*
X7340600Y3196844D01*
X7447534Y3290315D02*
G01*
X7473695Y3181350D01*
X7499604Y3290315D02*
G01*
X7473695Y3181350D01*
X7499604Y3290315D02*
G01*
X7525511Y3181350D01*
X7551420Y3290315D02*
G01*
X7525511Y3181350D01*
X7585709Y3269487D02*
G01*
X7596124Y3274821D01*
X7611872Y3290315D01*
X7611872Y3181350D01*
X7656575Y3290315D02*
G01*
X7713725Y3290315D01*
X7682484Y3248660D01*
X7697977Y3248660D01*
X7708391Y3243579D01*
X7713725Y3238500D01*
X7718806Y3222752D01*
X7718806Y3212337D01*
X7713725Y3196844D01*
X7703311Y3186429D01*
X7687563Y3181350D01*
X7672070Y3181350D01*
X7656575Y3186429D01*
X7651241Y3191510D01*
X7646161Y3201923D01*
X7425943Y1725421D02*
G01*
X7415529Y1735836D01*
X7400036Y1740915D01*
X7379208Y1740915D01*
X7363713Y1735836D01*
X7353300Y1725421D01*
X7353300Y1715007D01*
X7358379Y1704594D01*
X7363713Y1699260D01*
X7374127Y1694179D01*
X7405370Y1683765D01*
X7415529Y1678686D01*
X7420863Y1673352D01*
X7425943Y1662937D01*
X7425943Y1647444D01*
X7415529Y1637029D01*
X7400036Y1631950D01*
X7379208Y1631950D01*
X7363713Y1637029D01*
X7353300Y1647444D01*
X7460234Y1740915D02*
G01*
X7486395Y1631950D01*
X7512304Y1740915D02*
G01*
X7486395Y1631950D01*
X7512304Y1740915D02*
G01*
X7538211Y1631950D01*
X7564120Y1740915D02*
G01*
X7538211Y1631950D01*
X7598409Y1720087D02*
G01*
X7608824Y1725421D01*
X7624572Y1740915D01*
X7624572Y1631950D01*
X7710677Y1740915D02*
G01*
X7658861Y1668271D01*
X7736840Y1668271D01*
X7710677Y1740915D02*
G01*
X7710677Y1631950D01*
X9203943Y6183121D02*
G01*
X9193529Y6193536D01*
X9178036Y6198615D01*
X9157208Y6198615D01*
X9141713Y6193536D01*
X9131300Y6183121D01*
X9131300Y6172707D01*
X9136379Y6162294D01*
X9141713Y6156960D01*
X9152127Y6151879D01*
X9183370Y6141465D01*
X9193529Y6136386D01*
X9198863Y6131052D01*
X9203943Y6120637D01*
X9203943Y6105144D01*
X9193529Y6094729D01*
X9178036Y6089650D01*
X9157208Y6089650D01*
X9141713Y6094729D01*
X9131300Y6105144D01*
X9238234Y6198615D02*
G01*
X9264395Y6089650D01*
X9290304Y6198615D02*
G01*
X9264395Y6089650D01*
X9290304Y6198615D02*
G01*
X9316211Y6089650D01*
X9342120Y6198615D02*
G01*
X9316211Y6089650D01*
X9376409Y6177787D02*
G01*
X9386824Y6183121D01*
X9402572Y6198615D01*
X9402572Y6089650D01*
X9499091Y6183121D02*
G01*
X9494011Y6193536D01*
X9478263Y6198615D01*
X9467850Y6198615D01*
X9452356Y6193536D01*
X9441941Y6177787D01*
X9436861Y6151879D01*
X9436861Y6125971D01*
X9441941Y6105144D01*
X9452356Y6094729D01*
X9467850Y6089650D01*
X9473184Y6089650D01*
X9488677Y6094729D01*
X9499091Y6105144D01*
X9504425Y6120637D01*
X9504425Y6125971D01*
X9499091Y6141465D01*
X9488677Y6151879D01*
X9473184Y6156960D01*
X9467850Y6156960D01*
X9452356Y6151879D01*
X9441941Y6141465D01*
X9436861Y6125971D01*
X9203943Y4709921D02*
G01*
X9193529Y4720336D01*
X9178036Y4725415D01*
X9157208Y4725415D01*
X9141713Y4720336D01*
X9131300Y4709921D01*
X9131300Y4699507D01*
X9136379Y4689094D01*
X9141713Y4683760D01*
X9152127Y4678679D01*
X9183370Y4668265D01*
X9193529Y4663186D01*
X9198863Y4657852D01*
X9203943Y4647437D01*
X9203943Y4631944D01*
X9193529Y4621529D01*
X9178036Y4616450D01*
X9157208Y4616450D01*
X9141713Y4621529D01*
X9131300Y4631944D01*
X9238234Y4725415D02*
G01*
X9264395Y4616450D01*
X9290304Y4725415D02*
G01*
X9264395Y4616450D01*
X9290304Y4725415D02*
G01*
X9316211Y4616450D01*
X9342120Y4725415D02*
G01*
X9316211Y4616450D01*
X9376409Y4704587D02*
G01*
X9386824Y4709921D01*
X9402572Y4725415D01*
X9402572Y4616450D01*
X9509506Y4725415D02*
G01*
X9457690Y4616450D01*
X9436861Y4725415D02*
G01*
X9509506Y4725415D01*
X9203943Y3274821D02*
G01*
X9193529Y3285236D01*
X9178036Y3290315D01*
X9157208Y3290315D01*
X9141713Y3285236D01*
X9131300Y3274821D01*
X9131300Y3264407D01*
X9136379Y3253994D01*
X9141713Y3248660D01*
X9152127Y3243579D01*
X9183370Y3233165D01*
X9193529Y3228086D01*
X9198863Y3222752D01*
X9203943Y3212337D01*
X9203943Y3196844D01*
X9193529Y3186429D01*
X9178036Y3181350D01*
X9157208Y3181350D01*
X9141713Y3186429D01*
X9131300Y3196844D01*
X9238234Y3290315D02*
G01*
X9264395Y3181350D01*
X9290304Y3290315D02*
G01*
X9264395Y3181350D01*
X9290304Y3290315D02*
G01*
X9316211Y3181350D01*
X9342120Y3290315D02*
G01*
X9316211Y3181350D01*
X9376409Y3269487D02*
G01*
X9386824Y3274821D01*
X9402572Y3290315D01*
X9402572Y3181350D01*
X9462770Y3290315D02*
G01*
X9447275Y3285236D01*
X9441941Y3274821D01*
X9441941Y3264407D01*
X9447275Y3253994D01*
X9457690Y3248660D01*
X9478263Y3243579D01*
X9494011Y3238500D01*
X9504425Y3228086D01*
X9509506Y3217671D01*
X9509506Y3201923D01*
X9504425Y3191510D01*
X9499091Y3186429D01*
X9483597Y3181350D01*
X9462770Y3181350D01*
X9447275Y3186429D01*
X9441941Y3191510D01*
X9436861Y3201923D01*
X9436861Y3217671D01*
X9441941Y3228086D01*
X9452356Y3238500D01*
X9467850Y3243579D01*
X9488677Y3248660D01*
X9499091Y3253994D01*
X9504425Y3264407D01*
X9504425Y3274821D01*
X9499091Y3285236D01*
X9483597Y3290315D01*
X9462770Y3290315D01*
X9084919Y1713737D02*
G01*
X9074505Y1724152D01*
X9059011Y1729231D01*
X9038183Y1729231D01*
X9022689Y1724152D01*
X9012275Y1713737D01*
X9012275Y1703323D01*
X9017355Y1692910D01*
X9022689Y1687576D01*
X9033103Y1682495D01*
X9064345Y1672081D01*
X9074505Y1667002D01*
X9079839Y1661668D01*
X9084919Y1651254D01*
X9084919Y1635760D01*
X9074505Y1625345D01*
X9059011Y1620265D01*
X9038183Y1620265D01*
X9022689Y1625345D01*
X9012275Y1635760D01*
X9119209Y1729231D02*
G01*
X9145371Y1620265D01*
X9171279Y1729231D02*
G01*
X9145371Y1620265D01*
X9171279Y1729231D02*
G01*
X9197187Y1620265D01*
X9223095Y1729231D02*
G01*
X9197187Y1620265D01*
X9257385Y1708404D02*
G01*
X9267799Y1713737D01*
X9283547Y1729231D01*
X9283547Y1620265D01*
X9385401Y1692910D02*
G01*
X9380067Y1677415D01*
X9369653Y1667002D01*
X9354159Y1661668D01*
X9348825Y1661668D01*
X9333331Y1667002D01*
X9322917Y1677415D01*
X9317837Y1692910D01*
X9317837Y1697989D01*
X9322917Y1713737D01*
X9333331Y1724152D01*
X9348825Y1729231D01*
X9354159Y1729231D01*
X9369653Y1724152D01*
X9380067Y1713737D01*
X9385401Y1692910D01*
X9385401Y1667002D01*
X9380067Y1640839D01*
X9369653Y1625345D01*
X9354159Y1620265D01*
X9343745Y1620265D01*
X9328251Y1625345D01*
X9322917Y1635760D01*
X10969243Y6208521D02*
G01*
X10958829Y6218936D01*
X10943336Y6224015D01*
X10922508Y6224015D01*
X10907013Y6218936D01*
X10896600Y6208521D01*
X10896600Y6198107D01*
X10901679Y6187694D01*
X10907013Y6182360D01*
X10917427Y6177279D01*
X10948670Y6166865D01*
X10958829Y6161786D01*
X10964163Y6156452D01*
X10969243Y6146037D01*
X10969243Y6130544D01*
X10958829Y6120129D01*
X10943336Y6115050D01*
X10922508Y6115050D01*
X10907013Y6120129D01*
X10896600Y6130544D01*
X11003534Y6224015D02*
G01*
X11029695Y6115050D01*
X11055604Y6224015D02*
G01*
X11029695Y6115050D01*
X11055604Y6224015D02*
G01*
X11081511Y6115050D01*
X11107420Y6224015D02*
G01*
X11081511Y6115050D01*
X11147043Y6198107D02*
G01*
X11147043Y6203187D01*
X11152124Y6213602D01*
X11157458Y6218936D01*
X11167872Y6224015D01*
X11188700Y6224015D01*
X11198859Y6218936D01*
X11204193Y6213602D01*
X11209274Y6203187D01*
X11209274Y6192773D01*
X11204193Y6182360D01*
X11193779Y6166865D01*
X11141709Y6115050D01*
X11214608Y6115050D01*
X11248897Y6203187D02*
G01*
X11259311Y6208521D01*
X11274806Y6224015D01*
X11274806Y6115050D01*
X10969243Y4709921D02*
G01*
X10958829Y4720336D01*
X10943336Y4725415D01*
X10922508Y4725415D01*
X10907013Y4720336D01*
X10896600Y4709921D01*
X10896600Y4699507D01*
X10901679Y4689094D01*
X10907013Y4683760D01*
X10917427Y4678679D01*
X10948670Y4668265D01*
X10958829Y4663186D01*
X10964163Y4657852D01*
X10969243Y4647437D01*
X10969243Y4631944D01*
X10958829Y4621529D01*
X10943336Y4616450D01*
X10922508Y4616450D01*
X10907013Y4621529D01*
X10896600Y4631944D01*
X11003534Y4725415D02*
G01*
X11029695Y4616450D01*
X11055604Y4725415D02*
G01*
X11029695Y4616450D01*
X11055604Y4725415D02*
G01*
X11081511Y4616450D01*
X11107420Y4725415D02*
G01*
X11081511Y4616450D01*
X11147043Y4699507D02*
G01*
X11147043Y4704587D01*
X11152124Y4715002D01*
X11157458Y4720336D01*
X11167872Y4725415D01*
X11188700Y4725415D01*
X11198859Y4720336D01*
X11204193Y4715002D01*
X11209274Y4704587D01*
X11209274Y4694173D01*
X11204193Y4683760D01*
X11193779Y4668265D01*
X11141709Y4616450D01*
X11214608Y4616450D01*
X11253977Y4699507D02*
G01*
X11253977Y4704587D01*
X11259311Y4715002D01*
X11264391Y4720336D01*
X11274806Y4725415D01*
X11295634Y4725415D01*
X11306047Y4720336D01*
X11311127Y4715002D01*
X11316461Y4704587D01*
X11316461Y4694173D01*
X11311127Y4683760D01*
X11300713Y4668265D01*
X11248897Y4616450D01*
X11321541Y4616450D01*
X10981943Y3274821D02*
G01*
X10971529Y3285236D01*
X10956036Y3290315D01*
X10935208Y3290315D01*
X10919713Y3285236D01*
X10909300Y3274821D01*
X10909300Y3264407D01*
X10914379Y3253994D01*
X10919713Y3248660D01*
X10930127Y3243579D01*
X10961370Y3233165D01*
X10971529Y3228086D01*
X10976863Y3222752D01*
X10981943Y3212337D01*
X10981943Y3196844D01*
X10971529Y3186429D01*
X10956036Y3181350D01*
X10935208Y3181350D01*
X10919713Y3186429D01*
X10909300Y3196844D01*
X11016234Y3290315D02*
G01*
X11042395Y3181350D01*
X11068304Y3290315D02*
G01*
X11042395Y3181350D01*
X11068304Y3290315D02*
G01*
X11094211Y3181350D01*
X11120120Y3290315D02*
G01*
X11094211Y3181350D01*
X11159743Y3264407D02*
G01*
X11159743Y3269487D01*
X11164824Y3279902D01*
X11170158Y3285236D01*
X11180572Y3290315D01*
X11201400Y3290315D01*
X11211559Y3285236D01*
X11216893Y3279902D01*
X11221974Y3269487D01*
X11221974Y3259073D01*
X11216893Y3248660D01*
X11206479Y3233165D01*
X11154409Y3181350D01*
X11227308Y3181350D01*
X11272011Y3290315D02*
G01*
X11329161Y3290315D01*
X11297920Y3248660D01*
X11313413Y3248660D01*
X11323827Y3243579D01*
X11329161Y3238500D01*
X11334241Y3222752D01*
X11334241Y3212337D01*
X11329161Y3196844D01*
X11318747Y3186429D01*
X11303000Y3181350D01*
X11287506Y3181350D01*
X11272011Y3186429D01*
X11266677Y3191510D01*
X11261597Y3201923D01*
X10981943Y1725421D02*
G01*
X10971529Y1735836D01*
X10956036Y1740915D01*
X10935208Y1740915D01*
X10919713Y1735836D01*
X10909300Y1725421D01*
X10909300Y1715007D01*
X10914379Y1704594D01*
X10919713Y1699260D01*
X10930127Y1694179D01*
X10961370Y1683765D01*
X10971529Y1678686D01*
X10976863Y1673352D01*
X10981943Y1662937D01*
X10981943Y1647444D01*
X10971529Y1637029D01*
X10956036Y1631950D01*
X10935208Y1631950D01*
X10919713Y1637029D01*
X10909300Y1647444D01*
X11016234Y1740915D02*
G01*
X11042395Y1631950D01*
X11068304Y1740915D02*
G01*
X11042395Y1631950D01*
X11068304Y1740915D02*
G01*
X11094211Y1631950D01*
X11120120Y1740915D02*
G01*
X11094211Y1631950D01*
X11159743Y1715007D02*
G01*
X11159743Y1720087D01*
X11164824Y1730502D01*
X11170158Y1735836D01*
X11180572Y1740915D01*
X11201400Y1740915D01*
X11211559Y1735836D01*
X11216893Y1730502D01*
X11221974Y1720087D01*
X11221974Y1709673D01*
X11216893Y1699260D01*
X11206479Y1683765D01*
X11154409Y1631950D01*
X11227308Y1631950D01*
X11313413Y1740915D02*
G01*
X11261597Y1668271D01*
X11339575Y1668271D01*
X11313413Y1740915D02*
G01*
X11313413Y1631950D01*
X12759943Y6221221D02*
G01*
X12749529Y6231636D01*
X12734036Y6236715D01*
X12713208Y6236715D01*
X12697713Y6231636D01*
X12687300Y6221221D01*
X12687300Y6210807D01*
X12692379Y6200394D01*
X12697713Y6195060D01*
X12708127Y6189979D01*
X12739370Y6179565D01*
X12749529Y6174486D01*
X12754863Y6169152D01*
X12759943Y6158737D01*
X12759943Y6143244D01*
X12749529Y6132829D01*
X12734036Y6127750D01*
X12713208Y6127750D01*
X12697713Y6132829D01*
X12687300Y6143244D01*
X12794234Y6236715D02*
G01*
X12820395Y6127750D01*
X12846304Y6236715D02*
G01*
X12820395Y6127750D01*
X12846304Y6236715D02*
G01*
X12872211Y6127750D01*
X12898120Y6236715D02*
G01*
X12872211Y6127750D01*
X12937743Y6210807D02*
G01*
X12937743Y6215887D01*
X12942824Y6226302D01*
X12948158Y6231636D01*
X12958572Y6236715D01*
X12979400Y6236715D01*
X12989559Y6231636D01*
X12994893Y6226302D01*
X12999974Y6215887D01*
X12999974Y6205473D01*
X12994893Y6195060D01*
X12984479Y6179565D01*
X12932409Y6127750D01*
X13005308Y6127750D01*
X13101827Y6221221D02*
G01*
X13096747Y6231636D01*
X13081000Y6236715D01*
X13070840Y6236715D01*
X13055091Y6231636D01*
X13044677Y6215887D01*
X13039597Y6189979D01*
X13039597Y6164071D01*
X13044677Y6143244D01*
X13055091Y6132829D01*
X13070840Y6127750D01*
X13075920Y6127750D01*
X13091413Y6132829D01*
X13101827Y6143244D01*
X13107161Y6158737D01*
X13107161Y6164071D01*
X13101827Y6179565D01*
X13091413Y6189979D01*
X13075920Y6195060D01*
X13070840Y6195060D01*
X13055091Y6189979D01*
X13044677Y6179565D01*
X13039597Y6164071D01*
X12747243Y4709921D02*
G01*
X12736829Y4720336D01*
X12721336Y4725415D01*
X12700508Y4725415D01*
X12685013Y4720336D01*
X12674600Y4709921D01*
X12674600Y4699507D01*
X12679679Y4689094D01*
X12685013Y4683760D01*
X12695427Y4678679D01*
X12726670Y4668265D01*
X12736829Y4663186D01*
X12742163Y4657852D01*
X12747243Y4647437D01*
X12747243Y4631944D01*
X12736829Y4621529D01*
X12721336Y4616450D01*
X12700508Y4616450D01*
X12685013Y4621529D01*
X12674600Y4631944D01*
X12781534Y4725415D02*
G01*
X12807695Y4616450D01*
X12833604Y4725415D02*
G01*
X12807695Y4616450D01*
X12833604Y4725415D02*
G01*
X12859511Y4616450D01*
X12885420Y4725415D02*
G01*
X12859511Y4616450D01*
X12925043Y4699507D02*
G01*
X12925043Y4704587D01*
X12930124Y4715002D01*
X12935458Y4720336D01*
X12945872Y4725415D01*
X12966700Y4725415D01*
X12976859Y4720336D01*
X12982193Y4715002D01*
X12987274Y4704587D01*
X12987274Y4694173D01*
X12982193Y4683760D01*
X12971779Y4668265D01*
X12919709Y4616450D01*
X12992608Y4616450D01*
X13099541Y4725415D02*
G01*
X13047725Y4616450D01*
X13026897Y4725415D02*
G01*
X13099541Y4725415D01*
X12747243Y3287521D02*
G01*
X12736829Y3297936D01*
X12721336Y3303015D01*
X12700508Y3303015D01*
X12685013Y3297936D01*
X12674600Y3287521D01*
X12674600Y3277107D01*
X12679679Y3266694D01*
X12685013Y3261360D01*
X12695427Y3256279D01*
X12726670Y3245865D01*
X12736829Y3240786D01*
X12742163Y3235452D01*
X12747243Y3225037D01*
X12747243Y3209544D01*
X12736829Y3199129D01*
X12721336Y3194050D01*
X12700508Y3194050D01*
X12685013Y3199129D01*
X12674600Y3209544D01*
X12781534Y3303015D02*
G01*
X12807695Y3194050D01*
X12833604Y3303015D02*
G01*
X12807695Y3194050D01*
X12833604Y3303015D02*
G01*
X12859511Y3194050D01*
X12885420Y3303015D02*
G01*
X12859511Y3194050D01*
X12925043Y3277107D02*
G01*
X12925043Y3282187D01*
X12930124Y3292602D01*
X12935458Y3297936D01*
X12945872Y3303015D01*
X12966700Y3303015D01*
X12976859Y3297936D01*
X12982193Y3292602D01*
X12987274Y3282187D01*
X12987274Y3271773D01*
X12982193Y3261360D01*
X12971779Y3245865D01*
X12919709Y3194050D01*
X12992608Y3194050D01*
X13052806Y3303015D02*
G01*
X13037311Y3297936D01*
X13031977Y3287521D01*
X13031977Y3277107D01*
X13037311Y3266694D01*
X13047725Y3261360D01*
X13068300Y3256279D01*
X13084047Y3251200D01*
X13094461Y3240786D01*
X13099541Y3230371D01*
X13099541Y3214623D01*
X13094461Y3204210D01*
X13089127Y3199129D01*
X13073634Y3194050D01*
X13052806Y3194050D01*
X13037311Y3199129D01*
X13031977Y3204210D01*
X13026897Y3214623D01*
X13026897Y3230371D01*
X13031977Y3240786D01*
X13042391Y3251200D01*
X13058140Y3256279D01*
X13078713Y3261360D01*
X13089127Y3266694D01*
X13094461Y3277107D01*
X13094461Y3287521D01*
X13089127Y3297936D01*
X13073634Y3303015D01*
X13052806Y3303015D01*
X12759943Y1725421D02*
G01*
X12749529Y1735836D01*
X12734036Y1740915D01*
X12713208Y1740915D01*
X12697713Y1735836D01*
X12687300Y1725421D01*
X12687300Y1715007D01*
X12692379Y1704594D01*
X12697713Y1699260D01*
X12708127Y1694179D01*
X12739370Y1683765D01*
X12749529Y1678686D01*
X12754863Y1673352D01*
X12759943Y1662937D01*
X12759943Y1647444D01*
X12749529Y1637029D01*
X12734036Y1631950D01*
X12713208Y1631950D01*
X12697713Y1637029D01*
X12687300Y1647444D01*
X12794234Y1740915D02*
G01*
X12820395Y1631950D01*
X12846304Y1740915D02*
G01*
X12820395Y1631950D01*
X12846304Y1740915D02*
G01*
X12872211Y1631950D01*
X12898120Y1740915D02*
G01*
X12872211Y1631950D01*
X12937743Y1715007D02*
G01*
X12937743Y1720087D01*
X12942824Y1730502D01*
X12948158Y1735836D01*
X12958572Y1740915D01*
X12979400Y1740915D01*
X12989559Y1735836D01*
X12994893Y1730502D01*
X12999974Y1720087D01*
X12999974Y1709673D01*
X12994893Y1699260D01*
X12984479Y1683765D01*
X12932409Y1631950D01*
X13005308Y1631950D01*
X13107161Y1704594D02*
G01*
X13101827Y1689100D01*
X13091413Y1678686D01*
X13075920Y1673352D01*
X13070840Y1673352D01*
X13055091Y1678686D01*
X13044677Y1689100D01*
X13039597Y1704594D01*
X13039597Y1709673D01*
X13044677Y1725421D01*
X13055091Y1735836D01*
X13070840Y1740915D01*
X13075920Y1740915D01*
X13091413Y1735836D01*
X13101827Y1725421D01*
X13107161Y1704594D01*
X13107161Y1678686D01*
X13101827Y1652523D01*
X13091413Y1637029D01*
X13075920Y1631950D01*
X13065506Y1631950D01*
X13050011Y1637029D01*
X13044677Y1647444D01*
X14537943Y6221221D02*
G01*
X14527529Y6231636D01*
X14512036Y6236715D01*
X14491208Y6236715D01*
X14475713Y6231636D01*
X14465300Y6221221D01*
X14465300Y6210807D01*
X14470379Y6200394D01*
X14475713Y6195060D01*
X14486127Y6189979D01*
X14517370Y6179565D01*
X14527529Y6174486D01*
X14532863Y6169152D01*
X14537943Y6158737D01*
X14537943Y6143244D01*
X14527529Y6132829D01*
X14512036Y6127750D01*
X14491208Y6127750D01*
X14475713Y6132829D01*
X14465300Y6143244D01*
X14572234Y6236715D02*
G01*
X14598395Y6127750D01*
X14624304Y6236715D02*
G01*
X14598395Y6127750D01*
X14624304Y6236715D02*
G01*
X14650211Y6127750D01*
X14676120Y6236715D02*
G01*
X14650211Y6127750D01*
X14720824Y6236715D02*
G01*
X14777974Y6236715D01*
X14746986Y6195060D01*
X14762479Y6195060D01*
X14772893Y6189979D01*
X14777974Y6184900D01*
X14783308Y6169152D01*
X14783308Y6158737D01*
X14777974Y6143244D01*
X14767559Y6132829D01*
X14752066Y6127750D01*
X14736572Y6127750D01*
X14720824Y6132829D01*
X14715743Y6137910D01*
X14710409Y6148323D01*
X14817597Y6215887D02*
G01*
X14828011Y6221221D01*
X14843506Y6236715D01*
X14843506Y6127750D01*
X14537943Y4709921D02*
G01*
X14527529Y4720336D01*
X14512036Y4725415D01*
X14491208Y4725415D01*
X14475713Y4720336D01*
X14465300Y4709921D01*
X14465300Y4699507D01*
X14470379Y4689094D01*
X14475713Y4683760D01*
X14486127Y4678679D01*
X14517370Y4668265D01*
X14527529Y4663186D01*
X14532863Y4657852D01*
X14537943Y4647437D01*
X14537943Y4631944D01*
X14527529Y4621529D01*
X14512036Y4616450D01*
X14491208Y4616450D01*
X14475713Y4621529D01*
X14465300Y4631944D01*
X14572234Y4725415D02*
G01*
X14598395Y4616450D01*
X14624304Y4725415D02*
G01*
X14598395Y4616450D01*
X14624304Y4725415D02*
G01*
X14650211Y4616450D01*
X14676120Y4725415D02*
G01*
X14650211Y4616450D01*
X14720824Y4725415D02*
G01*
X14777974Y4725415D01*
X14746986Y4683760D01*
X14762479Y4683760D01*
X14772893Y4678679D01*
X14777974Y4673600D01*
X14783308Y4657852D01*
X14783308Y4647437D01*
X14777974Y4631944D01*
X14767559Y4621529D01*
X14752066Y4616450D01*
X14736572Y4616450D01*
X14720824Y4621529D01*
X14715743Y4626610D01*
X14710409Y4637023D01*
X14822677Y4699507D02*
G01*
X14822677Y4704587D01*
X14828011Y4715002D01*
X14833091Y4720336D01*
X14843506Y4725415D01*
X14864334Y4725415D01*
X14874747Y4720336D01*
X14879827Y4715002D01*
X14885161Y4704587D01*
X14885161Y4694173D01*
X14879827Y4683760D01*
X14869413Y4668265D01*
X14817597Y4616450D01*
X14890241Y4616450D01*
X14525243Y3287521D02*
G01*
X14514829Y3297936D01*
X14499336Y3303015D01*
X14478508Y3303015D01*
X14463013Y3297936D01*
X14452600Y3287521D01*
X14452600Y3277107D01*
X14457679Y3266694D01*
X14463013Y3261360D01*
X14473427Y3256279D01*
X14504670Y3245865D01*
X14514829Y3240786D01*
X14520163Y3235452D01*
X14525243Y3225037D01*
X14525243Y3209544D01*
X14514829Y3199129D01*
X14499336Y3194050D01*
X14478508Y3194050D01*
X14463013Y3199129D01*
X14452600Y3209544D01*
X14559534Y3303015D02*
G01*
X14585695Y3194050D01*
X14611604Y3303015D02*
G01*
X14585695Y3194050D01*
X14611604Y3303015D02*
G01*
X14637511Y3194050D01*
X14663420Y3303015D02*
G01*
X14637511Y3194050D01*
X14708124Y3303015D02*
G01*
X14765274Y3303015D01*
X14734286Y3261360D01*
X14749779Y3261360D01*
X14760193Y3256279D01*
X14765274Y3251200D01*
X14770608Y3235452D01*
X14770608Y3225037D01*
X14765274Y3209544D01*
X14754859Y3199129D01*
X14739366Y3194050D01*
X14723872Y3194050D01*
X14708124Y3199129D01*
X14703043Y3204210D01*
X14697709Y3214623D01*
X14815311Y3303015D02*
G01*
X14872461Y3303015D01*
X14841220Y3261360D01*
X14856713Y3261360D01*
X14867127Y3256279D01*
X14872461Y3251200D01*
X14877541Y3235452D01*
X14877541Y3225037D01*
X14872461Y3209544D01*
X14862047Y3199129D01*
X14846300Y3194050D01*
X14830806Y3194050D01*
X14815311Y3199129D01*
X14809977Y3204210D01*
X14804897Y3214623D01*
X14537943Y1738121D02*
G01*
X14527529Y1748536D01*
X14512036Y1753615D01*
X14491208Y1753615D01*
X14475713Y1748536D01*
X14465300Y1738121D01*
X14465300Y1727707D01*
X14470379Y1717294D01*
X14475713Y1711960D01*
X14486127Y1706879D01*
X14517370Y1696465D01*
X14527529Y1691386D01*
X14532863Y1686052D01*
X14537943Y1675637D01*
X14537943Y1660144D01*
X14527529Y1649729D01*
X14512036Y1644650D01*
X14491208Y1644650D01*
X14475713Y1649729D01*
X14465300Y1660144D01*
X14572234Y1753615D02*
G01*
X14598395Y1644650D01*
X14624304Y1753615D02*
G01*
X14598395Y1644650D01*
X14624304Y1753615D02*
G01*
X14650211Y1644650D01*
X14676120Y1753615D02*
G01*
X14650211Y1644650D01*
X14720824Y1753615D02*
G01*
X14777974Y1753615D01*
X14746986Y1711960D01*
X14762479Y1711960D01*
X14772893Y1706879D01*
X14777974Y1701800D01*
X14783308Y1686052D01*
X14783308Y1675637D01*
X14777974Y1660144D01*
X14767559Y1649729D01*
X14752066Y1644650D01*
X14736572Y1644650D01*
X14720824Y1649729D01*
X14715743Y1654810D01*
X14710409Y1665223D01*
X14869413Y1753615D02*
G01*
X14817597Y1680971D01*
X14895575Y1680971D01*
X14869413Y1753615D02*
G01*
X14869413Y1644650D01*
X16303243Y6221221D02*
G01*
X16292829Y6231636D01*
X16277336Y6236715D01*
X16256508Y6236715D01*
X16241013Y6231636D01*
X16230600Y6221221D01*
X16230600Y6210807D01*
X16235679Y6200394D01*
X16241013Y6195060D01*
X16251427Y6189979D01*
X16282670Y6179565D01*
X16292829Y6174486D01*
X16298163Y6169152D01*
X16303243Y6158737D01*
X16303243Y6143244D01*
X16292829Y6132829D01*
X16277336Y6127750D01*
X16256508Y6127750D01*
X16241013Y6132829D01*
X16230600Y6143244D01*
X16337534Y6236715D02*
G01*
X16363695Y6127750D01*
X16389604Y6236715D02*
G01*
X16363695Y6127750D01*
X16389604Y6236715D02*
G01*
X16415511Y6127750D01*
X16441420Y6236715D02*
G01*
X16415511Y6127750D01*
X16486124Y6236715D02*
G01*
X16543274Y6236715D01*
X16512286Y6195060D01*
X16527779Y6195060D01*
X16538193Y6189979D01*
X16543274Y6184900D01*
X16548608Y6169152D01*
X16548608Y6158737D01*
X16543274Y6143244D01*
X16532859Y6132829D01*
X16517366Y6127750D01*
X16501872Y6127750D01*
X16486124Y6132829D01*
X16481043Y6137910D01*
X16475709Y6148323D01*
X16645127Y6221221D02*
G01*
X16640047Y6231636D01*
X16624300Y6236715D01*
X16614140Y6236715D01*
X16598391Y6231636D01*
X16587977Y6215887D01*
X16582897Y6189979D01*
X16582897Y6164071D01*
X16587977Y6143244D01*
X16598391Y6132829D01*
X16614140Y6127750D01*
X16619220Y6127750D01*
X16634713Y6132829D01*
X16645127Y6143244D01*
X16650461Y6158737D01*
X16650461Y6164071D01*
X16645127Y6179565D01*
X16634713Y6189979D01*
X16619220Y6195060D01*
X16614140Y6195060D01*
X16598391Y6189979D01*
X16587977Y6179565D01*
X16582897Y6164071D01*
X16315943Y4709921D02*
G01*
X16305529Y4720336D01*
X16290036Y4725415D01*
X16269208Y4725415D01*
X16253713Y4720336D01*
X16243300Y4709921D01*
X16243300Y4699507D01*
X16248379Y4689094D01*
X16253713Y4683760D01*
X16264127Y4678679D01*
X16295370Y4668265D01*
X16305529Y4663186D01*
X16310863Y4657852D01*
X16315943Y4647437D01*
X16315943Y4631944D01*
X16305529Y4621529D01*
X16290036Y4616450D01*
X16269208Y4616450D01*
X16253713Y4621529D01*
X16243300Y4631944D01*
X16350234Y4725415D02*
G01*
X16376395Y4616450D01*
X16402304Y4725415D02*
G01*
X16376395Y4616450D01*
X16402304Y4725415D02*
G01*
X16428211Y4616450D01*
X16454120Y4725415D02*
G01*
X16428211Y4616450D01*
X16498824Y4725415D02*
G01*
X16555974Y4725415D01*
X16524986Y4683760D01*
X16540479Y4683760D01*
X16550893Y4678679D01*
X16555974Y4673600D01*
X16561308Y4657852D01*
X16561308Y4647437D01*
X16555974Y4631944D01*
X16545559Y4621529D01*
X16530066Y4616450D01*
X16514572Y4616450D01*
X16498824Y4621529D01*
X16493743Y4626610D01*
X16488409Y4637023D01*
X16668241Y4725415D02*
G01*
X16616425Y4616450D01*
X16595597Y4725415D02*
G01*
X16668241Y4725415D01*
X16315943Y3287521D02*
G01*
X16305529Y3297936D01*
X16290036Y3303015D01*
X16269208Y3303015D01*
X16253713Y3297936D01*
X16243300Y3287521D01*
X16243300Y3277107D01*
X16248379Y3266694D01*
X16253713Y3261360D01*
X16264127Y3256279D01*
X16295370Y3245865D01*
X16305529Y3240786D01*
X16310863Y3235452D01*
X16315943Y3225037D01*
X16315943Y3209544D01*
X16305529Y3199129D01*
X16290036Y3194050D01*
X16269208Y3194050D01*
X16253713Y3199129D01*
X16243300Y3209544D01*
X16350234Y3303015D02*
G01*
X16376395Y3194050D01*
X16402304Y3303015D02*
G01*
X16376395Y3194050D01*
X16402304Y3303015D02*
G01*
X16428211Y3194050D01*
X16454120Y3303015D02*
G01*
X16428211Y3194050D01*
X16498824Y3303015D02*
G01*
X16555974Y3303015D01*
X16524986Y3261360D01*
X16540479Y3261360D01*
X16550893Y3256279D01*
X16555974Y3251200D01*
X16561308Y3235452D01*
X16561308Y3225037D01*
X16555974Y3209544D01*
X16545559Y3199129D01*
X16530066Y3194050D01*
X16514572Y3194050D01*
X16498824Y3199129D01*
X16493743Y3204210D01*
X16488409Y3214623D01*
X16621506Y3303015D02*
G01*
X16606011Y3297936D01*
X16600677Y3287521D01*
X16600677Y3277107D01*
X16606011Y3266694D01*
X16616425Y3261360D01*
X16637000Y3256279D01*
X16652747Y3251200D01*
X16663161Y3240786D01*
X16668241Y3230371D01*
X16668241Y3214623D01*
X16663161Y3204210D01*
X16657827Y3199129D01*
X16642334Y3194050D01*
X16621506Y3194050D01*
X16606011Y3199129D01*
X16600677Y3204210D01*
X16595597Y3214623D01*
X16595597Y3230371D01*
X16600677Y3240786D01*
X16611091Y3251200D01*
X16626840Y3256279D01*
X16647413Y3261360D01*
X16657827Y3266694D01*
X16663161Y3277107D01*
X16663161Y3287521D01*
X16657827Y3297936D01*
X16642334Y3303015D01*
X16621506Y3303015D01*
X16315943Y1738121D02*
G01*
X16305529Y1748536D01*
X16290036Y1753615D01*
X16269208Y1753615D01*
X16253713Y1748536D01*
X16243300Y1738121D01*
X16243300Y1727707D01*
X16248379Y1717294D01*
X16253713Y1711960D01*
X16264127Y1706879D01*
X16295370Y1696465D01*
X16305529Y1691386D01*
X16310863Y1686052D01*
X16315943Y1675637D01*
X16315943Y1660144D01*
X16305529Y1649729D01*
X16290036Y1644650D01*
X16269208Y1644650D01*
X16253713Y1649729D01*
X16243300Y1660144D01*
X16350234Y1753615D02*
G01*
X16376395Y1644650D01*
X16402304Y1753615D02*
G01*
X16376395Y1644650D01*
X16402304Y1753615D02*
G01*
X16428211Y1644650D01*
X16454120Y1753615D02*
G01*
X16428211Y1644650D01*
X16498824Y1753615D02*
G01*
X16555974Y1753615D01*
X16524986Y1711960D01*
X16540479Y1711960D01*
X16550893Y1706879D01*
X16555974Y1701800D01*
X16561308Y1686052D01*
X16561308Y1675637D01*
X16555974Y1660144D01*
X16545559Y1649729D01*
X16530066Y1644650D01*
X16514572Y1644650D01*
X16498824Y1649729D01*
X16493743Y1654810D01*
X16488409Y1665223D01*
X16663161Y1717294D02*
G01*
X16657827Y1701800D01*
X16647413Y1691386D01*
X16631920Y1686052D01*
X16626840Y1686052D01*
X16611091Y1691386D01*
X16600677Y1701800D01*
X16595597Y1717294D01*
X16595597Y1722373D01*
X16600677Y1738121D01*
X16611091Y1748536D01*
X16626840Y1753615D01*
X16631920Y1753615D01*
X16647413Y1748536D01*
X16657827Y1738121D01*
X16663161Y1717294D01*
X16663161Y1691386D01*
X16657827Y1665223D01*
X16647413Y1649729D01*
X16631920Y1644650D01*
X16621506Y1644650D01*
X16606011Y1649729D01*
X16600677Y1660144D01*
X18081243Y6221221D02*
G01*
X18070829Y6231636D01*
X18055336Y6236715D01*
X18034508Y6236715D01*
X18019013Y6231636D01*
X18008600Y6221221D01*
X18008600Y6210807D01*
X18013679Y6200394D01*
X18019013Y6195060D01*
X18029427Y6189979D01*
X18060670Y6179565D01*
X18070829Y6174486D01*
X18076163Y6169152D01*
X18081243Y6158737D01*
X18081243Y6143244D01*
X18070829Y6132829D01*
X18055336Y6127750D01*
X18034508Y6127750D01*
X18019013Y6132829D01*
X18008600Y6143244D01*
X18115534Y6236715D02*
G01*
X18141695Y6127750D01*
X18167604Y6236715D02*
G01*
X18141695Y6127750D01*
X18167604Y6236715D02*
G01*
X18193511Y6127750D01*
X18219420Y6236715D02*
G01*
X18193511Y6127750D01*
X18305779Y6236715D02*
G01*
X18253709Y6164071D01*
X18331688Y6164071D01*
X18305779Y6236715D02*
G01*
X18305779Y6127750D01*
X18365977Y6215887D02*
G01*
X18376391Y6221221D01*
X18392140Y6236715D01*
X18392140Y6127750D01*
X18081243Y4709921D02*
G01*
X18070829Y4720336D01*
X18055336Y4725415D01*
X18034508Y4725415D01*
X18019013Y4720336D01*
X18008600Y4709921D01*
X18008600Y4699507D01*
X18013679Y4689094D01*
X18019013Y4683760D01*
X18029427Y4678679D01*
X18060670Y4668265D01*
X18070829Y4663186D01*
X18076163Y4657852D01*
X18081243Y4647437D01*
X18081243Y4631944D01*
X18070829Y4621529D01*
X18055336Y4616450D01*
X18034508Y4616450D01*
X18019013Y4621529D01*
X18008600Y4631944D01*
X18115534Y4725415D02*
G01*
X18141695Y4616450D01*
X18167604Y4725415D02*
G01*
X18141695Y4616450D01*
X18167604Y4725415D02*
G01*
X18193511Y4616450D01*
X18219420Y4725415D02*
G01*
X18193511Y4616450D01*
X18305779Y4725415D02*
G01*
X18253709Y4652771D01*
X18331688Y4652771D01*
X18305779Y4725415D02*
G01*
X18305779Y4616450D01*
X18371311Y4699507D02*
G01*
X18371311Y4704587D01*
X18376391Y4715002D01*
X18381725Y4720336D01*
X18392140Y4725415D01*
X18412713Y4725415D01*
X18423127Y4720336D01*
X18428461Y4715002D01*
X18433541Y4704587D01*
X18433541Y4694173D01*
X18428461Y4683760D01*
X18418048Y4668265D01*
X18365977Y4616450D01*
X18438875Y4616450D01*
X18093943Y3287521D02*
G01*
X18083529Y3297936D01*
X18068036Y3303015D01*
X18047208Y3303015D01*
X18031713Y3297936D01*
X18021300Y3287521D01*
X18021300Y3277107D01*
X18026379Y3266694D01*
X18031713Y3261360D01*
X18042127Y3256279D01*
X18073370Y3245865D01*
X18083529Y3240786D01*
X18088863Y3235452D01*
X18093943Y3225037D01*
X18093943Y3209544D01*
X18083529Y3199129D01*
X18068036Y3194050D01*
X18047208Y3194050D01*
X18031713Y3199129D01*
X18021300Y3209544D01*
X18128234Y3303015D02*
G01*
X18154395Y3194050D01*
X18180304Y3303015D02*
G01*
X18154395Y3194050D01*
X18180304Y3303015D02*
G01*
X18206211Y3194050D01*
X18232120Y3303015D02*
G01*
X18206211Y3194050D01*
X18318479Y3303015D02*
G01*
X18266409Y3230371D01*
X18344388Y3230371D01*
X18318479Y3303015D02*
G01*
X18318479Y3194050D01*
X18389091Y3303015D02*
G01*
X18446241Y3303015D01*
X18415000Y3261360D01*
X18430748Y3261360D01*
X18441161Y3256279D01*
X18446241Y3251200D01*
X18451575Y3235452D01*
X18451575Y3225037D01*
X18446241Y3209544D01*
X18435827Y3199129D01*
X18420334Y3194050D01*
X18404840Y3194050D01*
X18389091Y3199129D01*
X18384011Y3204210D01*
X18378677Y3214623D01*
X18093943Y1750821D02*
G01*
X18083529Y1761236D01*
X18068036Y1766315D01*
X18047208Y1766315D01*
X18031713Y1761236D01*
X18021300Y1750821D01*
X18021300Y1740407D01*
X18026379Y1729994D01*
X18031713Y1724660D01*
X18042127Y1719579D01*
X18073370Y1709165D01*
X18083529Y1704086D01*
X18088863Y1698752D01*
X18093943Y1688337D01*
X18093943Y1672844D01*
X18083529Y1662429D01*
X18068036Y1657350D01*
X18047208Y1657350D01*
X18031713Y1662429D01*
X18021300Y1672844D01*
X18128234Y1766315D02*
G01*
X18154395Y1657350D01*
X18180304Y1766315D02*
G01*
X18154395Y1657350D01*
X18180304Y1766315D02*
G01*
X18206211Y1657350D01*
X18232120Y1766315D02*
G01*
X18206211Y1657350D01*
X18318479Y1766315D02*
G01*
X18266409Y1693671D01*
X18344388Y1693671D01*
X18318479Y1766315D02*
G01*
X18318479Y1657350D01*
X18430748Y1766315D02*
G01*
X18378677Y1693671D01*
X18456656Y1693671D01*
X18430748Y1766315D02*
G01*
X18430748Y1657350D01*
X19871943Y6208521D02*
G01*
X19861529Y6218936D01*
X19846036Y6224015D01*
X19825208Y6224015D01*
X19809713Y6218936D01*
X19799300Y6208521D01*
X19799300Y6198107D01*
X19804379Y6187694D01*
X19809713Y6182360D01*
X19820127Y6177279D01*
X19851370Y6166865D01*
X19861529Y6161786D01*
X19866863Y6156452D01*
X19871943Y6146037D01*
X19871943Y6130544D01*
X19861529Y6120129D01*
X19846036Y6115050D01*
X19825208Y6115050D01*
X19809713Y6120129D01*
X19799300Y6130544D01*
X19906234Y6224015D02*
G01*
X19932395Y6115050D01*
X19958304Y6224015D02*
G01*
X19932395Y6115050D01*
X19958304Y6224015D02*
G01*
X19984211Y6115050D01*
X20010120Y6224015D02*
G01*
X19984211Y6115050D01*
X20096479Y6224015D02*
G01*
X20044409Y6151371D01*
X20122388Y6151371D01*
X20096479Y6224015D02*
G01*
X20096479Y6115050D01*
X20219161Y6208521D02*
G01*
X20213827Y6218936D01*
X20198334Y6224015D01*
X20187920Y6224015D01*
X20172425Y6218936D01*
X20162011Y6203187D01*
X20156677Y6177279D01*
X20156677Y6151371D01*
X20162011Y6130544D01*
X20172425Y6120129D01*
X20187920Y6115050D01*
X20193000Y6115050D01*
X20208748Y6120129D01*
X20219161Y6130544D01*
X20224241Y6146037D01*
X20224241Y6151371D01*
X20219161Y6166865D01*
X20208748Y6177279D01*
X20193000Y6182360D01*
X20187920Y6182360D01*
X20172425Y6177279D01*
X20162011Y6166865D01*
X20156677Y6151371D01*
X19859243Y4709921D02*
G01*
X19848829Y4720336D01*
X19833336Y4725415D01*
X19812508Y4725415D01*
X19797013Y4720336D01*
X19786600Y4709921D01*
X19786600Y4699507D01*
X19791679Y4689094D01*
X19797013Y4683760D01*
X19807427Y4678679D01*
X19838670Y4668265D01*
X19848829Y4663186D01*
X19854163Y4657852D01*
X19859243Y4647437D01*
X19859243Y4631944D01*
X19848829Y4621529D01*
X19833336Y4616450D01*
X19812508Y4616450D01*
X19797013Y4621529D01*
X19786600Y4631944D01*
X19893534Y4725415D02*
G01*
X19919695Y4616450D01*
X19945604Y4725415D02*
G01*
X19919695Y4616450D01*
X19945604Y4725415D02*
G01*
X19971511Y4616450D01*
X19997420Y4725415D02*
G01*
X19971511Y4616450D01*
X20083779Y4725415D02*
G01*
X20031709Y4652771D01*
X20109688Y4652771D01*
X20083779Y4725415D02*
G01*
X20083779Y4616450D01*
X20216875Y4725415D02*
G01*
X20164806Y4616450D01*
X20143977Y4725415D02*
G01*
X20216875Y4725415D01*
X19859243Y3287521D02*
G01*
X19848829Y3297936D01*
X19833336Y3303015D01*
X19812508Y3303015D01*
X19797013Y3297936D01*
X19786600Y3287521D01*
X19786600Y3277107D01*
X19791679Y3266694D01*
X19797013Y3261360D01*
X19807427Y3256279D01*
X19838670Y3245865D01*
X19848829Y3240786D01*
X19854163Y3235452D01*
X19859243Y3225037D01*
X19859243Y3209544D01*
X19848829Y3199129D01*
X19833336Y3194050D01*
X19812508Y3194050D01*
X19797013Y3199129D01*
X19786600Y3209544D01*
X19893534Y3303015D02*
G01*
X19919695Y3194050D01*
X19945604Y3303015D02*
G01*
X19919695Y3194050D01*
X19945604Y3303015D02*
G01*
X19971511Y3194050D01*
X19997420Y3303015D02*
G01*
X19971511Y3194050D01*
X20083779Y3303015D02*
G01*
X20031709Y3230371D01*
X20109688Y3230371D01*
X20083779Y3303015D02*
G01*
X20083779Y3194050D01*
X20170140Y3303015D02*
G01*
X20154391Y3297936D01*
X20149311Y3287521D01*
X20149311Y3277107D01*
X20154391Y3266694D01*
X20164806Y3261360D01*
X20185634Y3256279D01*
X20201127Y3251200D01*
X20211541Y3240786D01*
X20216875Y3230371D01*
X20216875Y3214623D01*
X20211541Y3204210D01*
X20206461Y3199129D01*
X20190713Y3194050D01*
X20170140Y3194050D01*
X20154391Y3199129D01*
X20149311Y3204210D01*
X20143977Y3214623D01*
X20143977Y3230371D01*
X20149311Y3240786D01*
X20159725Y3251200D01*
X20175220Y3256279D01*
X20196048Y3261360D01*
X20206461Y3266694D01*
X20211541Y3277107D01*
X20211541Y3287521D01*
X20206461Y3297936D01*
X20190713Y3303015D01*
X20170140Y3303015D01*
X19859243Y1763521D02*
G01*
X19848829Y1773936D01*
X19833336Y1779015D01*
X19812508Y1779015D01*
X19797013Y1773936D01*
X19786600Y1763521D01*
X19786600Y1753107D01*
X19791679Y1742694D01*
X19797013Y1737360D01*
X19807427Y1732279D01*
X19838670Y1721865D01*
X19848829Y1716786D01*
X19854163Y1711452D01*
X19859243Y1701037D01*
X19859243Y1685544D01*
X19848829Y1675129D01*
X19833336Y1670050D01*
X19812508Y1670050D01*
X19797013Y1675129D01*
X19786600Y1685544D01*
X19893534Y1779015D02*
G01*
X19919695Y1670050D01*
X19945604Y1779015D02*
G01*
X19919695Y1670050D01*
X19945604Y1779015D02*
G01*
X19971511Y1670050D01*
X19997420Y1779015D02*
G01*
X19971511Y1670050D01*
X20083779Y1779015D02*
G01*
X20031709Y1706371D01*
X20109688Y1706371D01*
X20083779Y1779015D02*
G01*
X20083779Y1670050D01*
X20211541Y1742694D02*
G01*
X20206461Y1727200D01*
X20196048Y1716786D01*
X20180300Y1711452D01*
X20175220Y1711452D01*
X20159725Y1716786D01*
X20149311Y1727200D01*
X20143977Y1742694D01*
X20143977Y1747773D01*
X20149311Y1763521D01*
X20159725Y1773936D01*
X20175220Y1779015D01*
X20180300Y1779015D01*
X20196048Y1773936D01*
X20206461Y1763521D01*
X20211541Y1742694D01*
X20211541Y1716786D01*
X20206461Y1690623D01*
X20196048Y1675129D01*
X20180300Y1670050D01*
X20170140Y1670050D01*
X20154391Y1675129D01*
X20149311Y1685544D01*
X867155Y2046478D02*
G01*
X877570Y2036063D01*
X893063Y2030984D01*
X913892Y2030984D01*
X929386Y2036063D01*
X939800Y2046478D01*
X939800Y2056892D01*
X934720Y2067305D01*
X929386Y2072639D01*
X918971Y2077720D01*
X887729Y2088134D01*
X877570Y2093213D01*
X872236Y2098547D01*
X867155Y2108962D01*
X867155Y2124455D01*
X877570Y2134870D01*
X893063Y2139950D01*
X913892Y2139950D01*
X929386Y2134870D01*
X939800Y2124455D01*
X780795Y2030984D02*
G01*
X780795Y2114042D01*
X786129Y2129789D01*
X791210Y2134870D01*
X801623Y2139950D01*
X812037Y2139950D01*
X822452Y2134870D01*
X827531Y2129789D01*
X832865Y2114042D01*
X832865Y2103628D01*
X746505Y2051812D02*
G01*
X736092Y2046478D01*
X720597Y2030984D01*
X720597Y2139950D01*
X1354124Y3312401D02*
G01*
X1410218Y3258233D01*
X1424891Y3251123D01*
X1439616Y3251382D01*
X1454210Y3259183D01*
X1461447Y3266673D01*
X1468554Y3281347D01*
X1468297Y3296071D01*
X1460680Y3310488D01*
X1404586Y3364659D01*
X1443390Y3374854D02*
G01*
X1446786Y3386051D01*
X1446583Y3408144D01*
X1524965Y3332449D01*
X2781300Y5713984D02*
G01*
X2781300Y5791962D01*
X2776220Y5807455D01*
X2765806Y5817870D01*
X2750058Y5822950D01*
X2739643Y5822950D01*
X2724150Y5817870D01*
X2713736Y5807455D01*
X2708656Y5791962D01*
X2708656Y5713984D01*
X2601468Y5729478D02*
G01*
X2611881Y5719063D01*
X2627629Y5713984D01*
X2648204Y5713984D01*
X2663952Y5719063D01*
X2674365Y5729478D01*
X2674365Y5739892D01*
X2669031Y5750305D01*
X2663952Y5755639D01*
X2653538Y5760720D01*
X2622295Y5771134D01*
X2611881Y5776213D01*
X2606802Y5781547D01*
X2601468Y5791962D01*
X2601468Y5807455D01*
X2611881Y5817870D01*
X2627629Y5822950D01*
X2648204Y5822950D01*
X2663952Y5817870D01*
X2674365Y5807455D01*
X2567177Y5713984D02*
G01*
X2567177Y5822950D01*
X2567177Y5713984D02*
G01*
X2520441Y5713984D01*
X2504947Y5719063D01*
X2499613Y5724397D01*
X2494534Y5734812D01*
X2494534Y5745226D01*
X2499613Y5755639D01*
X2504947Y5760720D01*
X2520441Y5765800D01*
X2567177Y5765800D02*
G01*
X2520441Y5765800D01*
X2504947Y5771134D01*
X2499613Y5776213D01*
X2494534Y5786628D01*
X2494534Y5802376D01*
X2499613Y5812789D01*
X2504947Y5817870D01*
X2520441Y5822950D01*
X2567177Y5822950D01*
X2460243Y5734812D02*
G01*
X2449829Y5729478D01*
X2434336Y5713984D01*
X2434336Y5822950D01*
X1739900Y4494784D02*
G01*
X1698244Y4546600D01*
X1698244Y4603750D01*
X1656842Y4494784D02*
G01*
X1698244Y4546600D01*
X1622552Y4515612D02*
G01*
X1612137Y4510278D01*
X1596389Y4494784D01*
X1596389Y4603750D01*
D10*
X4643120Y5730239D02*
G01*
X4643120Y5572760D01*
X4526279Y5572760D02*
G01*
X4526279Y5730239D01*
X4635500Y5681979D02*
G01*
X4533900Y5681979D01*
X4681220Y4231639D02*
G01*
X4681220Y4074160D01*
X4564379Y4074160D02*
G01*
X4564379Y4231639D01*
X4673600Y4183379D02*
G01*
X4572000Y4183379D01*
X4655820Y2796539D02*
G01*
X4655820Y2639060D01*
X4538979Y2639060D02*
G01*
X4538979Y2796539D01*
X4648200Y2748279D02*
G01*
X4546600Y2748279D01*
X4668520Y1259839D02*
G01*
X4668520Y1102360D01*
X4551679Y1102360D02*
G01*
X4551679Y1259839D01*
X4660900Y1211579D02*
G01*
X4559300Y1211579D01*
X6535420Y5730239D02*
G01*
X6535420Y5572760D01*
X6418579Y5572760D02*
G01*
X6418579Y5730239D01*
X6527800Y5681979D02*
G01*
X6426200Y5681979D01*
X6560820Y4244339D02*
G01*
X6560820Y4086860D01*
X6443979Y4086860D02*
G01*
X6443979Y4244339D01*
X6553200Y4196079D02*
G01*
X6451600Y4196079D01*
X6522720Y2809239D02*
G01*
X6522720Y2651760D01*
X6405879Y2651760D02*
G01*
X6405879Y2809239D01*
X6515100Y2760979D02*
G01*
X6413500Y2760979D01*
X6484620Y1259839D02*
G01*
X6484620Y1102360D01*
X6367779Y1102360D02*
G01*
X6367779Y1259839D01*
X6477000Y1211579D02*
G01*
X6375400Y1211579D01*
X8300720Y5730239D02*
G01*
X8300720Y5572760D01*
X8183879Y5572760D02*
G01*
X8183879Y5730239D01*
X8293100Y5681979D02*
G01*
X8191500Y5681979D01*
X8275320Y4244339D02*
G01*
X8275320Y4086860D01*
X8158479Y4086860D02*
G01*
X8158479Y4244339D01*
X8267700Y4196079D02*
G01*
X8166100Y4196079D01*
X8275320Y2796539D02*
G01*
X8275320Y2639060D01*
X8158479Y2639060D02*
G01*
X8158479Y2796539D01*
X8267700Y2748279D02*
G01*
X8166100Y2748279D01*
X8300720Y1259839D02*
G01*
X8300720Y1102360D01*
X8183879Y1102360D02*
G01*
X8183879Y1259839D01*
X8293100Y1211579D02*
G01*
X8191500Y1211579D01*
X10053320Y5717539D02*
G01*
X10053320Y5560060D01*
X9936479Y5560060D02*
G01*
X9936479Y5717539D01*
X10045700Y5669279D02*
G01*
X9944100Y5669279D01*
X10116820Y4244339D02*
G01*
X10116820Y4086860D01*
X9999979Y4086860D02*
G01*
X9999979Y4244339D01*
X10109200Y4196079D02*
G01*
X10007600Y4196079D01*
X10091420Y2809239D02*
G01*
X10091420Y2651760D01*
X9974579Y2651760D02*
G01*
X9974579Y2809239D01*
X10083800Y2760979D02*
G01*
X9982200Y2760979D01*
X10091420Y1234439D02*
G01*
X10091420Y1076960D01*
X9974579Y1076960D02*
G01*
X9974579Y1234439D01*
X10083800Y1186179D02*
G01*
X9982200Y1186179D01*
X11831320Y5742939D02*
G01*
X11831320Y5585460D01*
X11714479Y5585460D02*
G01*
X11714479Y5742939D01*
X11823700Y5694679D02*
G01*
X11722100Y5694679D01*
X11844020Y4244339D02*
G01*
X11844020Y4086860D01*
X11727179Y4086860D02*
G01*
X11727179Y4244339D01*
X11836400Y4196079D02*
G01*
X11734800Y4196079D01*
X11882120Y2809239D02*
G01*
X11882120Y2651760D01*
X11765279Y2651760D02*
G01*
X11765279Y2809239D01*
X11874500Y2760979D02*
G01*
X11772900Y2760979D01*
X11856720Y1259839D02*
G01*
X11856720Y1102360D01*
X11739879Y1102360D02*
G01*
X11739879Y1259839D01*
X11849100Y1211579D02*
G01*
X11747500Y1211579D01*
X13698220Y5755639D02*
G01*
X13698220Y5598160D01*
X13581379Y5598160D02*
G01*
X13581379Y5755639D01*
X13690600Y5707379D02*
G01*
X13589000Y5707379D01*
X13710920Y4244339D02*
G01*
X13710920Y4086860D01*
X13594079Y4086860D02*
G01*
X13594079Y4244339D01*
X13703300Y4196079D02*
G01*
X13601700Y4196079D01*
X13698220Y2821939D02*
G01*
X13698220Y2664460D01*
X13581379Y2664460D02*
G01*
X13581379Y2821939D01*
X13690600Y2773679D02*
G01*
X13589000Y2773679D01*
X13685520Y1247139D02*
G01*
X13685520Y1089660D01*
X13568679Y1089660D02*
G01*
X13568679Y1247139D01*
X13677900Y1198879D02*
G01*
X13576300Y1198879D01*
X15488920Y5755639D02*
G01*
X15488920Y5598160D01*
X15372079Y5598160D02*
G01*
X15372079Y5755639D01*
X15481300Y5707379D02*
G01*
X15379700Y5707379D01*
X15438120Y4244339D02*
G01*
X15438120Y4086860D01*
X15321279Y4086860D02*
G01*
X15321279Y4244339D01*
X15430500Y4196079D02*
G01*
X15328900Y4196079D01*
X15476220Y2821939D02*
G01*
X15476220Y2664460D01*
X15359379Y2664460D02*
G01*
X15359379Y2821939D01*
X15468600Y2773679D02*
G01*
X15367000Y2773679D01*
X15425420Y1272539D02*
G01*
X15425420Y1115060D01*
X15308579Y1115060D02*
G01*
X15308579Y1272539D01*
X15417800Y1224279D02*
G01*
X15316200Y1224279D01*
X17152620Y5755639D02*
G01*
X17152620Y5598160D01*
X17035779Y5598160D02*
G01*
X17035779Y5755639D01*
X17145000Y5707379D02*
G01*
X17043400Y5707379D01*
X17139920Y4218939D02*
G01*
X17139920Y4061460D01*
X17023079Y4061460D02*
G01*
X17023079Y4218939D01*
X17132300Y4170679D02*
G01*
X17030700Y4170679D01*
X17152620Y2796539D02*
G01*
X17152620Y2639060D01*
X17035779Y2639060D02*
G01*
X17035779Y2796539D01*
X17145000Y2748279D02*
G01*
X17043400Y2748279D01*
X17216120Y1272539D02*
G01*
X17216120Y1115060D01*
X17099279Y1115060D02*
G01*
X17099279Y1272539D01*
X17208500Y1224279D02*
G01*
X17106900Y1224279D01*
X18917920Y5755639D02*
G01*
X18917920Y5598160D01*
X18801079Y5598160D02*
G01*
X18801079Y5755639D01*
X18910300Y5707379D02*
G01*
X18808700Y5707379D01*
X18956020Y4244339D02*
G01*
X18956020Y4086860D01*
X18839179Y4086860D02*
G01*
X18839179Y4244339D01*
X18948400Y4196079D02*
G01*
X18846800Y4196079D01*
X18981420Y2847339D02*
G01*
X18981420Y2689860D01*
X18864579Y2689860D02*
G01*
X18864579Y2847339D01*
X18973800Y2799079D02*
G01*
X18872200Y2799079D01*
X18994120Y1285239D02*
G01*
X18994120Y1127760D01*
X18877279Y1127760D02*
G01*
X18877279Y1285239D01*
X18986500Y1236979D02*
G01*
X18884900Y1236979D01*
X20746720Y5742939D02*
G01*
X20746720Y5585460D01*
X20629879Y5585460D02*
G01*
X20629879Y5742939D01*
X20739100Y5694679D02*
G01*
X20637500Y5694679D01*
X20746720Y4244339D02*
G01*
X20746720Y4086860D01*
X20629879Y4086860D02*
G01*
X20629879Y4244339D01*
X20739100Y4196079D02*
G01*
X20637500Y4196079D01*
X20797520Y2821939D02*
G01*
X20797520Y2664460D01*
X20680679Y2664460D02*
G01*
X20680679Y2821939D01*
X20789900Y2773679D02*
G01*
X20688300Y2773679D01*
X20810220Y1297939D02*
G01*
X20810220Y1140460D01*
X20693379Y1140460D02*
G01*
X20693379Y1297939D01*
X20802600Y1249679D02*
G01*
X20701000Y1249679D01*
D26*
X2694304Y5427598D02*
G01*
X2694304Y5559602D01*
X2487295Y5559602D01*
X2487295Y5427598D01*
X2694304Y5314391D02*
G01*
X2694304Y5182387D01*
X2487295Y5182387D01*
X2487295Y5314391D01*
X2055495Y5329301D02*
G01*
X2055495Y5197297D01*
X2262504Y5197297D01*
X2262504Y5329301D01*
X2055495Y5442508D02*
G01*
X2055495Y5574512D01*
X2262504Y5574512D01*
X2262504Y5442508D01*
X1475104Y1896998D02*
G01*
X1475104Y2029002D01*
X1268095Y2029002D01*
X1268095Y1896998D01*
X1475104Y1783791D02*
G01*
X1475104Y1651787D01*
X1268095Y1651787D01*
X1268095Y1783791D01*
X2735199Y4100195D02*
G01*
X2867202Y4100195D01*
X2867202Y4307204D01*
X2735199Y4307204D01*
X2621991Y4100195D02*
G01*
X2489987Y4100195D01*
X2489987Y4307204D01*
X2621991Y4307204D01*
D10*
X1866900Y1574800D02*
G01*
X2476500Y1574800D01*
X1866900Y1574800D02*
G01*
X1866900Y965200D01*
X2476500Y1574800D02*
G01*
X2476500Y965200D01*
X1866900Y965200D02*
G01*
X2476500Y965200D01*
X3505200Y6070600D02*
G01*
X4114800Y6070600D01*
X3505200Y6070600D02*
G01*
X3505200Y5461000D01*
X4114800Y6070600D02*
G01*
X4114800Y5461000D01*
X3505200Y5461000D02*
G01*
X4114800Y5461000D01*
X3517900Y4572000D02*
G01*
X4127500Y4572000D01*
X3517900Y4572000D02*
G01*
X3517900Y3962400D01*
X4127500Y4572000D02*
G01*
X4127500Y3962400D01*
X3517900Y3962400D02*
G01*
X4127500Y3962400D01*
X3505200Y3149600D02*
G01*
X4114800Y3149600D01*
X3505200Y3149600D02*
G01*
X3505200Y2540000D01*
X4114800Y3149600D02*
G01*
X4114800Y2540000D01*
X3505200Y2540000D02*
G01*
X4114800Y2540000D01*
X3505200Y1600200D02*
G01*
X4114800Y1600200D01*
X3505200Y1600200D02*
G01*
X3505200Y990600D01*
X4114800Y1600200D02*
G01*
X4114800Y990600D01*
X3505200Y990600D02*
G01*
X4114800Y990600D01*
X5283200Y6070600D02*
G01*
X5892800Y6070600D01*
X5283200Y6070600D02*
G01*
X5283200Y5461000D01*
X5892800Y6070600D02*
G01*
X5892800Y5461000D01*
X5283200Y5461000D02*
G01*
X5892800Y5461000D01*
X5270500Y4584700D02*
G01*
X5880100Y4584700D01*
X5270500Y4584700D02*
G01*
X5270500Y3975100D01*
X5880100Y4584700D02*
G01*
X5880100Y3975100D01*
X5270500Y3975100D02*
G01*
X5880100Y3975100D01*
X5295900Y3149600D02*
G01*
X5905500Y3149600D01*
X5295900Y3149600D02*
G01*
X5295900Y2540000D01*
X5905500Y3149600D02*
G01*
X5905500Y2540000D01*
X5295900Y2540000D02*
G01*
X5905500Y2540000D01*
X5295900Y1600200D02*
G01*
X5905500Y1600200D01*
X5295900Y1600200D02*
G01*
X5295900Y990600D01*
X5905500Y1600200D02*
G01*
X5905500Y990600D01*
X5295900Y990600D02*
G01*
X5905500Y990600D01*
X7061200Y6070600D02*
G01*
X7670800Y6070600D01*
X7061200Y6070600D02*
G01*
X7061200Y5461000D01*
X7670800Y6070600D02*
G01*
X7670800Y5461000D01*
X7061200Y5461000D02*
G01*
X7670800Y5461000D01*
X7048500Y4584700D02*
G01*
X7658100Y4584700D01*
X7048500Y4584700D02*
G01*
X7048500Y3975100D01*
X7658100Y4584700D02*
G01*
X7658100Y3975100D01*
X7048500Y3975100D02*
G01*
X7658100Y3975100D01*
X7061200Y3149600D02*
G01*
X7670800Y3149600D01*
X7061200Y3149600D02*
G01*
X7061200Y2540000D01*
X7670800Y3149600D02*
G01*
X7670800Y2540000D01*
X7061200Y2540000D02*
G01*
X7670800Y2540000D01*
X7073900Y1600200D02*
G01*
X7683500Y1600200D01*
X7073900Y1600200D02*
G01*
X7073900Y990600D01*
X7683500Y1600200D02*
G01*
X7683500Y990600D01*
X7073900Y990600D02*
G01*
X7683500Y990600D01*
X8851900Y6057900D02*
G01*
X9461500Y6057900D01*
X8851900Y6057900D02*
G01*
X8851900Y5448300D01*
X9461500Y6057900D02*
G01*
X9461500Y5448300D01*
X8851900Y5448300D02*
G01*
X9461500Y5448300D01*
X8851900Y4584700D02*
G01*
X9461500Y4584700D01*
X8851900Y4584700D02*
G01*
X8851900Y3975100D01*
X9461500Y4584700D02*
G01*
X9461500Y3975100D01*
X8851900Y3975100D02*
G01*
X9461500Y3975100D01*
X8851900Y3149600D02*
G01*
X9461500Y3149600D01*
X8851900Y3149600D02*
G01*
X8851900Y2540000D01*
X9461500Y3149600D02*
G01*
X9461500Y2540000D01*
X8851900Y2540000D02*
G01*
X9461500Y2540000D01*
X8851900Y1587500D02*
G01*
X9461500Y1587500D01*
X8851900Y1587500D02*
G01*
X8851900Y977900D01*
X9461500Y1587500D02*
G01*
X9461500Y977900D01*
X8851900Y977900D02*
G01*
X9461500Y977900D01*
X10617200Y6083300D02*
G01*
X11226800Y6083300D01*
X10617200Y6083300D02*
G01*
X10617200Y5473700D01*
X11226800Y6083300D02*
G01*
X11226800Y5473700D01*
X10617200Y5473700D02*
G01*
X11226800Y5473700D01*
X10617200Y4584700D02*
G01*
X11226800Y4584700D01*
X10617200Y4584700D02*
G01*
X10617200Y3975100D01*
X11226800Y4584700D02*
G01*
X11226800Y3975100D01*
X10617200Y3975100D02*
G01*
X11226800Y3975100D01*
X10629900Y3149600D02*
G01*
X11239500Y3149600D01*
X10629900Y3149600D02*
G01*
X10629900Y2540000D01*
X11239500Y3149600D02*
G01*
X11239500Y2540000D01*
X10629900Y2540000D02*
G01*
X11239500Y2540000D01*
X10629900Y1600200D02*
G01*
X11239500Y1600200D01*
X10629900Y1600200D02*
G01*
X10629900Y990600D01*
X11239500Y1600200D02*
G01*
X11239500Y990600D01*
X10629900Y990600D02*
G01*
X11239500Y990600D01*
X12407900Y6096000D02*
G01*
X13017500Y6096000D01*
X12407900Y6096000D02*
G01*
X12407900Y5486400D01*
X13017500Y6096000D02*
G01*
X13017500Y5486400D01*
X12407900Y5486400D02*
G01*
X13017500Y5486400D01*
X12395200Y4584700D02*
G01*
X13004800Y4584700D01*
X12395200Y4584700D02*
G01*
X12395200Y3975100D01*
X13004800Y4584700D02*
G01*
X13004800Y3975100D01*
X12395200Y3975100D02*
G01*
X13004800Y3975100D01*
X12395200Y3162300D02*
G01*
X13004800Y3162300D01*
X12395200Y3162300D02*
G01*
X12395200Y2552700D01*
X13004800Y3162300D02*
G01*
X13004800Y2552700D01*
X12395200Y2552700D02*
G01*
X13004800Y2552700D01*
X12407900Y1600200D02*
G01*
X13017500Y1600200D01*
X12407900Y1600200D02*
G01*
X12407900Y990600D01*
X13017500Y1600200D02*
G01*
X13017500Y990600D01*
X12407900Y990600D02*
G01*
X13017500Y990600D01*
X14185900Y6096000D02*
G01*
X14795500Y6096000D01*
X14185900Y6096000D02*
G01*
X14185900Y5486400D01*
X14795500Y6096000D02*
G01*
X14795500Y5486400D01*
X14185900Y5486400D02*
G01*
X14795500Y5486400D01*
X14185900Y4584700D02*
G01*
X14795500Y4584700D01*
X14185900Y4584700D02*
G01*
X14185900Y3975100D01*
X14795500Y4584700D02*
G01*
X14795500Y3975100D01*
X14185900Y3975100D02*
G01*
X14795500Y3975100D01*
X14173200Y3162300D02*
G01*
X14782800Y3162300D01*
X14173200Y3162300D02*
G01*
X14173200Y2552700D01*
X14782800Y3162300D02*
G01*
X14782800Y2552700D01*
X14173200Y2552700D02*
G01*
X14782800Y2552700D01*
X14185900Y1612900D02*
G01*
X14795500Y1612900D01*
X14185900Y1612900D02*
G01*
X14185900Y1003300D01*
X14795500Y1612900D02*
G01*
X14795500Y1003300D01*
X14185900Y1003300D02*
G01*
X14795500Y1003300D01*
X15951200Y6096000D02*
G01*
X16560800Y6096000D01*
X15951200Y6096000D02*
G01*
X15951200Y5486400D01*
X16560800Y6096000D02*
G01*
X16560800Y5486400D01*
X15951200Y5486400D02*
G01*
X16560800Y5486400D01*
X15963900Y4584700D02*
G01*
X16573500Y4584700D01*
X15963900Y4584700D02*
G01*
X15963900Y3975100D01*
X16573500Y4584700D02*
G01*
X16573500Y3975100D01*
X15963900Y3975100D02*
G01*
X16573500Y3975100D01*
X15963900Y3162300D02*
G01*
X16573500Y3162300D01*
X15963900Y3162300D02*
G01*
X15963900Y2552700D01*
X16573500Y3162300D02*
G01*
X16573500Y2552700D01*
X15963900Y2552700D02*
G01*
X16573500Y2552700D01*
X15963900Y1612900D02*
G01*
X16573500Y1612900D01*
X15963900Y1612900D02*
G01*
X15963900Y1003300D01*
X16573500Y1612900D02*
G01*
X16573500Y1003300D01*
X15963900Y1003300D02*
G01*
X16573500Y1003300D01*
X17729200Y6096000D02*
G01*
X18338800Y6096000D01*
X17729200Y6096000D02*
G01*
X17729200Y5486400D01*
X18338800Y6096000D02*
G01*
X18338800Y5486400D01*
X17729200Y5486400D02*
G01*
X18338800Y5486400D01*
X17729200Y4584700D02*
G01*
X18338800Y4584700D01*
X17729200Y4584700D02*
G01*
X17729200Y3975100D01*
X18338800Y4584700D02*
G01*
X18338800Y3975100D01*
X17729200Y3975100D02*
G01*
X18338800Y3975100D01*
X17741900Y3162300D02*
G01*
X18351500Y3162300D01*
X17741900Y3162300D02*
G01*
X17741900Y2552700D01*
X18351500Y3162300D02*
G01*
X18351500Y2552700D01*
X17741900Y2552700D02*
G01*
X18351500Y2552700D01*
X17741900Y1625600D02*
G01*
X18351500Y1625600D01*
X17741900Y1625600D02*
G01*
X17741900Y1016000D01*
X18351500Y1625600D02*
G01*
X18351500Y1016000D01*
X17741900Y1016000D02*
G01*
X18351500Y1016000D01*
X19519900Y6083300D02*
G01*
X20129500Y6083300D01*
X19519900Y6083300D02*
G01*
X19519900Y5473700D01*
X20129500Y6083300D02*
G01*
X20129500Y5473700D01*
X19519900Y5473700D02*
G01*
X20129500Y5473700D01*
X19507200Y4584700D02*
G01*
X20116800Y4584700D01*
X19507200Y4584700D02*
G01*
X19507200Y3975100D01*
X20116800Y4584700D02*
G01*
X20116800Y3975100D01*
X19507200Y3975100D02*
G01*
X20116800Y3975100D01*
X19507200Y3162300D02*
G01*
X20116800Y3162300D01*
X19507200Y3162300D02*
G01*
X19507200Y2552700D01*
X20116800Y3162300D02*
G01*
X20116800Y2552700D01*
X19507200Y2552700D02*
G01*
X20116800Y2552700D01*
X19507200Y1638300D02*
G01*
X20116800Y1638300D01*
X19507200Y1638300D02*
G01*
X19507200Y1028700D01*
X20116800Y1638300D02*
G01*
X20116800Y1028700D01*
X19507200Y1028700D02*
G01*
X20116800Y1028700D01*
X861060Y2372360D02*
G01*
X1018539Y2372360D01*
X1018539Y2174239D02*
G01*
X861060Y2174239D01*
X1913013Y2105327D02*
G01*
X1280830Y2715818D01*
X1279827Y2773286D01*
X1890318Y3405469D01*
X1947786Y3406472D01*
X2579969Y2795981D01*
X2580972Y2738513D01*
X1970481Y2106330D01*
X1913013Y2105327D01*
X3111500Y6426200D02*
G01*
X3126740Y6426200D01*
X3126740Y6426200D02*
G01*
X3157220Y6426200D01*
X3157220Y6426200D02*
G01*
X3157220Y6299200D01*
X3157220Y6121400D02*
G01*
X3157220Y6060439D01*
X2997200Y5925820D02*
G01*
X2956559Y5925820D01*
X2606040Y5925820D02*
G01*
X2565400Y5925820D01*
X2405379Y6060439D02*
G01*
X2405379Y6121400D01*
X2405379Y6299200D02*
G01*
X2405379Y6426200D01*
X2405379Y6426200D02*
G01*
X2435859Y6426200D01*
X2435859Y6426200D02*
G01*
X2451100Y6426200D01*
X3075940Y6464300D02*
G01*
X2486659Y6464300D01*
X3075940Y6484620D02*
G01*
X2486659Y6484620D01*
X3091179Y6446520D02*
G01*
X3091179Y6449060D01*
X3091179Y6449060D02*
G01*
X3091179Y6469379D01*
X2471420Y6446520D02*
G01*
X2471420Y6449060D01*
X2471420Y6449060D02*
G01*
X2471420Y6469379D01*
X3157220Y6426200D02*
G01*
X3182620Y6469379D01*
X3182620Y6469379D02*
G01*
X3157220Y6484620D01*
X3157220Y6484620D02*
G01*
X3129279Y6438900D01*
X2405379Y6426200D02*
G01*
X2379979Y6469379D01*
X2379979Y6469379D02*
G01*
X2405379Y6484620D01*
X2405379Y6484620D02*
G01*
X2433320Y6441439D01*
X1800860Y4653279D02*
G01*
X1678939Y4653279D01*
X1490979Y4782820D02*
G01*
X1490979Y4843779D01*
X1678939Y4973320D02*
G01*
X1800860Y4973320D01*
X1988820Y4782820D02*
G01*
X1988820Y4843779D01*
G75*
G01*
X859800Y2173300D02*
G02*
X839800Y2203300I4981J24987D01*
G75*
G01*
X1039800Y2203300D02*
G02*
X1019800Y2173300I-24990J-5007D01*
G75*
G01*
X1039800Y2343300D02*
G03*
X1019800Y2373300I-24990J5007D01*
G75*
G01*
X859800Y2373300D02*
G03*
X839800Y2343300I4990J-24993D01*
G75*
G01*
X3111299Y6425301D02*
G02*
X3091299Y6445301I0J20000D01*
G75*
G01*
X3091299Y6449299D02*
G03*
X3076298Y6464300I-15001J0D01*
G75*
G01*
X3091299Y6470299D02*
G03*
X3076298Y6485301I-15001J0D01*
G75*
G01*
X2486299Y6485301D02*
G03*
X2471301Y6470299I3J-15002D01*
G75*
G01*
X2486299Y6464300D02*
G03*
X2471301Y6449299I3J-15001D01*
G75*
G01*
X2471301Y6445301D02*
G02*
X2451301Y6425301I-20000J0D01*
G75*
G01*
X3129648Y6439139D02*
G03*
X3126298Y6425301I24150J-13172D01*
G75*
G01*
X2432281Y6440300D02*
G02*
X2436299Y6425301I-25982J-14999D01*
G75*
G01
X4668520Y5763235D02*
G03X4668520Y5763235I-25400J0D01*
G75*
G01
X4706620Y4264660D02*
G03X4706620Y4264660I-25400J0D01*
G75*
G01
X4681220Y2829560D02*
G03X4681220Y2829560I-25400J0D01*
G75*
G01
X4693920Y1292860D02*
G03X4693920Y1292860I-25400J0D01*
G75*
G01
X6560820Y5763260D02*
G03X6560820Y5763260I-25400J0D01*
G75*
G01
X6586220Y4277360D02*
G03X6586220Y4277360I-25400J0D01*
G75*
G01
X6548120Y2842260D02*
G03X6548120Y2842260I-25400J0D01*
G75*
G01
X6510020Y1292860D02*
G03X6510020Y1292860I-25400J0D01*
G75*
G01
X8326120Y5763260D02*
G03X8326120Y5763260I-25400J0D01*
G75*
G01
X8300720Y4277360D02*
G03X8300720Y4277360I-25400J0D01*
G75*
G01
X8300720Y2829560D02*
G03X8300720Y2829560I-25400J0D01*
G75*
G01
X8326120Y1292860D02*
G03X8326120Y1292860I-25400J0D01*
G75*
G01
X10078720Y5750560D02*
G03X10078720Y5750560I-25400J0D01*
G75*
G01
X10142220Y4277360D02*
G03X10142220Y4277360I-25400J0D01*
G75*
G01
X10116820Y2842260D02*
G03X10116820Y2842260I-25400J0D01*
G75*
G01
X10116820Y1267460D02*
G03X10116820Y1267460I-25400J0D01*
G75*
G01
X11856720Y5775960D02*
G03X11856720Y5775960I-25400J0D01*
G75*
G01
X11869420Y4277360D02*
G03X11869420Y4277360I-25400J0D01*
G75*
G01
X11907520Y2842260D02*
G03X11907520Y2842260I-25400J0D01*
G75*
G01
X11882120Y1292860D02*
G03X11882120Y1292860I-25400J0D01*
G75*
G01
X13723620Y5788660D02*
G03X13723620Y5788660I-25400J0D01*
G75*
G01
X13736320Y4277360D02*
G03X13736320Y4277360I-25400J0D01*
G75*
G01
X13723620Y2854960D02*
G03X13723620Y2854960I-25400J0D01*
G75*
G01
X13710920Y1280160D02*
G03X13710920Y1280160I-25400J0D01*
G75*
G01
X15514320Y5788660D02*
G03X15514320Y5788660I-25400J0D01*
G75*
G01
X15463520Y4277360D02*
G03X15463520Y4277360I-25400J0D01*
G75*
G01
X15501620Y2854960D02*
G03X15501620Y2854960I-25400J0D01*
G75*
G01
X15450820Y1305560D02*
G03X15450820Y1305560I-25400J0D01*
G75*
G01
X17178020Y5788660D02*
G03X17178020Y5788660I-25400J0D01*
G75*
G01
X17165320Y4251960D02*
G03X17165320Y4251960I-25400J0D01*
G75*
G01
X17178020Y2829560D02*
G03X17178020Y2829560I-25400J0D01*
G75*
G01
X17241520Y1305535D02*
G03X17241520Y1305535I-25400J0D01*
G75*
G01
X18943320Y5788660D02*
G03X18943320Y5788660I-25400J0D01*
G75*
G01
X18981420Y4277360D02*
G03X18981420Y4277360I-25400J0D01*
G75*
G01
X19006820Y2880360D02*
G03X19006820Y2880360I-25400J0D01*
G75*
G01
X19019520Y1318260D02*
G03X19019520Y1318260I-25400J0D01*
G75*
G01
X20772120Y5775960D02*
G03X20772120Y5775960I-25400J0D01*
G75*
G01
X20772120Y4277360D02*
G03X20772120Y4277360I-25400J0D01*
G75*
G01
X20822920Y2854960D02*
G03X20822920Y2854960I-25400J0D01*
G75*
G01
X20835620Y1330960D02*
G03X20835620Y1330960I-25400J0D01*
G75*
G01
X2321814Y1270000D02*
G03X2321814Y1270000I-150114J0D01*
G75*
G01
X3960114Y5765775D02*
G03X3960114Y5765775I-150114J0D01*
G75*
G01
X3972814Y4267200D02*
G03X3972814Y4267200I-150114J0D01*
G75*
G01
X3960114Y2844800D02*
G03X3960114Y2844800I-150114J0D01*
G75*
G01
X3960114Y1295400D02*
G03X3960114Y1295400I-150114J0D01*
G75*
G01
X5738114Y5765800D02*
G03X5738114Y5765800I-150114J0D01*
G75*
G01
X5725414Y4279900D02*
G03X5725414Y4279900I-150114J0D01*
G75*
G01
X5750814Y2844800D02*
G03X5750814Y2844800I-150114J0D01*
G75*
G01
X5750814Y1295400D02*
G03X5750814Y1295400I-150114J0D01*
G75*
G01
X7516114Y5765800D02*
G03X7516114Y5765800I-150114J0D01*
G75*
G01
X7503414Y4279900D02*
G03X7503414Y4279900I-150114J0D01*
G75*
G01
X7516114Y2844800D02*
G03X7516114Y2844800I-150114J0D01*
G75*
G01
X7528814Y1295400D02*
G03X7528814Y1295400I-150114J0D01*
G75*
G01
X9306839Y5753100D02*
G03X9306839Y5753100I-150114J0D01*
G75*
G01
X9306814Y4279900D02*
G03X9306814Y4279900I-150114J0D01*
G75*
G01
X9306839Y2844800D02*
G03X9306839Y2844800I-150114J0D01*
G75*
G01
X9306814Y1282700D02*
G03X9306814Y1282700I-150114J0D01*
G75*
G01
X11072114Y5778500D02*
G03X11072114Y5778500I-150114J0D01*
G75*
G01
X11072114Y4279900D02*
G03X11072114Y4279900I-150114J0D01*
G75*
G01
X11084814Y2844800D02*
G03X11084814Y2844800I-150114J0D01*
G75*
G01
X11084814Y1295400D02*
G03X11084814Y1295400I-150114J0D01*
G75*
G01
X12862814Y5791200D02*
G03X12862814Y5791200I-150114J0D01*
G75*
G01
X12850114Y4279900D02*
G03X12850114Y4279900I-150114J0D01*
G75*
G01
X12850114Y2857500D02*
G03X12850114Y2857500I-150114J0D01*
G75*
G01
X12862814Y1295400D02*
G03X12862814Y1295400I-150114J0D01*
G75*
G01
X14640814Y5791200D02*
G03X14640814Y5791200I-150114J0D01*
G75*
G01
X14640814Y4279900D02*
G03X14640814Y4279900I-150114J0D01*
G75*
G01
X14628114Y2857500D02*
G03X14628114Y2857500I-150114J0D01*
G75*
G01
X14640814Y1308100D02*
G03X14640814Y1308100I-150114J0D01*
G75*
G01
X16406114Y5791200D02*
G03X16406114Y5791200I-150114J0D01*
G75*
G01
X16418839Y4279900D02*
G03X16418839Y4279900I-150114J0D01*
G75*
G01
X16418814Y2857475D02*
G03X16418814Y2857475I-150114J0D01*
G75*
G01
X16418814Y1308100D02*
G03X16418814Y1308100I-150114J0D01*
G75*
G01
X18184114Y5791200D02*
G03X18184114Y5791200I-150114J0D01*
G75*
G01
X18184114Y4279900D02*
G03X18184114Y4279900I-150114J0D01*
G75*
G01
X18196814Y2857500D02*
G03X18196814Y2857500I-150114J0D01*
G75*
G01
X18196814Y1320800D02*
G03X18196814Y1320800I-150114J0D01*
G75*
G01
X19974814Y5778475D02*
G03X19974814Y5778475I-150114J0D01*
G75*
G01
X19962114Y4279900D02*
G03X19962114Y4279900I-150114J0D01*
G75*
G01
X19962114Y2857500D02*
G03X19962114Y2857500I-150114J0D01*
G75*
G01
X19962114Y1333500D02*
G03X19962114Y1333500I-150114J0D01*
G75*
G01
X1394460Y2746045D02*
G03X1394460Y2746045I-27940J0D01*
M02*
