M48
METRIC,LZ,000.000
;FILE_FORMAT=3:3
;TYPE=PLATED
;Layer: PTH_Through
;EasyEDA v6.4.32, 2022-03-07 19:42:49
;6d175750cd924158a65b80fb6ee35e85,2ace594c3a204291bb7abb2ca186b691,10
;Gerber Generator version 0.2
;Holesize 1 = 0.305 mm
T01C0.305
%
G05
G90
T01
X023749Y050546
X021590Y050546
X013843Y022098
X014986Y037846
X012446Y044069
X021717Y046482
X020193Y025527
X028321Y037846
X038100Y051054
X027940Y025400
X127381Y023749
X027432Y024257
X144780Y022733
X027178Y023241
X162560Y021336
X026797Y022606
X180594Y019812
X026289Y021717
X198120Y018669
X025527Y037338
X055753Y036703
X023114Y036068
X073660Y035433
X018288Y031877
X019177Y025400
X015494Y044577
X017272Y030607
X091567Y008001
X109347Y006985
X014859Y027559
X019558Y036703
X023114Y020574
X024003Y027305
X021844Y017780
X016002Y019050
X011303Y036449
X016764Y043434
X012192Y024892
X015621Y021082
X011811Y030480
X017018Y035687
X013462Y034417
X017907Y041148
X018542Y043688
M30
