G04 Layer: BottomLayer*
G04 EasyEDA v6.4.32, 2022-03-07 19:42:49*
G04 6d175750cd924158a65b80fb6ee35e85,2ace594c3a204291bb7abb2ca186b691,10*
G04 Gerber Generator version 0.2*
G04 Scale: 100 percent, Rotated: No, Reflected: No *
G04 Dimensions in millimeters *
G04 leading zeros omitted , absolute positions ,4 integer and 5 decimal *
%FSLAX45Y45*%
%MOMM*%

%ADD10C,0.2540*%
%ADD11C,0.6096*%

%LPD*%
D10*
X1384300Y2209800D02*
G01*
X1282700Y2209800D01*
X1117600Y2374900D01*
X1066800Y2425700D01*
X1066800Y3746500D01*
X1104900Y3784600D01*
X1498600Y3784600D01*
X2171700Y4648200D02*
G01*
X2019300Y4495800D01*
X2019300Y4381500D01*
X2019300Y2552700D01*
X2794000Y2540000D02*
G01*
X2959100Y2374900D01*
X12738100Y2374900D01*
X2743200Y2425700D02*
G01*
X2921000Y2247900D01*
X2946400Y2247900D01*
X2971800Y2273300D01*
X14478000Y2273300D01*
X2717800Y2324100D02*
G01*
X2908300Y2133600D01*
X3060700Y2133600D01*
X16256000Y2133600D01*
X2679700Y2260600D02*
G01*
X2921000Y2019300D01*
X2959100Y1981200D01*
X18059400Y1981200D01*
X2628900Y2171700D02*
G01*
X2933700Y1866900D01*
X19812000Y1866900D01*
X2832100Y3784600D02*
G01*
X3632200Y4584700D01*
X3632200Y5105400D01*
X3810000Y5105400D01*
X2552700Y3733800D02*
G01*
X2616200Y3670300D01*
X3238500Y3670300D01*
X5575300Y3670300D01*
X2311400Y3606800D02*
G01*
X2374900Y3543300D01*
X7366000Y3543300D01*
X1828800Y3187700D02*
G01*
X1828800Y2476500D01*
X2425700Y1879600D01*
X3200400Y1104900D01*
X3200400Y825500D01*
X3225800Y800100D01*
X9156700Y800100D01*
X1727200Y3060700D02*
G01*
X1727200Y2438400D01*
X3060700Y1104900D01*
X3060700Y673100D01*
X6629400Y673100D01*
X6654800Y698500D01*
X10934700Y698500D01*
X2374900Y5054600D02*
G01*
X1905000Y4584700D01*
X1905000Y3517900D01*
X1485900Y3098800D01*
X1485900Y2819400D01*
X1485900Y2755900D01*
X1917700Y2540000D02*
G01*
X1955800Y2578100D01*
X1955800Y3657600D01*
X1955800Y3670300D01*
X2311400Y2057400D02*
G01*
X2400300Y2146300D01*
X2400300Y2730500D01*
X2184400Y1778000D02*
G01*
X2057400Y1905000D01*
X1600200Y1905000D01*
X1130300Y3644900D02*
G01*
X1562100Y3644900D01*
X1663700Y3746500D01*
X1676400Y3759200D01*
X1676400Y4343400D01*
X1219200Y2489200D02*
G01*
X1562100Y2146300D01*
X1562100Y2108200D01*
X1181100Y3048000D02*
G01*
X1701800Y3568700D01*
X1346200Y3441700D02*
G01*
X1460500Y3441700D01*
X1790700Y3771900D01*
X1790700Y4114800D01*
X1701800Y3568700D02*
G01*
X1854200Y3721100D01*
X1854200Y4368800D01*
D11*
G01*
X2374900Y5054600D03*
G01*
X2159000Y5054600D03*
G01*
X1384300Y2209800D03*
G01*
X1498600Y3784600D03*
G01*
X1244600Y4406900D03*
G01*
X2171700Y4648200D03*
G01*
X2019300Y2552700D03*
G01*
X2832100Y3784600D03*
G01*
X3810000Y5105400D03*
G01*
X2794000Y2540000D03*
G01*
X12738100Y2374900D03*
G01*
X2743200Y2425700D03*
G01*
X14478000Y2273300D03*
G01*
X2717800Y2324100D03*
G01*
X16256000Y2133600D03*
G01*
X2679700Y2260600D03*
G01*
X18059400Y1981200D03*
G01*
X2628900Y2171700D03*
G01*
X19812000Y1866900D03*
G01*
X2552700Y3733800D03*
G01*
X5575300Y3670300D03*
G01*
X2311400Y3606800D03*
G01*
X7366000Y3543300D03*
G01*
X1828800Y3187700D03*
G01*
X1917700Y2540000D03*
G01*
X1549400Y4457700D03*
G01*
X1727200Y3060700D03*
G01*
X9156700Y800100D03*
G01*
X10934700Y698500D03*
G01*
X1485900Y2755900D03*
G01*
X1955800Y3670300D03*
G01*
X2311400Y2057400D03*
G01*
X2400300Y2730500D03*
G01*
X2184400Y1778000D03*
G01*
X1600200Y1905000D03*
G01*
X1130300Y3644900D03*
G01*
X1676400Y4343400D03*
G01*
X1219200Y2489200D03*
G01*
X1562100Y2108200D03*
G01*
X1181100Y3048000D03*
G01*
X1701800Y3568700D03*
G01*
X1346200Y3441700D03*
G01*
X1790700Y4114800D03*
G01*
X1854200Y4368800D03*
M02*
